SplineFontDB: 3.2
FontName: ASI_Mono_Compatible
FullName: ASI Mono Compatible
FamilyName: ASI_Mono_Compatible
Weight: Regular
Copyright: This font is derived from Ubuntu Sans Mono Regular.\nCopyright 2024 Abraham Macias Paredes.  Licensed under the Ubuntu Font Licence 1.0
Version: 1.006; ttfautohint (v1.8.4.7-5d5b)
ItalicAngle: 0
UnderlinePosition: -133
UnderlineWidth: 20
Ascent: 800
Descent: 200
InvalidEm: 0
LayerCount: 2
Layer: 0 0 "Atr+AOEA-s" 1
Layer: 1 0 "Fore" 0
StyleMap: 0x0000
FSType: 0
OS2Version: 0
OS2_WeightWidthSlopeOnly: 0
OS2_UseTypoMetrics: 0
CreationTime: 1723974030
ModificationTime: 1731849530
OS2TypoAscent: 0
OS2TypoAOffset: 1
OS2TypoDescent: 0
OS2TypoDOffset: 1
OS2TypoLinegap: 90
OS2WinAscent: 0
OS2WinAOffset: 1
OS2WinDescent: 0
OS2WinDOffset: 1
HheadAscent: 0
HheadAOffset: 1
HheadDescent: 0
HheadDOffset: 1
MarkAttachClasses: 1
DEI: 91125
Encoding: Custom
UnicodeInterp: none
NameList: AGL For New Fonts
DisplaySize: -24
AntiAlias: 0
FitToEm: 0
WinInfo: 43 43 10
BeginPrivate: 6
StdHW 4 [67]
StemSnapH 10 [65 67 69]
StdVW 4 [78]
StemSnapV 22 [73 77 78 79 81 85 87]
BlueValues 31 [-15 0 518 530 693 709 775 776]
OtherBlues 11 [-185 -185]
EndPrivate
Grid
-1000 626 m 0
 2000 626 l 1024
-1000 726 m 0
 2000 726 l 1024
-1000 542 m 0
 2000 542 l 1024
-1000 426.5 m 0
 2000 426.5 l 1024
-1000 314.5 m 0
 2000 314.5 l 1024
-1000 208.5 m 0
 2000 208.5 l 1024
-1000 106 m 4
 2000 106 l 1028
401.5 1300 m 0
 401.5 -700 l 1024
302 1296 m 0
 302 -704 l 1024
197.5 1300 m 0
 197.5 -700 l 1024
89.5 1300 m 0
 89.5 -700 l 1024
501.5 1300 m 0
 501.5 -700 l 1024
EndSplineSet
BeginChars: 1405 1342

StartChar: .notdef
Encoding: 0 -1 0
Width: 559
Flags: HW
LayerCount: 2
Fore
SplineSet
56 0 m 1
 56 840 l 1
 504 840 l 1
 504 0 l 1
 56 0 l 1
112 56 m 1
 448 56 l 1
 448 784 l 1
 112 784 l 1
 112 56 l 1
EndSplineSet
Validated: 1
EndChar

StartChar: exclam
Encoding: 33 33 3
Width: 559
Flags: HW
LayerCount: 2
Fore
SplineSet
205 208.5 m 5
 203.5 720 l 5
 299 720 l 5
 302 208.5 l 5
 205 208.5 l 5
201 3 m 5
 201 106 l 5
 299 106 l 5
 299 3 l 5
 201 3 l 5
EndSplineSet
Validated: 1
EndChar

StartChar: quotedbl
Encoding: 34 34 4
Width: 557
Flags: HW
LayerCount: 2
Fore
SplineSet
95 543 m 1
 95 798 l 5
 195 798 l 5
 194 543 l 1
 95 543 l 1
303 543 m 1
 302 798 l 5
 397 798 l 5
 396 543 l 1
 303 543 l 1
EndSplineSet
Validated: 1
EndChar

StartChar: numbersign
Encoding: 35 35 5
Width: 559
Flags: HW
LayerCount: 2
Fore
SplineSet
95 0 m 1
 94 211 l 1
 5 211 l 1
 5 310 l 1
 97 310 l 1
 97 430 l 1
 5 430 l 1
 5 519 l 1
 97 519 l 1
 98 723 l 1
 194 723 l 1
 194 519 l 1
 307 519 l 1
 307 723 l 1
 402 723 l 1
 402 519 l 1
 501 519 l 5
 501 430 l 5
 402 430 l 1
 404 310 l 1
 501 310 l 5
 501 211 l 5
 401 211 l 1
 401.5 0 l 1
 305 0 l 1
 307 211 l 1
 195 211 l 1
 194 0 l 1
 95 0 l 1
193 310 m 1
 308 310 l 1
 309 430 l 1
 193 430 l 1
 193 310 l 1
EndSplineSet
Validated: 1
EndChar

StartChar: dollar
Encoding: 36 36 6
Width: 559
Flags: HW
LayerCount: 2
Fore
SplineSet
203 -109 m 1
 203 1 l 1
 0 0 l 1
 0 106 l 1
 402 106 l 1
 400 321.5 l 1
 90 320.725 l 1
 89 417.5 l 1
 0 417 l 1
 0 624 l 5
 88 625 l 1
 88 730 l 1
 202 730 l 1
 203 822 l 1
 298 822 l 1
 302 730 l 1
 498 730 l 1
 498 625 l 1
 88 625 l 1
 89 417.5 l 1
 398 417.5 l 1
 400 321.5 l 1
 500.350299401 320 l 1
 501.09765625 106 l 1
 402 106 l 1
 398 0.511111111111 l 1
 299 1 l 1
 299 -109 l 1
 203 -109 l 1
EndSplineSet
Validated: 5
EndChar

StartChar: percent
Encoding: 37 37 7
Width: 559
Flags: HW
LayerCount: 2
Fore
SplineSet
93 426.5 m 1
 92 542 l 5
 -0 542 l 1
 -0 626 l 1
 92 626 l 5
 91 726 l 1
 196 726 l 1
 199 626 l 1
 301 626 l 1
 299 542 l 1
 197 542 l 1
 198 426.5 l 1
 93 426.5 l 1
0 0 m 1
 0 208 l 1
 88.7939453125 208 l 1
 89 314.5 l 1
 196.020507812 318 l 1
 198 426.5 l 1
 301 426.5 l 1
 301.17578125 540 l 1
 402.45703125 541 l 1
 403 723 l 1
 503 723 l 1
 501 542 l 1
 402.45703125 541 l 1
 401 426.5 l 1
 301 426.5 l 1
 305 314.5 l 1
 196.020507812 318 l 1
 195.009765625 210 l 1
 91 208 l 1
 90 0 l 1
 0 0 l 1
197 542 m 1
 199 626 l 1
 92 626 l 5
 92 542 l 5
 197 542 l 1
302 0 m 1
 303 106 l 1
 201 106 l 1
 195 208.5 l 1
 302 208.5 l 1
 305 314.5 l 1
 400 317 l 1
 400 208.5 l 1
 501 208.5 l 1
 501 106 l 1
 403 106 l 1
 401.5 0 l 1
 302 0 l 1
303 106 m 1
 403 106 l 1
 400 208.5 l 1
 302 208.5 l 1
 303 106 l 1
EndSplineSet
Validated: 5
EndChar

StartChar: ampersand
Encoding: 38 38 8
Width: 559
Flags: HW
LayerCount: 2
Fore
SplineSet
302 0 m 1
 89.5 0 l 1
 93 106 l 1
 0 106 l 1
 0 208.5 l 1
 89 208.5 l 5
 91 314.5 l 1
 201 314.5 l 1
 197.5 426 l 1
 93 426.5 l 1
 93 626 l 1
 195 624 l 1
 201 726 l 1
 303 726 l 1
 304 625 l 1
 399 626 l 1
 400 426.5 l 1
 305 426.5 l 1
 305 208.5 l 1
 401 208.5 l 1
 401 314.5 l 1
 499 314.5 l 1
 499 208.5 l 1
 401 208.5 l 1
 403 106 l 1
 501 106 l 1
 502 0 l 1
 401.5 0 l 1
 403 106 l 1
 305 106 l 1
 302 0 l 1
197.5 426 m 1
 305 426.5 l 1
 304 625 l 1
 195 624 l 1
 197.5 426 l 1
305 106 m 1
 303 208.5 l 1
 305 208.5 89 208.5 89 208.5 c 1
 93 106 l 1
 305 106 l 1
EndSplineSet
Validated: 37
EndChar

StartChar: quotesingle
Encoding: 39 39 9
Width: 559
Flags: HW
LayerCount: 2
Fore
SplineSet
199 538.5 m 5
 199 723 l 1
 299 723 l 1
 299 538.5 l 5
 199 538.5 l 5
EndSplineSet
Validated: 1
EndChar

StartChar: parenleft
Encoding: 40 40 10
Width: 559
Flags: HW
LayerCount: 2
Fore
SplineSet
401 0 m 5
 402 106 l 5
 302 106 l 5
 302 208.5 l 5
 195 208.5 l 5
 197 539 l 5
 302 539 l 5
 301 626 l 5
 403 626 l 5
 404 726 l 5
 504 726 l 5
 501 626 l 5
 403 626 l 5
 399 539 l 5
 302 539 l 5
 302 208.5 l 5
 401 208.5 l 5
 402 106 l 5
 500 106 l 5
 500.5 0 l 5
 401 0 l 5
EndSplineSet
Validated: 5
EndChar

StartChar: parenright
Encoding: 41 41 11
Width: 559
Flags: HW
LayerCount: 2
Fore
SplineSet
195 0 m 5
 194 106 l 5
 301 106 l 5
 301 208.5 l 5
 408 208.5 l 5
 406 539 l 5
 301 539 l 5
 302 626 l 5
 193 626 l 5
 192 726 l 5
 87 726 l 1
 88 626 l 1
 193 626 l 5
 193 539 l 5
 301 539 l 5
 301 208.5 l 5
 195 208.5 l 5
 194 106 l 5
 89 106 l 1
 88.5 0 l 1
 195 0 l 5
181 -186 m 1025
EndSplineSet
Validated: 5
EndChar

StartChar: asterisk
Encoding: 42 42 12
Width: 559
Flags: HW
LayerCount: 2
Fore
SplineSet
196 208.5 m 1
 92 208.5 l 1
 92 314.5 l 1
 196 314.5 l 1
 199 426.5 l 1
 92 426.5 l 1
 92 542 l 1
 200 542 l 1
 201 626 l 5
 300 626 l 5
 302 542 l 1
 398 542 l 1
 396 426.5 l 1
 300 426.5 l 1
 302 314.5 l 1
 399 314.5 l 1
 399 208.5 l 1
 303 208.5 l 1
 302 314.5 l 1
 196 314.5 l 1
 196 208.5 l 1
EndSplineSet
Validated: 5
EndChar

StartChar: plus
Encoding: 43 43 13
Width: 559
Flags: HW
LayerCount: 2
Fore
SplineSet
200 3 m 5
 199 211 l 1
 2 211 l 1
 2 315 l 1
 199 315 l 1
 200 539 l 1
 302 539 l 1
 301 315 l 1
 503 315 l 1
 503 211 l 1
 301 211 l 1
 302 3 l 5
 200 3 l 5
EndSplineSet
Validated: 1
EndChar

StartChar: comma
Encoding: 44 44 14
Width: 559
Flags: HW
LayerCount: 2
Fore
SplineSet
195 -167 m 5
 197.5 -89 l 5
 302 -87 l 5
 300 106 l 5
 400 106 l 5
 401.5 0 l 5
 401.5 -88 l 5
 302 -87 l 5
 302 -166 l 5
 195 -167 l 5
EndSplineSet
Validated: 5
EndChar

StartChar: hyphen
Encoding: 45 45 15
Width: 559
Flags: HW
LayerCount: 2
Fore
SplineSet
93 210 m 5
 93 316 l 5
 398 316 l 1
 398 210 l 1
 93 210 l 5
EndSplineSet
Validated: 1
EndChar

StartChar: period
Encoding: 46 46 16
Width: 559
Flags: HW
LayerCount: 2
Fore
SplineSet
198 2 m 1
 195 106 l 1
 303 106 l 1
 303 2 l 5
 198 2 l 1
EndSplineSet
Validated: 1
EndChar

StartChar: slash
Encoding: 47 47 17
Width: 559
Flags: HW
LayerCount: 2
Fore
SplineSet
-0.5 0 m 5
 2 208.5 l 5
 92 208.5 l 5
 92 314.5 l 5
 200.298828125 313 l 5
 199.561523438 426 l 5
 304.213867188 428 l 5
 303 542 l 5
 403 542 l 5
 403 726 l 5
 498 726 l 5
 498 542 l 5
 403 542 l 5
 404 426.5 l 5
 304.213867188 428 l 5
 304.98046875 316 l 5
 200.298828125 313 l 5
 198 208.5 l 5
 92 208.5 l 5
 89.5 0 l 5
 -0.5 0 l 5
EndSplineSet
Validated: 5
EndChar

StartChar: zero
Encoding: 48 48 18
Width: 559
Flags: HMW
HStem: -15 71<267 294 267 315> 638 71<267 294>
VStem: 56 85<328 366 328 404> 419 85<328 366>
LayerCount: 2
Fore
SplineSet
197 106 m 1
 89.7210743802 107 l 1
 90.7871900826 623 l 1
 199 625 l 5
 197 726 l 1
 401 726 l 1
 399 626 l 1
 504.522727273 627 l 1
 502.025390625 107 l 1
 405 106 l 1
 401 0 l 1
 199 0 l 1
 197 106 l 1
405 106 m 1
 405.64453125 102 399 626 399 626 c 1
 399 626 198.052734375 625 199 625 c 5
 198 624.111328125 197 106 197 106 c 1
 194.796875 106 405 106 405 106 c 1
EndSplineSet
Validated: 37
EndChar

StartChar: one
Encoding: 49 49 19
Width: 559
Flags: HW
LayerCount: 2
Fore
SplineSet
196 0 m 5
 196 103 l 5
 305 103 l 1
 305 543 l 1
 197 542 l 1
 198 626 l 1
 198 626 302 625.671875 303 626 c 1
 303 626.328125 301 726 301 726 c 1
 400 723 l 1
 400 103 l 1
 499 103 l 1
 499 0 l 1
 196 0 l 5
EndSplineSet
Validated: 33
EndChar

StartChar: two
Encoding: 50 50 20
Width: 559
Flags: HW
LayerCount: 2
Fore
SplineSet
89.5 0 m 1
 93 208.5 l 1
 197 208.5 l 1
 197 208.5 198 314.5 199 314.5 c 1
 301 314.5 l 1
 301 314.5 303.953125 426.5 303 426.5 c 1
 399 426.5 l 1
 401 626 l 1
 401.55078125 626 91 626 91 626 c 1
 91 726 l 1
 403 726 l 5
 401 626 l 1
 501 628 l 1
 501 426.5 l 1
 399 426.5 l 1
 399 314.5 l 1
 301 314.5 l 1
 301 208.5 l 1
 197 208.5 l 1
 197 208.5 200.293945312 105 201 106 c 1
 499 106 l 1
 499 0 l 1
 89.5 0 l 1
EndSplineSet
Validated: 37
EndChar

StartChar: three
Encoding: 51 51 21
Width: 559
Flags: HW
LayerCount: 2
Fore
SplineSet
89.5 0 m 1
 89 107 l 1
 401 106 l 1
 402 314.5 l 1
 399.775390625 314.5 197 315 197 315 c 1
 197 427 l 1
 397 426.5 l 0
 398.675159969 426.677809492 399 626 399 626 c 1
 400.064453125 626 90 626 90 626 c 1
 92 726 l 1
 400 726 l 5
 399 626 l 1
 497.656616415 628 l 1
 499 427.5 l 1
 397 426.5 l 1
 402 314.5 l 1
 503 314.5 l 1
 503 313.348354469 501.360351562 106 501.360351562 106 c 1
 401 106 l 1
 403 0 l 1
 89.5 0 l 1
EndSplineSet
Validated: 37
EndChar

StartChar: four
Encoding: 52 52 22
Width: 559
Flags: HW
LayerCount: 2
Fore
SplineSet
305 0 m 1
 305 207 l 1
 0 207 l 1
 0 426.5 l 1
 90.5732421875 428 l 1
 91 542 l 1
 201 544 l 1
 199.538085938 628 l 1
 301 626 l 1
 304 726 l 1
 403 726 l 1
 403 314 l 1
 503 314 l 1
 503 207 l 1
 403 207 l 1
 403 0 l 1
 305 0 l 1
89 314 m 1
 305 314 l 1
 305 542 l 5
 201 544 l 1
 198.275390625 426 l 1
 90.5732421875 428 l 1
 89 314 l 1
EndSplineSet
Validated: 5
EndChar

StartChar: five
Encoding: 53 53 23
Width: 559
Flags: HW
LayerCount: 2
Fore
SplineSet
94.5 2 m 5
 94 105 l 1
 94 105 403 105.110351562 403 106 c 1
 401 313 l 1
 95 313 l 1
 95 724 l 1
 499 724 l 1
 499 626 l 1
 197 626 l 1
 199 424 l 1
 403 424.675496689 l 1
 401 313 l 1
 501.943359375 314 l 1
 503.634232122 104 l 1
 403 106 l 0
 401 -0.629206730769 l 1
 94.5 2 l 5
EndSplineSet
Validated: 5
EndChar

StartChar: six
Encoding: 54 54 24
Width: 559
Flags: HW
LayerCount: 2
Fore
SplineSet
198 107.5 m 1
 89.4153354633 106 l 1
 89 626 l 1
 198 626 l 1
 198 726 l 1
 503 726 l 1
 501 626 l 1
 198 626 l 5
 196 426 l 5
 397 426.327361564 l 1
 403 316 l 1
 502.604337632 314 l 1
 501.879835873 108 l 1
 403 105 l 1
 397 0 l 1
 197 0 l 1
 198 107.5 l 1
403 105 m 1
 403 316 l 1
 199 315.5 l 1
 198 107.5 l 1
 403 105 l 1
EndSplineSet
Validated: 5
EndChar

StartChar: seven
Encoding: 55 55 25
Width: 559
Flags: HW
LayerCount: 2
Fore
SplineSet
200 0 m 1
 197 314.5 l 1
 301 314.5 l 1
 303 543 l 1
 399 542 l 1
 400 625 l 5
 86 625 l 1
 86 723 l 1
 503 723 l 1
 503 542 l 1
 399 542 l 1
 401 314.5 l 1
 301 314.5 l 1
 300 0 l 1
 200 0 l 1
EndSplineSet
Validated: 5
EndChar

StartChar: eight
Encoding: 56 56 26
Width: 559
Flags: HW
LayerCount: 2
Fore
SplineSet
197 106 m 1
 95.0341796875 106 l 5
 96 314.5 l 5
 197 314.5 l 1
 198 429 l 1
 96 426.5 l 5
 95.345703125 626 l 5
 198 624 l 1
 199 726 l 1
 401 726 l 1
 403 625 l 1
 501.654296875 626 l 1
 503 426.5 l 1
 400 425 l 1
 403 314.5 l 1
 499 314.5 l 1
 500.689453125 106 l 1
 399 106 l 1
 402 0 l 1
 195 0 l 1
 197 106 l 1
400 425 m 1
 403 625 l 1
 198 624 l 1
 198 429 l 1
 400 425 l 1
399 106 m 1
 403 314.5 l 1
 197 314.5 l 1
 197 106 l 1
 399 106 l 1
EndSplineSet
Validated: 5
EndChar

StartChar: nine
Encoding: 57 57 27
Width: 559
Flags: HW
LayerCount: 2
Fore
SplineSet
89.5 0 m 1
 89 106 l 1
 401 106 l 1
 406 314 l 1
 195 314.685546875 l 1
 195 426.5 l 1
 89.9197080292 430 l 1
 90.6277372263 624 l 1
 198 626 l 1
 197 726 l 1
 401 726 l 1
 401 626 l 1
 500.523693803 628 l 1
 499 314.5 l 1
 500.641494436 108 l 1
 401 106 l 1
 401 0 l 1
 89.5 0 l 1
403 426.5 m 1
 401 626 l 1
 198 626 l 1
 195 426.5 l 1
 403 426.5 l 1
EndSplineSet
Validated: 5
EndChar

StartChar: semicolon
Encoding: 59 59 29
Width: 559
Flags: HW
LayerCount: 2
Fore
SplineSet
195 -167 m 1
 197.5 -89 l 1
 302 -87 l 1
 300 106 l 1
 400 106 l 1
 401.5 0 l 1
 401.5 -88 l 1
 302 -87 l 1
 302 -166 l 1
 195 -167 l 1
301 316 m 5
 301 423 l 1
 401 423 l 1
 401 316 l 5
 301 316 l 5
EndSplineSet
Validated: 5
EndChar

StartChar: less
Encoding: 60 60 30
Width: 559
Flags: HW
LayerCount: 2
Fore
SplineSet
501.5 0 m 5
 302 0 l 5
 301 106 l 5
 87 106 l 5
 87 208.5 l 5
 0 208.5 l 5
 0 314.5 l 5
 88 314.5 l 5
 91 426.5 l 5
 303 426.5 l 5
 303 542 l 5
 499 542 l 5
 499 426.5 l 5
 303 426.5 l 5
 303 314.5 l 5
 88 314.5 l 5
 87 208.5 l 5
 299 208.5 l 5
 301 106 l 5
 501 106 l 5
 501.5 0 l 5
EndSplineSet
Validated: 5
EndChar

StartChar: equal
Encoding: 61 61 31
Width: 559
Flags: HW
LayerCount: 2
Fore
SplineSet
87 317 m 1
 87 427 l 1
 503 427 l 1
 503 317 l 1
 87 317 l 1
87 108 m 5
 87 210 l 1
 503 210 l 1
 503 108 l 5
 87 108 l 5
EndSplineSet
Validated: 1
EndChar

StartChar: greater
Encoding: 62 62 32
Width: 559
Flags: HW
LayerCount: 2
Fore
SplineSet
-0.5 0 m 1
 199 0 l 1
 200 106 l 1
 401 106 l 1
 401 208.5 l 1
 501 208.5 l 1
 501 314.5 l 1
 400 314.5 l 1
 400 426.5 l 5
 198 426.5 l 1
 198 542 l 1
 2 542 l 1
 2 426.5 l 1
 198 426.5 l 1
 198 314.5 l 1
 400 314.5 l 1
 401 208.5 l 1
 199 208.5 l 1
 200 106 l 1
 0 106 l 1
 -0.5 0 l 1
EndSplineSet
Validated: 5
EndChar

StartChar: question
Encoding: 63 63 33
Width: 559
Flags: HW
LayerCount: 2
Fore
SplineSet
200 208.5 m 5
 198 426.5 l 5
 301 426.5 l 5
 302 626 l 5
 197 626 l 5
 196 542 l 5
 90 542 l 5
 86 626 l 5
 197 626 l 5
 202 726 l 5
 300 726 l 5
 302 626 l 5
 400 626 l 5
 404 426.5 l 5
 301 426.5 l 5
 298 208.5 l 5
 200 208.5 l 5
199 2 m 4
 199 105 l 5
 304 105 l 5
 304 2 l 5
 199 2 l 4
EndSplineSet
Validated: 5
EndChar

StartChar: at
Encoding: 64 64 34
Width: 559
Flags: HW
LayerCount: 2
Fore
SplineSet
90 -98 m 5
 89.5 -1 l 5
 0 -2 l 5
 0 626 l 1
 92 626 l 1
 92 726 l 1
 402 726 l 1
 400 626 l 1
 498 626 l 1
 500.896484375 210 l 1
 404 208 l 1
 402 105 l 1
 304 105 l 1
 304 208 l 1
 197.120117188 210 l 1
 196 426.5 l 1
 304 426.5 l 1
 306 542 l 1
 400 542 l 1
 400 626 l 1
 92 626 l 1
 89.5 -1 l 5
 501.5 1 l 5
 501.5 -94 l 5
 90 -98 l 5
404 208 m 1
 398 426.5 l 1
 304 426.5 l 1
 304 208 l 1
 404 208 l 1
EndSplineSet
Validated: 5
EndChar

StartChar: A
Encoding: 65 65 35
Width: 559
Flags: HW
LayerCount: 2
Fore
SplineSet
3.1376953125 0 m 1
 -1.8623046875 240 0.1376953125 480 2.1376953125 723 c 1
 499.137695312 721 l 5
 500.137695312 0 l 5
 418.137695312 0 l 1
 417.137695312 221 l 1
 86.1376953125 218 l 1
 89.1376953125 0 l 1
 3.1376953125 0 l 1
86.1376953125 319 m 1
 417.137695312 320 l 1
 416.137695312 623 l 1
 87.1376953125 621 l 1
 86.1376953125 319 l 1
EndSplineSet
EndChar

StartChar: B
Encoding: 66 66 36
Width: 559
Flags: HW
LayerCount: 2
Fore
SplineSet
0 0 m 1
 0 717 l 1
 0 717 398 718 400 718 c 1
 396 626 l 1
 496 626 l 1
 495 429 l 1
 397 427 l 1
 398 316 l 1
 498 314.5 l 1
 495 103 l 1
 398 106 l 1
 398 0 l 1
 0 0 l 1
86 426 m 1
 397 427 l 1
 396 626 l 1
 400 625 89 625 89 625 c 1
 86 426 l 1
398 316 m 1
 186 315 91 317 91 317 c 1
 89 106 l 1
 90.162109375 109.61328125 398 106 398 106 c 1
 398 106 403.30078125 316.241210938 398 316 c 1
EndSplineSet
Validated: 524325
EndChar

StartChar: C
Encoding: 67 67 37
Width: 559
Flags: HW
LayerCount: 2
Fore
SplineSet
96 95 m 1
 94 206 l 1
 4 206 l 1
 0 540 l 1
 92 540 l 5
 89 626 l 1
 199 624 l 1
 198 726 l 1
 502 726 l 1
 500 621 l 1
 199 624 l 1
 200 541 l 5
 92 540 l 5
 94 206 l 1
 202 206 l 1
 202 96 l 1
 496 94 l 1
 496 0 l 1
 201 0 l 1
 201 0 202 96 202 97 c 1
 202 96 96 95 96 95 c 1
EndSplineSet
Validated: 5
EndChar

StartChar: D
Encoding: 68 68 38
Width: 559
Flags: HW
LayerCount: 2
Fore
SplineSet
0 2 m 1
 0 723 l 1
 112 721 311 726 402 723 c 5
 402 679 396 678 400 618 c 5
 480 618 450 618 502 618 c 1
 502 533 503 171 503 98 c 1
 458 95 460 97 403 97 c 5
 404 60 402 61 401 1 c 5
 321 1 63 2 0 2 c 1
403 97 m 5
 403 97 403 524 399 622 c 5
 330 626 198 622 196 622 c 2
 88 625 l 1
 86 92 l 1
 196 92 325 97 403 97 c 5
EndSplineSet
Validated: 37
EndChar

StartChar: E
Encoding: 69 69 39
Width: 559
Flags: HW
LayerCount: 2
Fore
SplineSet
0 0 m 1
 0 724 l 1
 499 725 l 1
 499 626 l 1
 90 627 l 1
 92 427 l 1
 501 427 l 1
 501 322 l 1
 90 322 l 1
 89 96 l 1
 500 97 l 1
 502 0 l 1
 0 0 l 1
EndSplineSet
Validated: 1
EndChar

StartChar: F
Encoding: 70 70 40
Width: 559
Flags: HW
LayerCount: 2
Fore
SplineSet
0 0 m 1
 0 721 l 1
 500 721 l 1
 500 626 l 1
 86 620 l 1
 90 425 l 1
 499 424 l 1
 498 317 l 1
 89 318 l 1
 86 0 l 5
 0 0 l 1
EndSplineSet
Validated: 1
EndChar

StartChar: G
Encoding: 71 71 41
Width: 559
Flags: HW
LayerCount: 2
Fore
SplineSet
100 103 m 1
 36 101 48 101 0 103 c 1
 0 180 0 546 0 622 c 1
 62 620 56 622 102 622 c 1
 99 659 104 689 102 726 c 1
 136 724 294 726 400 726 c 1
 400 621 l 1
 501 622 l 1
 499 622 504 575 505 536 c 1
 465 534 446 534 397 535 c 1
 398 585 405 578 400 621 c 1
 293 620 139 620 102 622 c 1
 95 465 99 286 100 103 c 1
 176 102 405 102 410 105 c 5
 411 319 l 1
 310 319 l 1
 310 427 l 1
 502 427 l 1
 500 105 l 1
 410 105 l 5
 406 103 405 35 406 2 c 5
 302 0 155 0 100 0 c 1
 100 59 98 43 100 103 c 1
EndSplineSet
Validated: 37
EndChar

StartChar: H
Encoding: 72 72 42
Width: 559
Flags: HW
LayerCount: 2
Fore
SplineSet
5 0 m 1
 5 723 l 1
 87 723 l 1
 87 421 l 1
 419 421 l 5
 419 723 l 5
 497 723 l 5
 497 0 l 5
 419 0 l 5
 419 328 l 5
 87 328 l 1
 87 0 l 1
 5 0 l 1
EndSplineSet
Validated: 1
EndChar

StartChar: I
Encoding: 73 73 43
Width: 559
Flags: HW
LayerCount: 2
Fore
SplineSet
100 0 m 1
 100 91 l 1
 203 91 l 1
 203 626 l 1
 100 626 l 1
 100 723 l 1
 399 723 l 5
 399 626 l 5
 297 626 l 1
 297 91 l 1
 399 91 l 5
 399 0 l 5
 100 0 l 1
EndSplineSet
Validated: 1
EndChar

StartChar: J
Encoding: 74 74 44
Width: 559
Flags: HW
LayerCount: 2
Fore
SplineSet
402 0 m 5
 373 0 132 2 100 1 c 1
 101 19 97 58 100 104 c 1
 60 104 16 102 0 106 c 1
 0 206 l 1
 36 206 82 206 100 206 c 1
 101 158 98 154 101 103 c 1
 162 100 340 106 399 104 c 5
 398 142 400 167 400 230 c 6
 400 626 l 5
 101 626 l 1
 101 722 l 1
 499 722 l 1
 499 220 l 2
 499 177 502 144 500 104 c 1
 462 104 438 102 401 103 c 5
 403 84 403 46 402 0 c 5
EndSplineSet
Validated: 33
EndChar

StartChar: K
Encoding: 75 75 45
Width: 567
Flags: HMW
HStem: 675 20G<0 78 78 78>
VStem: 0 78<2 339 380 695>
LayerCount: 2
Fore
SplineSet
0 2 m 1
 0 724 l 1
 87 724 l 1
 87 444 l 1
 118 444 161 444 200 444 c 1
 200 462 200 510 203 544 c 1
 243 544 289 543 299 543 c 1
 300 557 300 592 298 626 c 1
 328 626 380 627 400 628 c 1
 402 658 405 697 399 725 c 1
 503 725 l 1
 505 682 501 666 502 626 c 1
 432 626 476 628 400 628 c 1
 402 572 401 590 402 544 c 1
 348 544 319 543 299 543 c 1
 298 493 299 480 299 446 c 1
 225 446 227 444 200 444 c 1
 202 425 206 360 203 322 c 1
 260 322 270 320 297 320 c 1
 299 299 299 248 299 216 c 5
 332 216 359 215 401 215 c 5
 401 197 400 126 398 105 c 1
 433 107 480 104 498 106 c 1
 500 68 503 30 502 0 c 1
 400 0 l 1
 400 36 401 67 399 107 c 1
 372 107 331 105 299 105 c 1
 298 134 301 201 300 215 c 5
 272 215 227 215 206 215 c 5
 205 242 200 282 204 322 c 1
 172 320 111 321 87 322 c 1
 87 2 l 1
 0 2 l 1
EndSplineSet
Validated: 37
EndChar

StartChar: L
Encoding: 76 76 46
Width: 559
Flags: HW
LayerCount: 2
Fore
SplineSet
0 0 m 1
 2 726 l 1
 92 726 l 1
 90 104 l 5
 504 104 l 5
 504 0 l 1
 0 0 l 1
EndSplineSet
Validated: 1
EndChar

StartChar: M
Encoding: 77 77 47
Width: 559
Flags: HW
HStem: 0 21G<0 0 443 443 443 521> 676 17G
VStem: 0 79<0 1> 16 81 443 78<0 0>
LayerCount: 2
Fore
SplineSet
0 0 m 1xe8
 0 182 -2 715 0 726 c 1
 94 726 l 1
 89 675 94 690 92 632 c 1
 146 632 164 630 204 632 c 1
 206 585 197 585 202 544 c 1
 238 544 258 544 302 544 c 5
 301 578 305 595 304 632 c 5
 344 632 378 632 402 632 c 1
 402 695 408 679 405 726 c 1
 502 726 l 1
 504 500 502 153 500 0 c 1
 405 0 l 1
 405 157 406 345 406 546 c 1
 302 544 l 5
 302 443 l 5
 202 443 l 1
 202 544 l 1
 90 548 l 1xd8
 90 376 91 190 87 1 c 1
 0 0 l 1xe8
EndSplineSet
Validated: 37
EndChar

StartChar: N
Encoding: 78 78 48
Width: 559
Flags: HW
LayerCount: 2
Fore
SplineSet
0 1 m 1
 0 725 l 1
 89 725 l 1
 90 667 88 590 92 544 c 1
 136 544 148 544 200 544 c 5
 200 427 l 1
 221 427 263 427 303 427 c 1
 303 381 300 337 300 314 c 1
 330 314 376 314 402 314 c 1
 403 724 l 1
 500 724 l 1
 500 0 l 1
 406 0 l 1
 401 45 403 206 402 207 c 0
 399 211 339 207 303 207 c 1
 299 238 299 239 300 314 c 1
 270 314 248 314 202 314 c 1
 204 380 202 395 200 427 c 1
 156 427 136 426 87 427 c 1
 87 1 l 1
 0 1 l 1
EndSplineSet
Validated: 37
EndChar

StartChar: O
Encoding: 79 79 49
Width: 559
Flags: HW
LayerCount: 2
Fore
SplineSet
401 0 m 1
 353 0 136 0 98 0 c 5
 98 44 97 58 98 106 c 5
 64 106 38 106 0 106 c 1
 0 190 0 572 0 626 c 1
 28 626 58 626 98 626 c 5
 97 680 97 694 97 726 c 5
 145 726 352 726 402 726 c 1
 395 690 403 674 404 626 c 1
 443 626 463 625 498 626 c 1
 498 542 505 163 500 106 c 1
 462 106 440 106 402 106 c 1
 401 54 401 32 401 0 c 1
402 106 m 1
 398 209 401 516 404 626 c 1
 352 626 194 626 98 626 c 5
 97 510 102 209 98 106 c 5
 194 106 246 106 402 106 c 1
EndSplineSet
Validated: 37
EndChar

StartChar: P
Encoding: 80 80 50
Width: 559
Flags: HW
LayerCount: 2
Fore
SplineSet
0 1 m 5
 0 726 l 5
 404 726 l 5
 400 626 l 5
 440 627 475 625 500 628 c 5
 500 537 500 410 499 317 c 5
 476 318 441 313 398 314 c 5
 400 209 l 5
 88 209 l 5
 90 0 l 5
 0 1 l 5
90 314 m 5
 398 314 l 5
 401 397 398 577 400 626 c 5
 340 623 258 628 120 628 c 4
 102 628 101 627 92 626 c 5
 90 314 l 5
EndSplineSet
Validated: 37
EndChar

StartChar: Q
Encoding: 81 81 51
Width: 559
Flags: HW
LayerCount: 2
Fore
SplineSet
502 0 m 1
 401 0 l 1
 402 106 l 1
 304 106 l 1
 302 0 l 1
 90 0 l 1
 92 106 l 1
 0 109 l 1
 0 625 l 1
 90 626 l 1
 92 726 l 1
 400 726 l 1
 402 626 l 1
 432 626 464 625 501 624 c 1
 501 521 501 347 501 208 c 1
 476 209 428 209 402 209 c 1
 403 203 402 138 402 106 c 1
 440 106 468 106 500 106 c 1
 502 66 502 19 502 0 c 1
194 314 m 1
 240 314 275 312 298 314 c 1
 300 270 302 237 302 209 c 1
 336 209 368 206 402 209 c 1
 401 340 401 539 402 626 c 1
 316 626 194 626 90 626 c 1
 90 553 88 209 92 106 c 1
 304 106 l 1
 302 209 l 1
 198 209 l 1
 194 314 l 1
EndSplineSet
Validated: 37
EndChar

StartChar: R
Encoding: 82 82 52
Width: 559
Flags: HW
LayerCount: 2
Fore
SplineSet
0 1 m 1
 0 726 l 1
 404 726 l 1
 400 626 l 1
 440 627 475 625 500 628 c 1
 500 537 500 410 499 317 c 1
 476 318 441 313 398 314 c 1
 401 106 l 5
 500 107 l 1
 502 0 l 1
 401 0 l 1
 401 106 l 1
 301 106 l 1
 303 209 l 1
 88 209 l 1
 90 0 l 1
 0 1 l 1
90 314 m 1
 398 314 l 1
 401 397 398 577 400 626 c 1
 340 623 258 628 120 628 c 0
 102 628 101 627 92 626 c 1
 90 314 l 1
EndSplineSet
Validated: 37
EndChar

StartChar: S
Encoding: 83 83 53
Width: 559
Flags: HMW
HStem: 2 69<192 192> 689 20G<232 314>
VStem: 14 78<505 530 505 551> 416 77<147 183>
LayerCount: 2
Fore
SplineSet
0 0 m 1
 0 106 l 1
 62 106 329 108 404 106 c 1
 401 179 404 274 402 314 c 1
 270 314 168 314 94 314 c 1
 89 350 90 380 88 427 c 1
 42 429 88 427 0 427 c 1
 0 627 l 1
 90 628 l 1
 90 726 l 1
 501 726 l 1
 500 626 l 1
 371 626 204 626 90 628 c 1
 90 588 88 450 88 427 c 1
 216 427 313 427 406 427 c 1
 401 388 404 350 402 314 c 1
 444 314 348 314 500 314 c 1
 500 278 500 185 500 108 c 5
 461 107 438 106 404 106 c 1
 400 0 l 1
 0 0 l 1
EndSplineSet
Validated: 37
EndChar

StartChar: T
Encoding: 84 84 54
Width: 559
Flags: HW
LayerCount: 2
Fore
SplineSet
197 0 m 1
 196 626 l 1
 0 626 l 1
 0 726 l 1
 502 726 l 1
 500 626 l 1
 302 626 l 1
 302 0 l 5
 197 0 l 1
EndSplineSet
Validated: 1
EndChar

StartChar: U
Encoding: 85 85 55
Width: 559
Flags: HW
LayerCount: 2
Fore
SplineSet
0 2 m 1
 0 70 -1 520 -1 727 c 1
 88 726 l 1
 90 554 91 203 90 106 c 1
 172 106 330 106 402 106 c 1
 401 250 401 576 402 726 c 1
 502 726 l 1
 502 517 502 124 502 0 c 1
 402 0 106 1 0 2 c 1
EndSplineSet
Validated: 33
EndChar

StartChar: V
Encoding: 86 86 56
Width: 559
Flags: HMW
HStem: 0 21G<208 208 208 318> 673 20G<4 89 89 89 450 533 533 533>
VStem: 4 85<693 693>
LayerCount: 2
Fore
SplineSet
200 0 m 1
 200 35 204 79 202 105 c 1
 170 106 141 106 97 106 c 1
 92 175 98 256 95 318 c 5
 56 319 40 315 0 318 c 5
 1 369 2 698 0 726 c 1
 89 726 l 1
 88 605 90 491 90 318 c 5
 124 318 150 318 200 318 c 5
 200 280 197 147 202 105 c 1
 236 106 277 102 303 107 c 1
 305 150 306 249 304 318 c 5
 342 318 352 316 400 318 c 5
 402 457 404 602 404 726 c 1
 504 726 l 1
 499 701 505 367 504 318 c 5
 465 318 442 319 400 318 c 5
 400 252 399 183 402 106 c 1
 356 106 339 107 303 107 c 1
 306 79 302 37 302 0 c 1
 200 0 l 1
EndSplineSet
Validated: 37
EndChar

StartChar: W
Encoding: 87 87 57
Width: 559
Flags: HW
LayerCount: 2
Fore
SplineSet
90 0 m 1
 94 106 l 5
 0 106 l 1
 0 724 l 1
 90 726 l 1
 94 106 l 1
 200 106 l 1
 202 542 l 1
 304 542 l 1
 304 106 l 1
 398 106 l 1
 404 725 l 1
 503 725 l 1
 498 106 l 1
 398 106 l 1
 401 0 l 1
 302 0 l 1
 304 106 l 1
 200 106 l 1
 197 0 l 1
 90 0 l 1
EndSplineSet
Validated: 5
EndChar

StartChar: X
Encoding: 88 88 58
Width: 559
Flags: HMW
HStem: 0 21G<2 2 2 87 461 461 461 549> 673 20G<13 101 101 101 451 540 540 540>
LayerCount: 2
Fore
SplineSet
2 0 m 1
 0 106 l 1
 86 106 l 5
 94 314 l 1
 198 314 l 1
 198 427 l 1
 94 427 l 1
 92 626 l 1
 0 626 l 1
 0 726 l 1
 88 726 l 1
 92 626 l 1
 194 626 l 1
 198 427 l 1
 302 427 l 1
 303 626 l 1
 404 626 l 1
 402 726 l 1
 499 726 l 1
 499 626 l 1
 404 626 l 1
 402 427 l 1
 302 427 l 1
 302 314 l 1
 400 314 l 1
 404 106 l 1
 500 106 l 1
 502 0 l 1
 401 0 l 1
 404 106 l 1
 304 106 l 1
 302 314 l 1
 198 314 l 1
 198 106 l 1
 86 106 l 1
 87 0 l 1
 2 0 l 1
EndSplineSet
Validated: 5
EndChar

StartChar: Y
Encoding: 89 89 59
Width: 559
Flags: HMW
HStem: 0 21G<242 242 242 320> 673 20G<0 90 90 90>
VStem: 242 78<0 257 257 257>
LayerCount: 2
Fore
SplineSet
197 0 m 1
 199 204 l 1
 199 323 l 5
 101 323 l 5
 99 538 l 1
 0 538 l 1
 0 726 l 1
 95 726 l 1
 99 538 l 0
 199 538 l 1
 199 323 l 5
 303 323 l 5
 303 538 l 1
 400 539 l 0
 403 726 l 1
 505 726 l 1
 501 538 l 1
 400 539 l 1
 401 324 l 5
 303 323 l 5
 303 323 299 205 299 204 c 2
 303 0 l 1
 197 0 l 1
EndSplineSet
Validated: 5
EndChar

StartChar: Z
Encoding: 90 90 60
Width: 559
Flags: HMW
HStem: 2 65<6 511> 630 67<0 0>
LayerCount: 2
Fore
SplineSet
0 0 m 1
 0 69 0 138 0 207 c 1
 95 207 l 1
 96 314 l 1
 196 314 l 1
 198 430 l 5
 303 430 l 5
 305 542 l 1
 403 542 l 1
 403 626 l 1
 0 627 l 1
 0 726 l 1
 503 726 l 1
 499 542 l 1
 403 542 l 1
 399 430 l 5
 303 430 l 5
 305 314 l 1
 196 314 l 1
 194 207 l 1
 95 207 l 1
 94 106 l 1
 501 106 l 1
 502 0 l 1
 0 0 l 1
EndSplineSet
Validated: 5
EndChar

StartChar: bracketleft
Encoding: 91 91 61
Width: 559
Flags: HW
LayerCount: 2
Fore
SplineSet
94 -197 m 1
 94 798 l 1
 404 798 l 1
 404 724 l 1
 194 724 l 1
 194 -118 l 5
 404 -118 l 5
 404 -197 l 1
 94 -197 l 1
EndSplineSet
Validated: 1
EndChar

StartChar: backslash
Encoding: 92 92 62
Width: 559
Flags: HW
LayerCount: 2
Fore
SplineSet
499.5 0 m 1
 497 208.5 l 1
 403 208.5 l 1
 403 314.5 l 1
 298.701171875 313 l 1
 299.438476562 426 l 1
 194.786132812 428 l 1
 196 542 l 1
 93 542 l 1
 93 726 l 1
 1 726 l 1
 1 542 l 1
 93 542 l 1
 92 426.5 l 1
 194.786132812 428 l 1
 194.01953125 316 l 1
 298.701171875 313 l 1
 301 208.5 l 1
 403 208.5 l 1
 405.5 0 l 1
 499.5 0 l 1
EndSplineSet
Validated: 5
EndChar

StartChar: bracketright
Encoding: 93 93 63
Width: 559
Flags: HW
LayerCount: 2
Fore
SplineSet
93 -198 m 1
 93 -122 l 1
 308 -122 l 1
 308 721 l 1
 93 721 l 1
 93 798 l 1
 398 798 l 1
 398 -198 l 1
 93 -198 l 1
EndSplineSet
Validated: 1
EndChar

StartChar: asciicircum
Encoding: 94 94 64
Width: 559
Flags: HW
LayerCount: 2
Fore
SplineSet
92 428 m 5
 0 426.5 l 5
 0 538.5 l 1
 93 539 l 1
 93 626 l 1
 201 626 l 1
 205 726 l 1
 302 726 l 1
 303 626 l 1
 405 626 l 1
 401 539 l 1
 498 539.5 l 1
 501 428 l 5
 404 427 l 5
 402 538.5 l 1
 306 539 l 1
 303 626 l 1
 201 626 l 1
 195 539 l 1
 93 538.5 l 1
 92 428 l 5
EndSplineSet
Validated: 5
EndChar

StartChar: underscore
Encoding: 95 95 65
Width: 559
Flags: HW
LayerCount: 2
Fore
SplineSet
1 -185 m 1
 1 -101 l 5
 551 -101 l 5
 551 -185 l 1
 1 -185 l 1
EndSplineSet
Validated: 1
EndChar

StartChar: grave
Encoding: 96 96 66
Width: 559
Flags: HW
LayerCount: 2
Fore
SplineSet
303 626 m 1
 300 726 l 5
 201 726 l 1
 197.5 797 l 1
 302 797 l 1
 300 726 l 1
 405 726 l 1
 405 626 l 1
 303 626 l 1
EndSplineSet
Validated: 5
EndChar

StartChar: a
Encoding: 97 97 67
Width: 559
Flags: HW
LayerCount: 2
Fore
SplineSet
100 314 m 5
 404 312 l 1
 404 328 l 2
 401 427 l 1
 401 427 150 430 100 427 c 5
 100 542 l 5
 400 542 l 1
 401 427 l 1
 501 427 l 1
 501 284 503 143 504 0 c 1
 98 0 l 5
 100 314 l 5
199 106 m 1
 402 106 l 1
 400 209 l 1
 197 209 l 1
 199 106 l 1
EndSplineSet
Validated: 37
EndChar

StartChar: b
Encoding: 98 98 68
Width: 559
Flags: HW
LayerCount: 2
Fore
SplineSet
101 0 m 5
 101 726 l 5
 198 726 l 5
 198 542 l 5
 398 542 l 5
 400 427 l 5
 502 427 l 5
 500 106 l 5
 400 106 l 5
 401 0 l 5
 101 0 l 5
400 106 m 5
 400 427 l 5
 196 427 l 5
 196 106 l 5
 400 106 l 5
EndSplineSet
Validated: 5
EndChar

StartChar: c
Encoding: 99 99 69
Width: 559
Flags: HW
LayerCount: 2
Fore
SplineSet
200 106 m 5
 91 106 l 1
 93 428 l 1
 194 427 l 1
 196 542 l 1
 499 542 l 1
 498 427 l 1
 194 427 l 1
 200 106 l 1
 504 106 l 1
 502 0 l 1
 196 0 l 1
 200 106 l 5
EndSplineSet
Validated: 5
EndChar

StartChar: d
Encoding: 100 100 70
Width: 559
Flags: HW
LayerCount: 2
Fore
SplineSet
499 0 m 5
 499 726 l 5
 402 726 l 5
 402 542 l 5
 202 542 l 5
 200 427 l 5
 98 427 l 5
 100 106 l 5
 200 106 l 5
 198 0 l 5
 499 0 l 5
200 106 m 5
 200 427 l 5
 404 427 l 5
 404 106 l 5
 200 106 l 5
EndSplineSet
Validated: 5
EndChar

StartChar: e
Encoding: 101 101 71
Width: 559
Flags: HW
LayerCount: 2
Fore
SplineSet
200 106 m 5
 95 106 l 1
 96 426 l 1
 197 427 l 1
 196 542 l 1
 400 542 l 1
 402 427 l 1
 502 428 l 1
 502 209 l 1
 198 209 l 1
 200 106 l 1
 500 106 l 1
 502 0 l 1
 196 -2 l 1
 200 106 l 5
196 314 m 1
 404 314 l 1
 402 427 l 1
 197 427 l 1
 196 314 l 1
EndSplineSet
Validated: 5
EndChar

StartChar: f
Encoding: 102 102 72
Width: 559
Flags: HW
LayerCount: 2
Fore
SplineSet
208 0 m 1
 206 436 l 5
 98 436 l 5
 98 542 l 1
 206 542 l 1
 206 726 l 1
 500 726 l 1
 502 626 l 1
 300 626 l 1
 301 542 l 1
 500 542 l 1
 500 436 l 5
 302 436 l 5
 302 0 l 1
 208 0 l 1
EndSplineSet
Validated: 1
EndChar

StartChar: g
Encoding: 103 103 73
Width: 559
Flags: HW
LayerCount: 2
Fore
SplineSet
98 -201 m 1
 98 -112 l 1
 401 -112 l 1
 401 0 l 1
 200 0 l 1
 198 106 l 1
 98 104 l 1
 99 428 l 1
 200 427 l 1
 198 542 l 1
 402 542 l 1
 402 427 l 1
 504 428 l 1
 502 -110 l 1
 401 -112 l 5
 402 -199 l 1
 98 -201 l 1
401 106 m 1
 402 427 l 1
 200 427 l 1
 198 106 l 1
 401 106 l 1
EndSplineSet
Validated: 5
EndChar

StartChar: h
Encoding: 104 104 74
Width: 559
Flags: HW
LayerCount: 2
Fore
SplineSet
97 0 m 1
 98 726 l 1
 196 726 l 1
 198 542 l 1
 404 542 l 1
 402 427 l 1
 502 426 l 1
 502 0 l 1
 403 0 l 1
 402 427 l 1
 196 427 l 1
 197 0 l 1
 97 0 l 1
EndSplineSet
Validated: 5
EndChar

StartChar: i
Encoding: 105 105 75
Width: 559
Flags: HW
LayerCount: 2
Fore
SplineSet
210 0 m 1
 208 435 l 1
 100 435 l 1
 100 542 l 1
 296 542 l 1
 297 108 l 1
 501 106 l 1
 502 0 l 1
 210 0 l 1
204 626 m 5
 204 726 l 5
 300 726 l 5
 300 627 l 5
 204 626 l 5
EndSplineSet
Validated: 1
EndChar

StartChar: j
Encoding: 106 106 76
Width: 559
Flags: HW
LayerCount: 2
Fore
SplineSet
302 626 m 1
 302 726 l 1
 398 726 l 1
 398 627 l 1
 302 626 l 1
98 -185 m 1
 98 -80 l 1
 302 -81 l 5
 302 434 l 5
 202 434 l 1
 202 537 l 1
 396 537 l 1
 401 -81 l 1
 302 -81 l 5
 302 -186 l 5
 98 -185 l 1
EndSplineSet
Validated: 5
EndChar

StartChar: k
Encoding: 107 107 77
Width: 559
Flags: HW
LayerCount: 2
Fore
SplineSet
100 0 m 1
 99 726 l 1
 196 726 l 1
 198 314 l 1
 303 314 l 1
 303 431 l 5
 400 431 l 5
 398 540 l 1
 505 540 l 1
 502 431 l 5
 400 431 l 5
 399 314 l 1
 303 314 l 1
 302 209 l 1
 398 209 l 1
 402 106 l 1
 500 106 l 1
 504 0 l 1
 403 0 l 1
 402 106 l 1
 304 106 l 1
 302 209 l 1
 196 209 l 1
 197 0 l 1
 100 0 l 1
EndSplineSet
Validated: 5
EndChar

StartChar: l
Encoding: 108 108 78
Width: 559
Flags: HW
LayerCount: 2
Fore
SplineSet
204 0 m 1
 204 0 206 628 203 631 c 5
 95 631 l 5
 95 719 l 1
 295 719 l 1
 294 106 l 1
 502 106 l 1
 502 0 l 1
 204 0 l 1
EndSplineSet
Validated: 33
EndChar

StartChar: m
Encoding: 109 109 79
Width: 559
Flags: HW
LayerCount: 2
Fore
SplineSet
2 0 m 1
 0 542 l 1
 404 542 l 1
 404 427 l 5
 500 427 l 1
 502 0 l 1
 401 0 l 1
 404 427 l 1
 301 427 l 1
 299 209 l 1
 200 209 l 1
 200 427 l 1
 90 427 l 1
 90 0 l 1
 2 0 l 1
EndSplineSet
Validated: 5
EndChar

StartChar: n
Encoding: 110 110 80
Width: 559
Flags: HW
LayerCount: 2
Fore
SplineSet
101 0 m 5
 98 542 l 5
 398 542 l 1
 400 431 l 1
 498 431 l 1
 502 0 l 1
 403 0 l 1
 400 431 l 1
 194 431 l 1
 197 0 l 1
 101 0 l 5
EndSplineSet
Validated: 5
EndChar

StartChar: o
Encoding: 111 111 81
Width: 559
Flags: HW
LayerCount: 2
Fore
SplineSet
201 0 m 1
 200 106 l 1
 100 106 l 1
 99 431 l 1
 200 431 l 1
 200 542 l 1
 394 542 l 5
 396 431 l 5
 500 431 l 1
 501 106 l 1
 397 106 l 5
 397 0 l 5
 201 0 l 1
200 106 m 1
 397 106 l 5
 396 431 l 5
 200 431 l 1
 200 106 l 1
EndSplineSet
Validated: 5
EndChar

StartChar: p
Encoding: 112 112 82
Width: 559
Flags: HW
LayerCount: 2
Fore
SplineSet
98 -198 m 1
 100 542 l 1
 402 542 l 1
 400 435 l 5
 500 435 l 5
 502 106 l 1
 400 106 l 1
 401 0 l 1
 197 0 l 1
 197 -197 l 1
 98 -198 l 1
400 106 m 1
 400 435 l 5
 196 435 l 5
 198 106 l 1
 400 106 l 1
EndSplineSet
Validated: 5
EndChar

StartChar: q
Encoding: 113 113 83
Width: 559
Flags: HW
LayerCount: 2
Fore
SplineSet
401 -196 m 1
 401 0 l 1
 200 0 l 1
 202 106 l 1
 98 105 l 1
 100 431 l 1
 200 431 l 1
 200 542 l 1
 495 542 l 5
 496 -196 l 1
 401 -196 l 1
400 105 m 1
 400 431 l 1
 200 431 l 1
 202 106 l 1
 400 105 l 1
EndSplineSet
Validated: 5
EndChar

StartChar: r
Encoding: 114 114 84
Width: 559
Flags: HW
LayerCount: 2
Fore
SplineSet
98 -1 m 5
 97 427 l 5
 201 427 l 1
 199 542 l 1
 403 542 l 1
 401 427 l 1
 201 427 l 1
 204 0 l 1
 98 -1 l 5
EndSplineSet
Validated: 5
EndChar

StartChar: s
Encoding: 115 115 85
Width: 559
Flags: HW
LayerCount: 2
Fore
SplineSet
96.5 0 m 1
 501.5 0 l 1
 500 208.5 l 1
 401 208.5 l 1
 404 314.5 l 1
 198 314.5 l 1
 200 426.5 l 1
 500 426.5 l 1
 500 516 l 1
 202 516 l 1
 200 426.5 l 5
 90 426.5 l 1
 92 314.5 l 1
 198 314.5 l 1
 198 208.5 l 1
 401 208.5 l 1
 401 106 l 1
 97 106 l 9
 96.5 0 l 1
EndSplineSet
Validated: 5
EndChar

StartChar: t
Encoding: 116 116 86
Width: 559
Flags: HW
LayerCount: 2
Fore
SplineSet
204.5 7 m 1
 203 430 l 1
 97 430 l 1
 97 518 l 1
 203 518 l 1
 203 715 l 5
 295 716 l 5
 295 518 l 1
 501 518 l 1
 501 430 l 1
 295 430 l 1
 294 97 l 1
 498 100 l 1
 500 7 l 1
 204.5 7 l 1
EndSplineSet
Validated: 1
EndChar

StartChar: u
Encoding: 117 117 87
Width: 559
Flags: HW
LayerCount: 2
Fore
SplineSet
98.5 0 m 1
 97 518 l 1
 197.5 518 l 1
 196 103 l 1
 408 106 l 5
 407 518 l 5
 499 518 l 1
 501.5 0 l 1
 98.5 0 l 1
EndSplineSet
Validated: 1
EndChar

StartChar: v
Encoding: 118 118 88
Width: 559
Flags: HMW
HStem: 0 21G<253 253 253 328>
VStem: 25 87<493 493>
LayerCount: 2
Fore
SplineSet
198 0 m 1
 197.73828125 0.6552734375 195 106 195 106 c 1
 195 106 91 106 91 106 c 1
 89 208.5 l 1
 0 208.5 l 1
 -2 509 l 1
 89 509 l 1
 91 314.5 l 1
 89 208.5 l 1
 198 208.5 l 1
 195 106 l 1
 302 106 l 1
 302.544788471 107.089576942 305 208.5 305 208.5 c 1
 403 208.5 l 5
 405 314.5 l 1
 406 509 l 1
 501.5 509 l 1
 497 208.5 l 1
 403 208.5 l 1
 397 106 l 1
 302 106 l 1
 301 0 l 1
 198 0 l 1
EndSplineSet
Validated: 5
EndChar

StartChar: w
Encoding: 119 119 89
Width: 559
Flags: HMW
HStem: 0 21G<108 108 108 167 375 375 375 435>
VStem: 479 73<501 501>
LayerCount: 2
Fore
SplineSet
89.5 0 m 1
 92 208.5 l 1
 4 208.5 l 1
 2 513 l 1
 85 513 l 1
 92 208.5 l 1
 198 208.5 l 1
 201 419.5 l 1
 305 421 l 1
 304 208.5 l 1
 402 208.5 l 1
 403 513 l 1
 501.5 514 l 1
 500 208.5 l 1
 402 208.5 l 5
 401.5 0 l 1
 302 0 l 1
 302 106 l 1
 200 106 l 1
 197.5 0 l 1
 89.5 0 l 1
EndSplineSet
Validated: 5
EndChar

StartChar: x
Encoding: 120 120 90
Width: 559
Flags: HMW
HStem: 0 21G<18 18 18 101 435 435 435 526>
LayerCount: 2
Fore
SplineSet
3 0 m 1
 0 106 l 1
 90 106 l 1
 90 208.5 l 1
 201 208.5 l 1
 196 314.5 l 1
 93 314.5 l 1
 92 426.5 l 1
 0 426.5 l 1
 3 513 l 1
 92 513 l 1
 92 426.5 l 1
 196 427.08203125 l 1
 196 314.5 l 1
 303 314.5 l 1
 304 426.5 l 1
 402 426.5 l 1
 404 516 l 1
 506 516 l 1
 502 426.5 l 1
 402 426.5 l 1
 402 314.5 l 1
 303 314.5 l 5
 304 208.5 l 1
 406 208.5 l 1
 406 106 l 1
 501 106 l 1
 505 0 l 1
 406 0 l 1
 406 106 l 1
 306 106 l 1
 304 208.5 l 1
 201 208.5 l 1
 199 106 l 1
 90 106 l 1
 91 0 l 1
 3 0 l 1
EndSplineSet
Validated: 5
EndChar

StartChar: y
Encoding: 121 121 91
Width: 559
Flags: HMW
HStem: -188 66<114 139 114 145>
VStem: 58 88<485 485> 430 82<485 485>
LayerCount: 2
Fore
SplineSet
95 -198 m 5
 98 -108 l 5
 197.5 -109 l 1
 197.5 0 l 1
 198 106 l 1
 96 106 l 1
 95 509 l 1
 195 509 l 1
 196 208.5 l 1
 400 208.5 l 1
 401.5 505 l 1
 497.5 505 l 1
 500 106 l 1
 400 106 l 1
 401.5 0 l 1
 302 0 l 1
 302 -201 l 1
 95 -198 l 5
EndSplineSet
Validated: 1
EndChar

StartChar: z
Encoding: 122 122 92
Width: 559
Flags: HW
LayerCount: 2
Fore
SplineSet
-4 -1 m 1
 -2 105 l 1
 96 106 l 5
 96 208.5 l 5
 198 208.5 l 1
 200 314.5 l 1
 302 314.5 l 1
 304 426.5 l 1
 0 426 l 1
 0 517 l 1
 499 518 l 1
 499 426.5 l 1
 405 426.5 l 1
 402 314.5 l 1
 302 314.5 l 1
 302 208.5 l 1
 198 208.5 l 1
 198 106 l 1
 500 106 l 1
 501.5 1 l 1
 -4 -1 l 1
EndSplineSet
Validated: 5
EndChar

StartChar: braceleft
Encoding: 123 123 93
Width: 559
Flags: HW
LayerCount: 2
Fore
SplineSet
306 -183 m 5
 305 -109 l 5
 200.5 -108 l 5
 202 211 l 5
 93 212 l 5
 93 315 l 5
 195 314.5 l 5
 201 726 l 5
 305 727 l 5
 302 801 l 5
 501.5 801 l 5
 498 726 l 5
 305 727 l 5
 300 314.5 l 5
 195 314.5 l 5
 202 211 l 5
 303 208.5 l 5
 305 -109 l 5
 498 -112 l 5
 498 -185 l 5
 306 -183 l 5
EndSplineSet
Validated: 5
EndChar

StartChar: bar
Encoding: 124 124 94
Width: 559
Flags: HW
LayerCount: 2
Fore
SplineSet
202 -198 m 5
 202 799 l 1
 304 799 l 1
 304 -198 l 5
 202 -198 l 5
EndSplineSet
Validated: 1
EndChar

StartChar: braceright
Encoding: 125 125 95
Width: 559
Flags: HW
LayerCount: 2
Fore
SplineSet
298 -186 m 1
 299 -112 l 1
 403.5 -111 l 1
 401 208 l 1
 503 209 l 5
 503 312 l 5
 404 311.5 l 1
 403 723 l 1
 299 724 l 1
 302 798 l 1
 91.5 798 l 1
 95 723 l 1
 299 724 l 1
 304 311.5 l 1
 404 311.5 l 1
 401 208 l 1
 301 205.5 l 1
 299 -112 l 1
 95 -115 l 1
 95 -188 l 1
 298 -186 l 1
EndSplineSet
Validated: 5
EndChar

StartChar: asciitilde
Encoding: 126 126 96
Width: 559
Flags: HW
LayerCount: 2
Fore
SplineSet
502 208.5 m 5
 302 208.5 l 1
 302 314.5 l 1
 88 314.5 l 1
 91 211 l 1
 0 208.5 l 1
 0 314.5 l 1
 88 314.5 l 1
 94 426.5 l 1
 298 426.5 l 1
 302 314.5 l 1
 500 314.5 l 1
 502 426.5 l 1
 559 426.5 l 1
 559 314.5 l 1
 500 314.5 l 1
 502 208.5 l 5
EndSplineSet
Validated: 5
EndChar

StartChar: quotesinglbase
Encoding: 257 8218 97
Width: 559
Flags: HW
LayerCount: 2
Fore
SplineSet
190 -158 m 1
 174 -90 l 1
 201 -85 226 -77 248 -68 c 0
 271 -58 287 -39 298 -10 c 1
 275 -8 259 1 250 16 c 0
 241 31 236 45 236 58 c 0
 236 87 244 110 262 124 c 0
 278 140 296 147 314 147 c 0
 341 147 360 137 374 118 c 0
 386 98 393 75 393 49 c 0
 393 22 385 -6 370 -36 c 0
 355 -67 332 -93 302 -116 c 0
 272 -139 235 -153 190 -158 c 1
EndSplineSet
Validated: 1
EndChar

StartChar: florin
Encoding: 258 402 98
Width: 559
Flags: HW
LayerCount: 2
Fore
SplineSet
88 -190 m 0
 68 -190 52 -189 42 -187 c 0
 30 -185 20 -183 11 -181 c 1
 27 -113 l 1
 36 -116 44 -118 52 -120 c 0
 61 -121 68 -122 75 -122 c 0
 106 -122 133 -114 154 -97 c 0
 176 -80 187 -49 187 -3 c 2
 187 451 l 1
 80 451 l 1
 80 518 l 1
 187 518 l 1
 187 570 l 2
 187 623 196 664 214 694 c 0
 233 723 257 744 287 757 c 0
 317 770 349 776 383 776 c 0
 410 776 436 773 462 767 c 0
 489 761 514 754 537 747 c 1
 522 677 l 1
 506 686 486 694 461 700 c 0
 436 705 411 708 385 708 c 0
 364 708 344 704 326 696 c 0
 307 687 292 673 282 653 c 0
 270 633 265 605 265 570 c 2
 265 518 l 1
 473 518 l 1
 473 451 l 1
 265 451 l 1
 265 -7 l 2
 265 -51 256 -86 240 -114 c 0
 222 -140 201 -160 174 -172 c 0
 147 -184 119 -190 88 -190 c 0
EndSplineSet
Validated: 1
EndChar

StartChar: quotedblbase
Encoding: 259 8222 99
Width: 559
Flags: HW
LayerCount: 2
Fore
SplineSet
331 -144 m 1
 316 -82 l 1
 340 -77 362 -70 384 -62 c 0
 404 -54 419 -37 428 -11 c 1
 407 -9 392 -1 382 14 c 0
 372 28 367 43 367 60 c 0
 367 77 372 93 382 109 c 0
 392 125 410 133 437 133 c 0
 456 133 474 126 490 113 c 0
 507 100 515 76 515 41 c 0
 515 13 510 -14 500 -40 c 0
 489 -65 471 -87 444 -106 c 0
 418 -124 380 -137 331 -144 c 1
72 -144 m 1
 57 -82 l 1
 81 -77 103 -70 124 -62 c 0
 144 -54 159 -37 169 -11 c 1
 148 -9 133 -1 122 14 c 0
 112 28 107 43 107 60 c 0
 107 77 112 93 123 109 c 0
 134 125 152 133 177 133 c 0
 197 133 215 126 232 113 c 0
 249 100 257 76 257 41 c 0
 257 13 252 -14 242 -40 c 0
 231 -65 213 -87 186 -106 c 0
 159 -124 121 -137 72 -144 c 1
EndSplineSet
Validated: 1
EndChar

StartChar: ellipsis
Encoding: 260 8230 100
Width: 559
Flags: HW
LayerCount: 2
Fore
SplineSet
93 -13 m 0
 76 -13 63 -8 52 4 c 0
 41 14 36 28 36 43 c 0
 36 59 41 73 52 84 c 0
 63 95 76 101 93 101 c 0
 110 101 124 95 135 84 c 0
 146 73 151 59 151 43 c 0
 151 28 146 14 135 4 c 0
 124 -8 110 -13 93 -13 c 0
281 -13 m 0
 264 -13 251 -8 240 4 c 0
 230 14 225 28 225 43 c 0
 225 59 230 73 240 84 c 0
 251 95 264 101 281 101 c 0
 298 101 312 95 322 84 c 0
 332 73 337 59 337 43 c 0
 337 28 332 14 322 4 c 0
 312 -8 298 -13 281 -13 c 0
467 -13 m 0
 450 -13 437 -8 426 4 c 0
 416 14 411 28 411 43 c 0
 411 59 416 73 426 84 c 0
 437 95 450 101 467 101 c 0
 484 101 498 95 508 84 c 0
 518 73 523 59 523 43 c 0
 523 28 518 14 508 4 c 0
 498 -8 484 -13 467 -13 c 0
EndSplineSet
Validated: 1
EndChar

StartChar: dagger
Encoding: 261 8224 101
Width: 559
Flags: HW
LayerCount: 2
Fore
SplineSet
264 -144 m 1
 257 -100 253 -55 250 -10 c 0
 247 35 246 86 246 143 c 2
 246 406 l 1
 85 406 l 1
 85 472 l 1
 246 472 l 1
 246 693 l 1
 313 693 l 1
 313 472 l 1
 475 472 l 1
 475 406 l 1
 313 406 l 1
 313 143 l 2
 313 86 312 35 310 -10 c 0
 307 -55 303 -100 298 -144 c 1
 264 -144 l 1
EndSplineSet
Validated: 1
EndChar

StartChar: daggerdbl
Encoding: 262 8225 102
Width: 559
Flags: HW
LayerCount: 2
Fore
SplineSet
265 -144 m 1
 258 -99 254 -55 251 -10 c 0
 248 34 247 84 248 141 c 1
 86 141 l 1
 86 207 l 1
 248 207 l 1
 248 406 l 1
 86 406 l 1
 86 472 l 1
 248 472 l 1
 248 693 l 1
 315 693 l 1
 315 472 l 1
 476 472 l 1
 476 406 l 1
 315 406 l 1
 315 207 l 1
 476 207 l 1
 476 141 l 1
 315 141 l 1
 315 84 314 34 312 -10 c 0
 309 -55 305 -99 300 -144 c 1
 265 -144 l 1
EndSplineSet
Validated: 33
EndChar

StartChar: circumflex
Encoding: 263 710 103
Width: 559
Flags: HW
LayerCount: 2
Fore
SplineSet
90 626 m 1
 92 726 l 1
 196 726 l 1
 197.5 799 l 1
 302 799 l 1
 304 726 l 1
 401 726 l 1
 402 626 l 1
 304 626 l 1
 304 726 l 5
 196 726 l 1
 196 626 l 1
 90 626 l 1
EndSplineSet
Validated: 524293
EndChar

StartChar: perthousand
Encoding: 264 8240 104
Width: 559
Flags: HW
LayerCount: 2
Fore
SplineSet
104 400 m 0
 48 400 20 451 20 553 c 0
 20 656 47 708 102 708 c 0
 159 708 188 656 188 553 c 0
 188 451 160 400 104 400 c 0
104 447 m 0
 113 447 121 454 126 470 c 0
 131 484 134 512 134 553 c 0
 134 596 131 624 126 639 c 0
 121 654 113 661 104 661 c 0
 95 661 88 654 82 639 c 0
 78 624 75 596 75 553 c 0
 75 512 78 484 82 470 c 0
 88 454 95 447 104 447 c 0
45 221 m 1
 10 271 l 1
 516 626 l 1
 550 575 l 1
 45 221 l 1
243 -15 m 0
 188 -15 160 36 160 139 c 0
 160 242 187 293 241 293 c 0
 298 293 326 242 326 139 c 0
 326 36 298 -15 243 -15 c 0
459 -15 m 0
 402 -15 373 36 373 139 c 0
 373 242 400 293 455 293 c 0
 511 293 539 242 539 139 c 0
 539 36 512 -15 459 -15 c 0
242 32 m 0
 252 32 260 40 265 54 c 0
 270 70 273 98 273 139 c 0
 273 180 270 208 265 224 c 0
 260 238 252 246 242 246 c 0
 233 246 226 238 220 224 c 0
 214 208 211 180 211 139 c 0
 211 98 214 70 220 54 c 0
 226 40 233 32 242 32 c 0
456 32 m 0
 465 32 473 40 478 54 c 0
 483 70 486 98 486 139 c 0
 486 180 483 208 478 224 c 0
 473 238 465 246 456 246 c 0
 447 246 440 238 434 224 c 0
 429 208 426 180 426 139 c 0
 426 98 429 70 434 54 c 0
 440 40 447 32 456 32 c 0
EndSplineSet
Validated: 1
EndChar

StartChar: guilsinglleft
Encoding: 266 8249 106
Width: 559
Flags: HW
LayerCount: 2
Fore
SplineSet
319 69 m 1
 165 284 l 1
 319 499 l 1
 369 469 l 1
 255 284 l 1
 369 100 l 1
 319 69 l 1
EndSplineSet
Validated: 1
EndChar

StartChar: OE
Encoding: 267 338 107
Width: 559
Flags: HW
LayerCount: 2
Fore
SplineSet
245 -7 m 0
 181 -7 130 20 91 76 c 0
 52 130 33 217 33 334 c 0
 33 451 52 542 92 605 c 0
 130 668 182 700 247 700 c 0
 254 700 263 699 275 698 c 0
 287 697 298 695 308 693 c 2
 522 693 l 1
 522 626 l 1
 373 626 l 1
 373 395 l 1
 497 395 l 1
 497 328 l 1
 373 328 l 1
 373 67 l 1
 537 67 l 1
 537 0 l 1
 309 0 l 2
 298 -2 288 -4 277 -5 c 0
 266 -6 256 -7 245 -7 c 0
245 61 m 0
 262 61 275 62 283 65 c 0
 291 68 296 69 298 69 c 1
 298 624 l 1
 287 627 278 630 269 630 c 0
 260 632 252 632 245 632 c 0
 218 632 195 620 175 596 c 0
 155 571 139 537 128 492 c 0
 117 447 111 395 111 334 c 0
 111 244 123 176 148 130 c 0
 172 84 204 61 245 61 c 0
EndSplineSet
Validated: 1
EndChar

StartChar: quoteleft
Encoding: 268 8216 108
Width: 559
Flags: HW
LayerCount: 2
Fore
SplineSet
306 726 m 5
 302 799 l 1
 401.5 801 l 1
 400 726 l 1
 306 726 l 1
 302 542 l 1
 199 542 l 1
 198 726 l 1
 306 726 l 5
EndSplineSet
Validated: 5
EndChar

StartChar: quoteright
Encoding: 269 8217 109
Width: 559
Flags: HW
LayerCount: 2
Fore
SplineSet
300 542 m 1
 198 542 l 1
 198 626 l 5
 303 626 l 1
 302 801 l 1
 400.5 802 l 1
 400 626 l 1
 303 626 l 1
 300 542 l 1
EndSplineSet
Validated: 5
EndChar

StartChar: quotedblleft
Encoding: 270 8220 110
Width: 559
Flags: HW
LayerCount: 2
Fore
SplineSet
127 501 m 0
 108 501 90 508 74 522 c 0
 57 535 49 559 49 594 c 0
 49 622 54 649 64 674 c 0
 75 699 94 721 120 740 c 0
 148 758 186 770 235 777 c 1
 248 715 l 1
 224 710 202 704 181 696 c 0
 160 687 145 670 136 645 c 1
 157 642 172 634 182 620 c 0
 193 606 198 590 198 573 c 0
 198 556 193 540 182 524 c 0
 172 509 154 501 127 501 c 0
386 501 m 0
 366 501 348 508 331 522 c 0
 314 535 306 559 306 594 c 0
 306 622 311 649 322 674 c 0
 332 699 350 721 377 740 c 0
 404 758 441 770 490 777 c 1
 506 715 l 1
 481 710 459 704 438 696 c 0
 418 687 403 670 394 645 c 1
 415 642 430 634 440 620 c 0
 451 606 456 590 456 573 c 0
 456 556 451 540 440 524 c 0
 429 509 411 501 386 501 c 0
EndSplineSet
Validated: 1
EndChar

StartChar: quotedblright
Encoding: 271 8221 111
Width: 559
Flags: HW
LayerCount: 2
Fore
SplineSet
325 489 m 1
 309 552 l 1
 333 557 355 564 376 572 c 0
 397 580 412 597 421 623 c 1
 400 625 385 633 374 648 c 0
 363 662 358 677 358 694 c 0
 358 710 363 726 374 742 c 0
 385 758 403 766 430 766 c 0
 449 766 467 759 484 746 c 0
 500 732 508 708 508 674 c 0
 508 646 503 619 492 594 c 0
 482 568 464 546 438 528 c 0
 411 509 374 496 325 489 c 1
66 489 m 1
 52 552 l 1
 76 557 98 564 118 572 c 0
 138 580 153 597 163 623 c 1
 143 625 128 633 117 648 c 0
 106 662 101 677 101 694 c 0
 101 710 106 726 117 742 c 0
 128 758 146 766 171 766 c 0
 191 766 209 759 226 746 c 0
 243 732 251 708 251 674 c 0
 251 646 246 619 236 594 c 0
 225 568 207 546 180 528 c 0
 153 509 115 496 66 489 c 1
EndSplineSet
Validated: 1
EndChar

StartChar: bullet
Encoding: 272 8226 112
Width: 559
Flags: HW
LayerCount: 2
Fore
SplineSet
280 195 m 0
 249 195 222 202 198 217 c 0
 176 232 158 251 146 276 c 0
 134 300 128 326 128 355 c 0
 128 384 134 410 146 434 c 0
 158 458 176 478 198 492 c 0
 222 508 249 515 280 515 c 0
 311 515 338 508 361 492 c 0
 384 478 401 458 414 434 c 0
 426 410 432 384 432 355 c 0
 432 326 426 300 414 276 c 0
 401 251 384 232 361 217 c 0
 338 202 311 195 280 195 c 0
EndSplineSet
Validated: 1
EndChar

StartChar: endash
Encoding: 273 8211 113
Width: 559
Flags: HW
LayerCount: 2
Fore
SplineSet
82 269 m 1
 82 341 l 1
 478 341 l 1
 478 269 l 1
 82 269 l 1
EndSplineSet
Validated: 1
EndChar

StartChar: emdash
Encoding: 274 8212 114
Width: 559
Flags: HW
LayerCount: 2
Fore
SplineSet
0 269 m 1
 0 341 l 1
 560 341 l 1
 560 269 l 1
 0 269 l 1
EndSplineSet
Validated: 1
EndChar

StartChar: tilde
Encoding: 275 732 115
Width: 559
Flags: HW
LayerCount: 2
Fore
SplineSet
176 619 m 1
 132 639 l 1
 135 649 141 661 149 674 c 0
 157 687 167 699 180 709 c 0
 193 719 208 724 225 724 c 0
 234 724 246 721 261 715 c 0
 276 709 287 704 295 700 c 0
 313 690 326 685 335 685 c 0
 344 685 353 690 362 700 c 0
 371 711 378 721 382 731 c 1
 426 712 l 1
 423 702 418 690 410 677 c 0
 402 664 392 652 378 642 c 0
 366 632 350 627 332 627 c 0
 324 627 314 630 300 634 c 0
 288 640 277 644 270 647 c 0
 261 652 252 656 243 659 c 0
 234 662 227 664 222 664 c 0
 213 664 205 659 196 649 c 0
 187 639 181 629 176 619 c 1
EndSplineSet
Validated: 1
EndChar

StartChar: trademark
Encoding: 276 8482 116
Width: 559
Flags: HW
LayerCount: 2
Fore
SplineSet
250 400 m 1
 253 450 256 492 260 525 c 0
 262 558 266 588 269 614 c 0
 272 640 276 666 281 693 c 1
 342 693 l 1
 391 541 l 1
 444 693 l 1
 504 693 l 1
 509 666 514 640 516 614 c 0
 520 587 522 557 525 524 c 0
 528 491 530 449 533 400 c 1
 468 400 l 1
 468 459 l 2
 467 484 467 510 466 536 c 0
 465 564 464 587 463 607 c 1
 416 477 l 1
 365 477 l 1
 321 607 l 1
 320 587 318 564 318 536 c 0
 316 510 316 484 316 459 c 0
 315 434 315 415 315 400 c 1
 250 400 l 1
92 400 m 1
 92 637 l 1
 20 637 l 1
 20 693 l 1
 228 693 l 1
 228 637 l 1
 157 637 l 1
 157 400 l 1
 92 400 l 1
EndSplineSet
Validated: 1
EndChar

StartChar: guilsinglright
Encoding: 278 8250 118
Width: 559
Flags: HW
LayerCount: 2
Fore
SplineSet
230 69 m 1
 179 100 l 1
 293 284 l 1
 179 469 l 1
 230 499 l 1
 383 284 l 1
 230 69 l 1
EndSplineSet
Validated: 1
EndChar

StartChar: oe
Encoding: 279 339 119
Width: 559
Flags: HW
LayerCount: 2
Fore
SplineSet
173 -12 m 0
 150 -12 130 -4 112 13 c 0
 96 30 82 51 70 78 c 0
 60 105 51 134 46 166 c 0
 41 199 38 230 38 261 c 0
 38 291 40 322 45 354 c 0
 50 385 57 414 68 441 c 0
 79 468 93 489 110 506 c 0
 127 522 148 530 173 530 c 0
 203 530 228 522 248 504 c 0
 269 488 283 459 292 420 c 1
 305 459 321 487 340 504 c 0
 359 521 379 530 401 530 c 0
 446 530 478 507 500 461 c 0
 520 415 531 349 531 264 c 0
 531 261 531 258 532 256 c 0
 532 252 532 247 531 240 c 1
 335 240 l 1
 335 213 338 185 344 158 c 0
 351 130 362 107 376 88 c 0
 392 70 411 61 435 61 c 0
 444 61 453 62 464 66 c 0
 475 68 489 76 507 87 c 1
 518 18 l 1
 504 7 488 0 471 -5 c 0
 454 -10 438 -12 423 -12 c 0
 398 -12 374 -4 351 10 c 0
 328 26 308 54 292 97 c 1
 279 58 265 30 248 14 c 0
 231 -4 206 -12 173 -12 c 0
337 309 m 1
 453 309 l 1
 453 358 448 395 438 422 c 0
 427 448 415 461 401 461 c 0
 383 461 368 447 356 420 c 0
 343 393 337 356 337 309 c 1
190 59 m 0
 203 59 213 65 221 77 c 0
 229 89 235 104 240 124 c 0
 245 142 248 164 250 186 c 0
 251 210 252 232 252 254 c 0
 252 277 251 300 249 324 c 0
 247 348 243 370 238 391 c 0
 233 412 226 428 216 441 c 0
 208 454 196 460 183 460 c 0
 166 460 153 450 144 430 c 0
 134 409 127 384 123 354 c 0
 119 324 117 294 117 265 c 0
 117 242 118 219 120 195 c 0
 123 171 127 149 132 128 c 0
 138 107 146 91 155 78 c 0
 164 65 176 59 190 59 c 0
EndSplineSet
Validated: 1
EndChar

StartChar: exclamdown
Encoding: 161 161 121
Width: 559
Flags: HW
LayerCount: 2
Fore
SplineSet
203 314 m 1
 201.5 -201.5 l 1
 297 -201.5 l 1
 300 314 l 1
 203 314 l 1
199 537.5 m 5
 199 428.5 l 1
 297 428.5 l 1
 297 537.5 l 5
 199 537.5 l 5
EndSplineSet
Validated: 9
EndChar

StartChar: cent
Encoding: 162 162 122
Width: 559
Flags: HW
LayerCount: 2
Fore
SplineSet
303 -109 m 1
 303 2 l 1
 198 1.01639344262 l 1
 200 106 l 1
 88 106 l 1
 92 426.5 l 1
 196 426.5 l 1
 198 540.990291262 l 1
 300 540 l 1
 301 626 l 1
 400 626 l 1
 399 542 l 1
 503 542 l 1
 502 426.5 l 1
 196 426.5 l 1
 200 106 l 1
 500 106 l 1
 501.5 0 l 1
 399 1 l 1
 399 -109 l 1
 303 -109 l 1
EndSplineSet
Validated: 5
EndChar

StartChar: sterling
Encoding: 163 163 123
Width: 559
Flags: HW
LayerCount: 2
Fore
SplineSet
92 0 m 1
 92 314.5 l 1
 0 314.5 l 1
 -2 426.5 l 1
 90 426.5 l 1
 91 542 l 1
 198 544 l 5
 196 626 l 1
 500 626 l 1
 500 541 l 1
 198 544 l 5
 197 426 l 1
 402 426.5 l 1
 404 314.5 l 1
 199 314 l 1
 197 103 l 1
 504 103 l 1
 504 0 l 1
 92 0 l 1
EndSplineSet
Validated: 5
EndChar

StartChar: currency
Encoding: 164 164 124
Width: 559
Flags: HW
LayerCount: 2
Fore
SplineSet
89.5 0 m 1
 0 0 l 1
 0 106 l 1
 90 106 l 1
 88 542 l 1
 0 542 l 1
 0 626 l 1
 90 626 l 1
 88 542 l 1
 500 542 l 1
 502 626 l 1
 559 626 l 1
 559 542 l 1
 500 542 l 1
 502 106 l 1
 559 106 l 1
 559 0 l 1
 501.5 0 l 1
 502 106 l 1
 90 106 l 1
 89.5 0 l 1
404 208.5 m 1
 402 432.5 l 5
 196 432.5 l 5
 198 208.5 l 1
 404 208.5 l 1
EndSplineSet
Validated: 5
EndChar

StartChar: yen
Encoding: 165 165 125
Width: 559
Flags: HW
LayerCount: 2
Fore
SplineSet
200 0 m 1
 200 103 l 1
 88 103 l 1
 88 207 l 1
 200 207 l 1
 200 315 l 1
 88 315 l 1
 88 425 l 1
 199 426.5 l 1
 197 542 l 1
 92 542 l 1
 88 626 l 1
 0 626 l 1
 0 726 l 1
 90 726 l 1
 88 626 l 5
 196 626 l 1
 197 542 l 1
 301 542 l 1
 304 626 l 1
 404 626 l 1
 404 726 l 1
 502 726 l 1
 500 626 l 1
 404 626 l 1
 402 542 l 1
 301 542 l 1
 304 426.5 l 1
 404 425 l 1
 404 315 l 1
 299 315 l 1
 299 207 l 1
 404 207 l 1
 404 103 l 1
 299 103 l 1
 299 0 l 1
 200 0 l 1
EndSplineSet
Validated: 5
EndChar

StartChar: brokenbar
Encoding: 166 166 126
Width: 559
Flags: HW
LayerCount: 2
Fore
SplineSet
201 427 m 1
 201 799 l 1
 305 799 l 1
 305 427 l 1
 201 427 l 1
201 -185 m 1
 201 206 l 5
 299 206 l 5
 299 -185 l 1
 201 -185 l 1
EndSplineSet
Validated: 1
EndChar

StartChar: section
Encoding: 167 167 127
Width: 559
Flags: HW
LayerCount: 2
Fore
SplineSet
86 -87 m 1
 89.5 0 l 1
 401.5 0 l 1
 402 106 l 1
 196 106 l 1
 200 208.5 l 1
 90.9072265625 208 l 5
 88.5478515625 626 l 1
 197 626 l 1
 196 726 l 1
 500 726 l 1
 500 626 l 1
 197 626 l 1
 200 542 l 1
 402 542 l 1
 402 426.5 l 1
 500.270334928 429 l 1
 501.294258373 1 l 1
 401.5 0 l 1
 400 -85.4885679904 l 1
 86 -87 l 1
402 426.5 m 1
 198 426.5 l 1
 200 208.5 l 1
 406 208.5 l 1
 402 426.5 l 1
EndSplineSet
Validated: 5
EndChar

StartChar: dieresis
Encoding: 168 168 128
Width: 559
Flags: HW
LayerCount: 2
Fore
SplineSet
303 626 m 1
 303 726 l 1
 402 726 l 1
 402 626 l 1
 303 626 l 1
90 626 m 5
 90 726 l 1
 198 726 l 1
 198 626 l 1
 90 626 l 5
EndSplineSet
Validated: 1
EndChar

StartChar: copyright
Encoding: 169 169 129
Width: 559
Flags: HW
LayerCount: 2
Fore
SplineSet
88 106 m 1
 -0.292011019284 106 l 1
 -1.73002754821 628 l 1
 86 627 l 5
 86 726 l 1
 504 726 l 1
 502 626 l 1
 557.20661157 626 l 1
 558.280991736 106 l 1
 502 105 l 1
 500 0 l 1
 88 0 l 1
 88 106 l 1
502 105 m 1
 502 626 l 1
 86 627 l 1
 88 106 l 1
 502 105 l 1
200 208.5 m 1
 200 542 l 1
 400 542 l 1
 400 426.5 l 1
 304 426.5 l 1
 302 314.5 l 1
 400 314.5 l 1
 402 208.5 l 1
 200 208.5 l 1
EndSplineSet
Validated: 5
EndChar

StartChar: ordfeminine
Encoding: 170 170 130
Width: 559
Flags: HW
LayerCount: 2
Fore
SplineSet
88 208.5 m 1
 92 542 l 5
 402 542 l 5
 400 626 l 1
 92 626 l 1
 92 726 l 1
 500 726 l 1
 504 208.5 l 1
 88 208.5 l 1
402 314.5 m 1
 400 426.5 l 1
 196 426.5 l 1
 199 314.5 l 1
 402 314.5 l 1
EndSplineSet
Validated: 1
EndChar

StartChar: logicalnot
Encoding: 172 172 131
Width: 559
Flags: HW
LayerCount: 2
Fore
SplineSet
404 104 m 1
 404 315 l 1
 89 315 l 5
 89 425 l 5
 503 425 l 1
 503 104 l 1
 404 104 l 1
EndSplineSet
Validated: 1
EndChar

StartChar: registered
Encoding: 174 174 132
Width: 559
Flags: HW
LayerCount: 2
Fore
SplineSet
0 800 m 1
 559 800 l 1
 559 0 l 1
 0 0 l 1
 0.5 726 l 1
 90 726 l 1
 86 106 l 1
 500 106 l 1
 502 726 l 5
 90 726 l 1
 0 726 l 1
 0 800 l 1
91 208.5 m 1
 91 626 l 1
 406 626 l 1
 406 426.5 l 1
 301 424.5 l 1
 302 314.5 l 1
 405.015625 314 l 1
 404 208 l 1
 299 208.5 l 1
 302 314.5 l 1
 195 314.5 l 1
 194 208.5 l 1
 91 208.5 l 1
195 426.5 m 1
 301 424.5 l 1
 303 542 l 1
 195 542 l 1
 195 426.5 l 1
EndSplineSet
Validated: 5
EndChar

StartChar: macron
Encoding: 175 175 133
Width: 559
Flags: HW
LayerCount: 2
Fore
SplineSet
89 626 m 5
 88 726 l 1
 402 726 l 1
 400 626 l 1
 89 626 l 5
EndSplineSet
Validated: 1
EndChar

StartChar: degree
Encoding: 176 176 134
Width: 559
Flags: HW
LayerCount: 2
Fore
SplineSet
196 626 m 5
 88.4846153846 626 l 5
 89.0849609375 726 l 5
 196 726 l 5
 200 801.291666667 l 5
 302 800.637820513 l 5
 304 726 l 5
 401.639534884 728 l 5
 401.837209302 626 l 5
 304 626 l 5
 300 542 l 5
 196 542 l 5
 196 626 l 5
304 626 m 5
 304 726 l 5
 196 726 l 5
 196 626 l 5
 304 626 l 5
EndSplineSet
Validated: 5
EndChar

StartChar: plusminus
Encoding: 177 177 135
Width: 559
Flags: HW
LayerCount: 2
Fore
SplineSet
196 208.5 m 1
 195.5 314.5 l 1
 89 314.5 l 1
 90 426.5 l 1
 196.5 426.5 l 1
 198 542 l 1
 302 542 l 1
 300.5 426.5 l 1
 402 426.5 l 1
 401 314.5 l 1
 299.5 314.5 l 1
 300 208.5 l 1
 196 208.5 l 1
89.5 0 m 1
 90.5 106 l 1
 402.5 106 l 1
 401.5 0 l 1
 89.5 0 l 1
EndSplineSet
Validated: 1
EndChar

StartChar: uni00B2
Encoding: 178 178 136
Width: 559
Flags: HW
LayerCount: 2
Fore
SplineSet
92 314 m 1
 86 626 l 1
 304 626 l 1
 304 726 l 1
 92 726 l 1
 89.5 798 l 1
 401.5 798 l 1
 404 542 l 1
 196 542 l 5
 198 426.5 l 1
 402 427 l 1
 404 314 l 1
 92 314 l 1
EndSplineSet
Validated: 1
EndChar

StartChar: uni00B3
Encoding: 179 179 137
Width: 559
Flags: HW
LayerCount: 2
Fore
SplineSet
89.5 315 m 1
 91 426.5 l 1
 303 426.5 l 1
 303 542 l 25
 89 542 l 1
 87 626 l 1
 301 626 l 1
 303 726 l 1
 89 726 l 5
 89.5 797 l 1
 401.5 798 l 1
 399 426.5 l 1
 401 314.5 l 1
 89.5 315 l 1
EndSplineSet
Validated: 1
EndChar

StartChar: acute
Encoding: 180 180 138
Width: 559
Flags: HW
LayerCount: 2
Fore
SplineSet
300 626 m 5
 197 626 l 1
 197 726 l 1
 299 726 l 1
 302 799 l 1
 401.5 798 l 1
 397 726 l 1
 299 726 l 1
 300 626 l 5
EndSplineSet
Validated: 5
EndChar

StartChar: uni03BC
Encoding: 281 956 139
Width: 559
Flags: HW
LayerCount: 2
Fore
SplineSet
84 -185 m 1
 84 518 l 1
 162 518 l 1
 162 250 l 2
 162 183 172 134 190 104 c 0
 210 75 244 60 293 60 c 0
 316 60 338 61 360 64 c 0
 381 66 394 68 399 70 c 1
 399 518 l 1
 477 518 l 1
 477 14 l 1
 458 9 433 4 400 -2 c 0
 367 -9 327 -12 280 -12 c 0
 245 -12 219 -8 202 0 c 0
 185 7 171 18 159 31 c 1
 162 14 163 -4 162 -22 c 2
 162 -79 l 1
 162 -185 l 1
 84 -185 l 1
EndSplineSet
Validated: 33
EndChar

StartChar: paragraph
Encoding: 182 182 140
Width: 559
Flags: HW
LayerCount: 2
Fore
SplineSet
199 -198 m 1
 199 315 l 1
 90 315 l 1
 89 426.5 l 1
 0 426.5 l 1
 0 626 l 1
 88.5 626 l 1
 89 726 l 1
 500 726 l 1
 498 -198 l 1
 403 -198 l 1
 403 626 l 1
 303 626 l 1
 303 -198 l 1
 199 -198 l 1
EndSplineSet
Validated: 1
EndChar

StartChar: periodcentered
Encoding: 183 183 141
Width: 559
Flags: HW
LayerCount: 2
Fore
SplineSet
198 207 m 5
 198 316 l 1
 303 316 l 1
 303 207 l 5
 198 207 l 5
EndSplineSet
Validated: 1
EndChar

StartChar: cedilla
Encoding: 184 184 142
Width: 559
Flags: HW
LayerCount: 2
Fore
SplineSet
199.5 -197 m 1
 197.5 -100 l 1
 302 -102 l 1
 302 0 l 1
 401.5 0 l 1
 401.5 -104 l 1
 302 -102 l 5
 304 -197 l 1
 199.5 -197 l 1
EndSplineSet
Validated: 5
EndChar

StartChar: uni00B9
Encoding: 185 185 143
Width: 559
Flags: HW
LayerCount: 2
Fore
SplineSet
91 428 m 1
 91 540 l 1
 200 540 l 1
 200 727 l 1
 91 726 l 1
 89.5 799 l 5
 303 799 l 1
 303 540 l 1
 402 540 l 1
 402 428 l 1
 91 428 l 1
EndSplineSet
Validated: 1
EndChar

StartChar: ordmasculine
Encoding: 186 186 144
Width: 559
Flags: HW
LayerCount: 2
Fore
SplineSet
89 426.5 m 1053
89 426.5 m 25
 401 426.5 l 25
 401 314.5 l 25
 91 314.5 l 25
 89 426.5 l 25
196 626 m 1
 88.4846153846 626 l 1
 89.0849609375 726 l 1
 196 726 l 1
 200 801.291666667 l 1
 302 800.637820513 l 1
 304 726 l 1
 401.639534884 728 l 1
 401.837209302 626 l 1
 304 626 l 1
 300 542 l 1
 196 542 l 1
 196 626 l 1
304 626 m 1
 304 726 l 1
 196 726 l 1
 196 626 l 1
 304 626 l 1
EndSplineSet
Validated: 5
EndChar

StartChar: onequarter
Encoding: 188 188 145
Width: 559
Flags: HW
LayerCount: 2
Fore
SplineSet
91 427 m 5
 92 726 l 5
 196 726 l 5
 197 427 l 5
 91 427 l 5
0 105.5 m 5
 0 208.5 l 5
 90 208.5 l 5
 88 314.5 l 5
 196 314.5 l 5
 197 427 l 5
 301 427 l 5
 303 542 l 5
 404 542 l 5
 404 626 l 5
 501 626 l 5
 500 725 l 5
 558 725 l 5
 559 626 l 5
 501 626 l 5
 501 542 l 5
 404 542 l 5
 399 427 l 5
 301 427 l 5
 300 314.5 l 5
 196 314.5 l 5
 198 208.5 l 5
 90 208.5 l 5
 92.5 106.5 l 5
 0 105.5 l 5
501.5 1 m 5
 502 106 l 5
 302 106 l 5
 300 314.5 l 5
 400 314.5 l 5
 400 208.5 l 5
 500 208.5 l 5
 504 314.5 l 5
 556 313 l 5
 556 0 l 5
 501.5 1 l 5
EndSplineSet
Validated: 5
EndChar

StartChar: onehalf
Encoding: 189 189 146
Width: 559
Flags: HW
LayerCount: 2
Fore
SplineSet
91 427 m 1
 92 726 l 1
 196 726 l 1
 197 427 l 1
 91 427 l 1
0 105.5 m 1
 0 208.5 l 1
 90 208.5 l 1
 88 314.5 l 1
 196 314.5 l 1
 197 427 l 1
 301 427 l 1
 303 542 l 1
 404 542 l 1
 404 626 l 1
 501 626 l 1
 500 725 l 1
 558 725 l 1
 559 626 l 1
 501 626 l 1
 501 542 l 1
 404 542 l 1
 399 427 l 1
 301 427 l 1
 302 314.5 l 1
 196 314.5 l 1
 198 208.5 l 1
 90 208.5 l 1
 92.5 106.5 l 1
 0 105.5 l 1
302 2 m 1
 302 108 l 1
 400 108 l 1
 400 208.5 l 1
 302 208.5 l 1
 302 314.5 l 1
 500 314.5 l 1
 502 208.5 l 1
 559 208.5 l 5
 556 2 l 5
 302 2 l 1
EndSplineSet
Validated: 5
EndChar

StartChar: threequarters
Encoding: 190 190 147
Width: 559
Flags: HW
LayerCount: 2
Fore
SplineSet
0 426.5 m 1
 0 542 l 1
 88 542 l 1
 88 626 l 1
 0 626 l 1
 0 726 l 1
 86 726 l 1
 88 626 l 1
 196.341137124 624 l 1
 196.608695652 544 l 1
 88 542 l 1
 86 426.5 l 5
 0 426.5 l 1
0 105.5 m 1
 0 208.5 l 1
 90 208.5 l 1
 88 314.5 l 1
 196 314.5 l 1
 197 427 l 1
 301 427 l 1
 303 542 l 1
 404 542 l 1
 404 626 l 1
 501 626 l 1
 500 725 l 1
 558 725 l 1
 559 626 l 1
 501 626 l 1
 501 542 l 1
 404 542 l 1
 399 427 l 1
 301 427 l 1
 300 314.5 l 1
 196 314.5 l 1
 198 208.5 l 1
 90 208.5 l 1
 92.5 106.5 l 1
 0 105.5 l 1
501.5 1 m 1
 502 106 l 1
 302 106 l 1
 300 314.5 l 1
 400 314.5 l 1
 400 208.5 l 1
 500 208.5 l 1
 504 314.5 l 1
 556 313 l 1
 556 0 l 1
 501.5 1 l 1
EndSplineSet
Validated: 5
EndChar

StartChar: questiondown
Encoding: 191 191 148
Width: 559
Flags: HW
LayerCount: 2
Fore
SplineSet
202 517.5 m 1
 200 299.5 l 1
 303 299.5 l 1
 304 100 l 1
 199 100 l 1
 198 184 l 5
 92 184 l 5
 88 100 l 1
 199 100 l 1
 204 0 l 1
 302 0 l 1
 304 100 l 1
 402 100 l 1
 406 299.5 l 1
 303 299.5 l 1
 300 517.5 l 1
 202 517.5 l 1
201 724 m 0
 201 621 l 1
 306 621 l 1
 306 724 l 1
 201 724 l 0
EndSplineSet
Validated: 5
EndChar

StartChar: Aring
Encoding: 197 197 154
Width: 559
Flags: HW
LayerCount: 2
Fore
SplineSet
10 0 m 1
 19 33 30 70 42 114 c 0
 53 156 66 202 80 250 c 0
 94 299 109 347 124 396 c 0
 140 445 156 491 172 534 c 0
 188 577 204 616 220 649 c 1
 210 658 201 670 194 684 c 0
 187 697 183 712 183 728 c 0
 183 757 193 781 212 799 c 0
 232 817 255 826 282 826 c 0
 308 826 331 817 350 799 c 0
 370 781 380 757 380 728 c 0
 380 713 376 698 368 684 c 0
 361 669 352 658 343 650 c 1
 359 617 375 578 391 534 c 0
 407 491 422 445 438 396 c 0
 452 347 467 299 480 251 c 0
 494 203 507 157 518 114 c 0
 530 71 541 33 550 0 c 1
 467 0 l 1
 423 187 l 1
 132 187 l 1
 89 0 l 1
 10 0 l 1
282 671 m 0
 297 671 310 676 321 686 c 0
 332 696 337 710 337 728 c 0
 337 746 332 760 321 770 c 0
 310 780 297 785 282 785 c 0
 267 785 254 780 242 770 c 0
 232 760 226 746 226 728 c 0
 226 710 232 696 242 686 c 0
 254 676 267 671 282 671 c 0
153 253 m 1
 403 253 l 1
 390 301 376 348 361 396 c 0
 346 442 332 486 318 526 c 0
 303 567 290 601 279 629 c 1
 268 600 255 565 240 524 c 0
 226 483 212 440 196 394 c 0
 182 347 167 300 153 253 c 1
EndSplineSet
Validated: 1
EndChar

StartChar: AE
Encoding: 198 198 155
Width: 559
Flags: HW
LayerCount: 2
Fore
SplineSet
36 0 m 1
 57 80 79 161 102 242 c 0
 125 323 150 402 174 479 c 0
 200 556 225 627 252 693 c 1
 522 693 l 1
 522 626 l 1
 373 626 l 1
 373 395 l 1
 497 395 l 1
 497 328 l 1
 373 328 l 1
 373 67 l 1
 537 67 l 1
 537 0 l 1
 298 0 l 1
 298 187 l 1
 155 187 l 1
 111 0 l 1
 36 0 l 1
176 253 m 1
 298 253 l 1
 298 644 l 1
 275 575 252 506 232 436 c 0
 210 367 192 306 176 253 c 1
EndSplineSet
Validated: 1
EndChar

StartChar: Ccedilla
Encoding: 199 199 156
Width: 559
Flags: HW
LayerCount: 2
Fore
SplineSet
320 -189 m 0
 302 -189 286 -188 272 -184 c 0
 257 -182 246 -178 239 -175 c 1
 249 -122 l 1
 258 -125 267 -127 275 -129 c 0
 283 -131 292 -132 303 -132 c 0
 315 -132 324 -130 328 -126 c 0
 334 -122 336 -117 336 -111 c 0
 336 -96 322 -85 295 -77 c 1
 291 -75 l 1
 294 -68 299 -58 304 -46 c 2
 319 -13 l 1
 270 -10 225 4 186 30 c 0
 147 57 116 96 93 148 c 0
 70 201 59 267 59 347 c 0
 59 426 72 493 98 546 c 0
 123 600 157 641 200 668 c 0
 243 695 289 709 339 709 c 0
 360 709 385 706 414 700 c 0
 443 694 473 681 506 662 c 1
 482 596 l 1
 453 611 428 622 406 628 c 0
 383 635 363 638 344 638 c 0
 300 638 263 625 232 600 c 0
 201 574 178 539 162 495 c 0
 147 451 139 401 139 346 c 0
 139 279 148 225 168 182 c 0
 186 139 212 108 244 87 c 0
 276 66 311 56 349 56 c 0
 367 56 388 58 412 64 c 0
 436 68 462 79 491 94 c 1
 512 28 l 1
 489 15 466 5 444 -1 c 0
 421 -7 398 -11 375 -12 c 1
 361 -40 l 1
 378 -49 391 -59 400 -70 c 0
 408 -80 412 -97 412 -120 c 0
 412 -126 410 -134 406 -146 c 0
 401 -156 392 -166 380 -176 c 0
 366 -184 347 -189 320 -189 c 0
EndSplineSet
Validated: 1
EndChar

StartChar: Eth
Encoding: 208 208 165
Width: 559
Flags: HW
LayerCount: 2
Fore
SplineSet
214 -5 m 0
 169 -5 124 1 80 12 c 1
 80 333 l 1
 20 333 l 1
 20 392 l 1
 80 392 l 1
 80 683 l 1
 100 688 121 692 142 696 c 0
 164 698 186 700 209 700 c 0
 265 700 316 688 362 666 c 0
 407 642 444 605 470 554 c 0
 498 502 511 433 511 347 c 0
 511 262 498 193 472 142 c 0
 446 90 410 52 366 30 c 0
 320 6 270 -5 214 -5 c 0
220 63 m 0
 263 63 300 72 331 90 c 0
 362 107 387 137 404 178 c 0
 421 220 430 276 430 347 c 0
 430 416 421 472 404 514 c 0
 387 555 362 585 329 604 c 0
 296 623 257 632 211 632 c 2
 184 632 l 2
 174 631 165 630 158 629 c 1
 158 392 l 1
 275 392 l 1
 275 333 l 1
 158 333 l 1
 158 67 l 1
 169 66 179 65 190 64 c 0
 201 63 211 63 220 63 c 0
EndSplineSet
Validated: 1
EndChar

StartChar: multiply
Encoding: 215 215 172
Width: 559
Flags: HW
LayerCount: 2
Fore
SplineSet
131 96 m 1
 81 146 l 1
 229 295 l 1
 81 442 l 1
 131 490 l 1
 279 344 l 1
 427 491 l 1
 476 442 l 1
 328 295 l 1
 475 146 l 1
 427 96 l 1
 279 245 l 1
 131 96 l 1
EndSplineSet
Validated: 1
EndChar

StartChar: Oslash
Encoding: 216 216 173
Width: 559
Flags: HW
LayerCount: 2
Fore
SplineSet
130 -35 m 1
 68 -3 l 1
 104 70 l 1
 57 129 33 221 33 348 c 0
 33 432 44 501 64 554 c 0
 86 607 114 647 152 672 c 0
 188 697 231 710 280 710 c 0
 324 710 363 699 398 677 c 1
 421 726 l 1
 484 694 l 1
 453 628 l 1
 476 599 495 561 508 514 c 0
 522 467 529 412 529 348 c 0
 529 264 518 195 497 142 c 0
 476 89 446 49 408 24 c 0
 371 -1 328 -14 280 -14 c 0
 233 -14 192 -3 156 19 c 1
 130 -35 l 1
138 141 m 1
 366 615 l 1
 354 625 340 632 326 636 c 0
 310 640 294 642 277 642 c 0
 224 642 184 618 156 568 c 0
 128 520 114 446 114 348 c 0
 114 307 116 269 118 234 c 0
 122 198 128 167 138 141 c 1
277 54 m 0
 330 54 372 78 403 128 c 0
 434 176 449 250 449 348 c 0
 449 390 446 429 442 464 c 0
 436 500 428 530 417 555 c 1
 187 82 l 1
 199 71 213 64 230 60 c 0
 246 56 262 54 277 54 c 0
EndSplineSet
Validated: 1
EndChar

StartChar: Thorn
Encoding: 222 222 179
Width: 559
Flags: HW
LayerCount: 2
Fore
SplineSet
89 0 m 1
 89 693 l 1
 167 693 l 1
 167 573 l 1
 179 574 191 575 204 576 c 0
 216 577 228 577 239 577 c 0
 324 577 390 561 436 528 c 0
 481 495 504 448 504 386 c 0
 504 326 492 279 470 244 c 0
 446 209 414 185 374 170 c 0
 332 155 285 148 231 148 c 2
 167 148 l 1
 167 0 l 1
 89 0 l 1
167 213 m 1
 235 213 l 2
 272 213 304 218 332 226 c 0
 361 236 383 252 400 276 c 0
 416 301 424 335 424 380 c 0
 424 416 415 443 398 462 c 0
 381 481 359 493 333 500 c 0
 307 506 280 509 253 509 c 2
 202 509 l 2
 190 509 178 509 167 508 c 1
 167 213 l 1
EndSplineSet
Validated: 1
EndChar

StartChar: germandbls
Encoding: 223 223 180
Width: 559
Flags: HW
LayerCount: 2
Fore
SplineSet
339 -12 m 0
 326 -12 311 -10 295 -6 c 0
 279 -3 265 1 252 6 c 0
 239 11 231 14 227 16 c 1
 241 87 l 1
 247 83 261 77 282 68 c 0
 303 60 326 56 351 56 c 0
 384 56 409 64 424 81 c 0
 439 98 447 121 447 152 c 0
 447 179 439 201 424 216 c 0
 408 232 390 246 371 257 c 0
 357 264 342 272 326 280 c 0
 310 287 295 296 280 306 c 0
 265 315 254 327 244 341 c 0
 236 355 231 372 231 393 c 0
 231 419 237 441 248 459 c 0
 260 477 275 495 294 512 c 0
 312 527 328 543 342 558 c 0
 357 574 364 590 364 606 c 0
 364 636 357 660 343 679 c 0
 329 698 306 707 274 707 c 0
 242 707 217 694 199 667 c 0
 181 640 172 604 172 557 c 2
 172 0 l 1
 94 0 l 1
 94 560 l 2
 94 604 101 642 116 674 c 0
 131 707 151 732 176 750 c 0
 202 767 232 776 266 776 c 0
 311 776 347 769 373 754 c 0
 399 739 418 720 428 696 c 0
 440 672 445 646 445 618 c 0
 445 594 440 572 430 553 c 0
 419 534 406 516 391 500 c 2
 347 456 l 2
 335 445 327 436 323 429 c 0
 319 422 317 414 317 405 c 0
 317 386 326 371 342 360 c 0
 360 349 379 338 402 326 c 0
 421 317 441 305 460 292 c 0
 479 279 496 261 508 240 c 0
 522 219 528 191 528 157 c 0
 528 44 465 -12 339 -12 c 0
EndSplineSet
Validated: 1
EndChar

StartChar: ae
Encoding: 230 230 187
Width: 559
Flags: HW
LayerCount: 2
Fore
SplineSet
181 -12 m 0
 149 -12 122 -4 101 10 c 0
 80 26 64 45 54 69 c 0
 43 93 38 118 38 144 c 0
 38 175 43 203 54 228 c 0
 65 254 81 275 103 290 c 0
 125 305 153 313 186 313 c 0
 195 313 204 312 215 310 c 0
 226 308 235 305 244 300 c 1
 244 325 l 2
 244 349 241 372 235 392 c 0
 229 414 220 430 206 443 c 0
 194 456 177 462 156 462 c 0
 139 462 123 460 107 454 c 0
 91 450 82 445 79 441 c 1
 70 509 l 2
 72 512 78 516 88 518 c 0
 99 522 111 524 124 526 c 0
 138 529 151 530 164 530 c 0
 199 530 228 523 248 510 c 0
 270 496 285 477 296 454 c 1
 307 477 321 496 337 510 c 0
 353 523 371 530 390 530 c 0
 439 530 475 507 498 460 c 0
 520 414 531 349 531 264 c 2
 531 240 l 1
 322 240 l 1
 321 183 331 139 352 108 c 0
 372 77 398 61 430 61 c 0
 441 61 453 63 466 67 c 0
 479 71 492 78 507 87 c 1
 518 18 l 2
 516 14 510 10 500 5 c 0
 489 0 477 -4 464 -7 c 0
 450 -10 436 -12 423 -12 c 0
 399 -12 377 -8 358 0 c 0
 339 8 322 19 307 34 c 1
 286 17 266 6 244 -2 c 0
 224 -8 202 -12 181 -12 c 0
324 309 m 1
 453 309 l 1
 453 352 450 384 443 406 c 0
 436 427 428 442 420 450 c 0
 410 457 402 461 395 461 c 0
 384 461 374 457 362 448 c 0
 352 440 342 425 335 403 c 0
 328 381 324 350 324 309 c 1
188 57 m 0
 202 57 217 61 234 68 c 0
 250 75 263 84 274 95 c 1
 265 114 258 134 252 156 c 0
 246 179 242 203 240 230 c 1
 233 235 225 238 218 241 c 0
 210 244 201 245 192 245 c 0
 165 245 146 236 134 218 c 0
 121 201 115 178 115 150 c 0
 115 127 121 106 133 86 c 0
 145 67 163 57 188 57 c 0
EndSplineSet
Validated: 33
EndChar

StartChar: ccedilla
Encoding: 231 231 188
Width: 559
Flags: HW
LayerCount: 2
Fore
SplineSet
286 -189 m 0
 269 -189 254 -188 238 -184 c 0
 224 -182 212 -178 205 -175 c 1
 216 -122 l 1
 225 -125 233 -127 242 -129 c 0
 250 -131 260 -132 271 -132 c 0
 292 -132 302 -125 302 -111 c 0
 302 -98 287 -86 257 -75 c 1
 260 -67 265 -57 270 -44 c 0
 276 -32 282 -21 287 -10 c 1
 243 -5 204 8 169 30 c 0
 134 50 107 80 87 118 c 0
 67 156 57 203 57 258 c 0
 57 307 65 349 80 384 c 0
 96 419 118 447 144 468 c 0
 172 489 202 505 236 515 c 0
 269 525 304 530 339 530 c 0
 362 530 386 528 412 525 c 0
 436 522 463 516 492 507 c 1
 474 438 l 1
 447 448 422 454 401 456 c 0
 380 458 360 459 341 459 c 0
 308 459 276 453 244 440 c 0
 214 427 188 406 168 378 c 0
 148 348 138 309 138 258 c 0
 138 211 147 172 166 144 c 0
 185 114 210 93 241 80 c 0
 272 67 307 60 345 60 c 0
 370 60 393 61 414 64 c 0
 436 66 461 72 489 82 c 1
 500 16 l 1
 473 6 447 -1 422 -5 c 0
 396 -9 369 -11 342 -12 c 1
 339 -17 337 -21 335 -26 c 0
 333 -31 330 -35 327 -40 c 1
 344 -49 357 -59 366 -70 c 0
 375 -80 379 -97 379 -120 c 0
 379 -126 377 -134 373 -146 c 0
 369 -156 360 -166 347 -176 c 0
 334 -184 313 -189 286 -189 c 0
EndSplineSet
Validated: 1
EndChar

StartChar: eth
Encoding: 240 240 197
Width: 559
Flags: HW
LayerCount: 2
Fore
SplineSet
260 -11 m 0
 228 -11 200 -4 176 10 c 0
 151 25 131 44 115 67 c 0
 99 90 87 116 79 144 c 0
 71 172 67 199 67 226 c 0
 67 317 85 385 120 430 c 0
 156 475 203 497 260 497 c 0
 292 497 320 491 344 478 c 0
 367 465 384 454 393 443 c 1
 389 472 381 500 370 527 c 0
 359 554 345 579 330 603 c 1
 205 560 l 1
 184 616 l 1
 294 655 l 1
 283 668 271 681 260 693 c 0
 248 705 233 717 215 730 c 1
 257 775 l 1
 269 766 284 754 303 738 c 0
 322 723 341 703 362 679 c 1
 487 721 l 1
 508 664 l 1
 399 626 l 1
 420 593 438 549 454 495 c 0
 468 441 476 378 476 306 c 0
 476 271 473 236 467 198 c 0
 461 162 450 127 434 96 c 0
 419 64 397 38 368 18 c 0
 340 -1 304 -11 260 -11 c 0
262 54 m 0
 290 54 313 62 331 76 c 0
 349 92 363 111 373 136 c 0
 383 160 390 187 394 216 c 0
 399 246 401 276 401 306 c 0
 401 325 401 339 400 346 c 2
 400 365 l 1
 381 387 360 403 338 412 c 0
 314 422 293 427 273 427 c 0
 228 427 195 409 174 372 c 0
 153 335 143 288 143 231 c 0
 143 200 148 170 157 144 c 0
 166 116 180 95 198 78 c 0
 215 62 237 54 262 54 c 0
EndSplineSet
Validated: 1
EndChar

StartChar: divide
Encoding: 247 247 204
Width: 559
Flags: HW
LayerCount: 2
Fore
SplineSet
279 410 m 0
 260 410 244 417 233 431 c 0
 222 445 216 459 216 474 c 0
 216 490 222 505 233 518 c 0
 244 531 260 538 279 538 c 0
 298 538 314 531 324 518 c 0
 336 505 341 490 341 474 c 0
 341 459 336 445 324 431 c 0
 314 417 298 410 279 410 c 0
54 260 m 1
 54 329 l 1
 509 329 l 1
 509 260 l 1
 54 260 l 1
279 50 m 0
 260 50 244 57 233 70 c 0
 222 84 216 99 216 114 c 0
 216 129 222 144 233 158 c 0
 244 172 260 179 279 179 c 0
 298 179 314 172 324 158 c 0
 336 144 341 129 341 114 c 0
 341 99 336 84 324 70 c 0
 314 57 298 50 279 50 c 0
EndSplineSet
Validated: 1
EndChar

StartChar: oslash
Encoding: 248 248 205
Width: 559
Flags: HW
LayerCount: 2
Fore
SplineSet
99 -34 m 1
 52 2 l 1
 105 74 l 1
 88 97 74 124 64 156 c 0
 54 186 49 221 49 259 c 0
 49 314 59 361 78 402 c 0
 98 443 125 474 160 496 c 0
 195 519 234 530 278 530 c 0
 303 530 327 527 350 520 c 0
 373 513 393 503 411 488 c 1
 460 554 l 1
 507 517 l 1
 454 445 l 1
 472 422 486 395 496 364 c 0
 506 332 511 297 511 259 c 0
 511 205 501 158 481 118 c 0
 461 77 434 46 398 24 c 0
 364 1 323 -10 278 -10 c 0
 228 -10 184 4 147 32 c 1
 99 -34 l 1
152 138 m 1
 368 430 l 1
 356 441 342 448 327 453 c 0
 312 458 295 460 278 460 c 0
 234 460 198 442 171 406 c 0
 144 371 130 322 130 260 c 0
 130 233 132 210 134 191 c 0
 138 172 143 154 152 138 c 1
279 61 m 0
 324 61 361 79 388 114 c 0
 416 149 430 198 430 260 c 0
 430 283 428 306 426 327 c 0
 422 348 417 367 408 384 c 1
 190 89 l 1
 202 78 216 71 231 67 c 0
 246 63 262 61 279 61 c 0
EndSplineSet
Validated: 1
EndChar

StartChar: thorn
Encoding: 254 254 211
Width: 559
Flags: HW
LayerCount: 2
Fore
SplineSet
83 -185 m 1
 83 762 l 1
 161 776 l 1
 161 493 l 1
 186 506 210 516 234 522 c 0
 256 527 279 530 302 530 c 0
 340 530 375 519 406 498 c 0
 438 477 464 446 483 406 c 0
 502 365 512 316 512 258 c 0
 512 206 503 160 484 119 c 0
 466 78 440 46 406 23 c 0
 372 0 332 -12 285 -12 c 0
 254 -12 228 -8 206 -1 c 0
 185 6 170 14 161 22 c 1
 161 -185 l 1
 83 -185 l 1
279 61 m 0
 315 61 344 70 366 88 c 0
 389 105 405 129 416 159 c 0
 426 189 431 222 431 259 c 0
 431 306 424 345 412 374 c 0
 398 403 381 425 359 438 c 0
 337 452 313 459 286 459 c 0
 265 459 244 455 225 447 c 0
 206 439 184 427 161 410 c 1
 161 105 l 1
 172 94 189 84 212 75 c 0
 234 66 256 61 279 61 c 0
EndSplineSet
Validated: 1
EndChar

StartChar: Aogonek
Encoding: 286 260 217
Width: 559
Flags: HW
LayerCount: 2
Fore
SplineSet
497 -186 m 0
 459 -186 432 -180 415 -167 c 0
 398 -154 390 -136 390 -111 c 0
 390 -87 398 -66 414 -47 c 0
 429 -28 444 -13 459 0 c 1
 467 0 l 1
 423 187 l 1
 132 187 l 1
 89 0 l 1
 10 0 l 1
 22 43 36 93 51 149 c 0
 66 205 83 264 102 326 c 0
 121 389 141 451 162 514 c 0
 183 577 206 636 230 693 c 1
 334 693 l 1
 357 636 379 577 400 514 c 0
 421 452 440 390 458 328 c 0
 476 267 492 208 508 152 c 0
 522 97 536 47 549 3 c 1
 540 0 529 -7 516 -18 c 0
 502 -29 490 -41 480 -54 c 0
 469 -68 464 -81 464 -94 c 0
 464 -113 478 -123 507 -123 c 0
 511 -123 517 -122 524 -122 c 0
 531 -120 538 -119 545 -116 c 1
 553 -176 l 1
 540 -183 521 -186 497 -186 c 0
153 253 m 1
 403 253 l 1
 390 301 376 348 361 396 c 0
 346 442 332 486 318 526 c 0
 303 567 290 601 279 629 c 1
 268 600 255 565 240 524 c 0
 226 483 212 440 196 394 c 0
 182 347 167 300 153 253 c 1
EndSplineSet
Validated: 1
EndChar

StartChar: aogonek
Encoding: 287 261 218
Width: 559
Flags: HW
LayerCount: 2
Fore
SplineSet
428 -186 m 0
 390 -186 362 -179 344 -166 c 0
 325 -153 316 -134 316 -109 c 0
 316 -94 321 -79 331 -65 c 0
 341 -51 356 -32 377 -8 c 1
 364 -9 351 -10 336 -10 c 0
 322 -12 308 -12 294 -12 c 0
 267 -12 241 -10 214 -6 c 0
 188 -1 164 7 142 19 c 0
 121 31 103 48 90 70 c 0
 77 91 70 119 70 153 c 0
 70 192 81 224 103 247 c 0
 125 270 153 287 187 298 c 0
 221 308 256 313 292 313 c 0
 311 313 330 312 348 310 c 0
 367 307 385 304 402 300 c 1
 402 328 l 2
 402 350 399 371 392 392 c 0
 386 413 374 430 356 443 c 0
 337 456 310 463 274 463 c 0
 241 463 212 460 188 456 c 0
 163 450 145 446 134 441 c 1
 125 508 l 1
 136 513 156 518 185 523 c 0
 214 528 245 530 279 530 c 0
 330 530 370 522 399 505 c 0
 428 488 449 466 462 436 c 0
 475 408 481 374 481 336 c 2
 481 7 l 1
 472 0 460 -8 447 -20 c 0
 434 -30 422 -42 412 -56 c 0
 402 -68 397 -81 397 -94 c 0
 397 -113 411 -123 438 -123 c 0
 442 -123 448 -122 456 -122 c 0
 463 -120 470 -119 476 -116 c 1
 483 -176 l 1
 470 -183 451 -186 428 -186 c 0
288 56 m 0
 313 56 336 57 356 59 c 0
 375 61 391 63 402 66 c 1
 402 230 l 1
 390 234 375 238 356 240 c 0
 338 244 319 245 298 245 c 0
 275 245 252 242 229 237 c 0
 206 232 188 222 173 209 c 0
 158 196 151 177 151 153 c 0
 151 116 163 91 188 77 c 0
 212 63 245 56 288 56 c 0
EndSplineSet
Validated: 1
EndChar

StartChar: dcaron
Encoding: 297 271 228
Width: 559
Flags: HW
LayerCount: 2
Fore
SplineSet
241 -12 m 0
 199 -12 162 -1 129 21 c 0
 96 43 71 74 52 115 c 0
 33 156 24 204 24 260 c 0
 24 313 32 359 48 400 c 0
 64 440 87 472 116 495 c 0
 145 518 180 530 221 530 c 0
 247 530 269 526 287 519 c 0
 305 512 318 504 327 497 c 1
 327 762 l 1
 405 776 l 1
 405 15 l 1
 388 10 367 4 340 -2 c 0
 313 -9 280 -12 241 -12 c 0
476 559 m 1
 476 776 l 1
 554 776 l 1
 529 559 l 1
 476 559 l 1
241 61 m 0
 262 61 280 62 295 64 c 0
 310 67 320 69 327 72 c 1
 327 414 l 1
 318 425 305 435 287 444 c 0
 269 454 249 459 228 459 c 0
 199 459 176 450 158 432 c 0
 141 414 128 390 120 360 c 0
 111 329 107 295 107 258 c 0
 107 193 120 144 145 111 c 0
 170 78 202 61 241 61 c 0
EndSplineSet
Validated: 1
EndChar

StartChar: Dcroat
Encoding: 298 272 229
Width: 559
Flags: HW
LayerCount: 2
Fore
SplineSet
214 -5 m 0
 169 -5 124 1 80 12 c 1
 80 333 l 1
 20 333 l 1
 20 392 l 1
 80 392 l 1
 80 683 l 1
 100 688 121 692 142 696 c 0
 164 698 186 700 209 700 c 0
 265 700 316 688 362 666 c 0
 407 642 444 605 470 554 c 0
 498 502 511 433 511 347 c 0
 511 262 498 193 472 142 c 0
 446 90 410 52 366 30 c 0
 320 6 270 -5 214 -5 c 0
220 63 m 0
 263 63 300 72 331 90 c 0
 362 107 387 137 404 178 c 0
 421 220 430 276 430 347 c 0
 430 416 421 472 404 514 c 0
 387 555 362 585 329 604 c 0
 296 623 257 632 211 632 c 2
 184 632 l 2
 174 631 165 630 158 629 c 1
 158 392 l 1
 275 392 l 1
 275 333 l 1
 158 333 l 1
 158 67 l 1
 169 66 179 65 190 64 c 0
 201 63 211 63 220 63 c 0
EndSplineSet
Validated: 1
EndChar

StartChar: dcroat
Encoding: 299 273 230
Width: 559
Flags: HW
LayerCount: 2
Fore
SplineSet
286 -12 m 0
 240 -12 199 -1 164 21 c 0
 128 43 100 74 80 115 c 0
 59 156 49 204 49 260 c 0
 49 313 58 359 76 400 c 0
 93 440 118 472 151 495 c 0
 184 518 222 530 265 530 c 0
 294 530 318 526 338 519 c 0
 357 512 372 504 382 497 c 1
 382 619 l 1
 167 619 l 1
 167 681 l 1
 382 681 l 1
 382 762 l 1
 460 776 l 1
 460 681 l 1
 537 681 l 1
 537 619 l 1
 460 619 l 1
 460 15 l 1
 443 10 420 4 392 -2 c 0
 362 -9 327 -12 286 -12 c 0
286 61 m 0
 311 61 331 62 348 64 c 0
 364 67 375 69 382 72 c 1
 382 414 l 1
 372 425 357 435 336 444 c 0
 316 454 295 459 272 459 c 0
 239 459 212 450 191 432 c 0
 170 414 155 390 146 360 c 0
 136 329 131 295 131 258 c 0
 131 193 146 144 176 111 c 0
 205 78 242 61 286 61 c 0
EndSplineSet
Validated: 1
EndChar

StartChar: Eogonek
Encoding: 306 280 237
Width: 559
Flags: HW
LayerCount: 2
Fore
SplineSet
462 -186 m 0
 424 -186 396 -180 379 -167 c 0
 362 -154 353 -136 353 -111 c 0
 353 -94 358 -78 368 -62 c 0
 379 -47 390 -33 402 -22 c 0
 414 -11 422 -3 426 0 c 1
 111 0 l 1
 111 693 l 1
 491 693 l 1
 491 626 l 1
 190 626 l 1
 190 396 l 1
 454 396 l 1
 454 329 l 1
 190 329 l 1
 190 67 l 1
 515 67 l 1
 515 3 l 1
 505 -2 493 -10 480 -20 c 0
 466 -31 454 -42 444 -56 c 0
 433 -68 428 -81 428 -94 c 0
 428 -113 443 -123 472 -123 c 0
 475 -123 481 -122 488 -122 c 0
 495 -120 502 -119 509 -116 c 1
 515 -176 l 1
 502 -183 485 -186 462 -186 c 0
EndSplineSet
Validated: 1
EndChar

StartChar: eogonek
Encoding: 307 281 238
Width: 559
Flags: HW
LayerCount: 2
Fore
SplineSet
405 -186 m 0
 366 -186 338 -179 318 -166 c 0
 300 -153 290 -134 290 -109 c 0
 290 -95 294 -81 303 -67 c 0
 312 -53 321 -41 332 -30 c 0
 343 -19 351 -12 357 -9 c 1
 341 -11 326 -12 312 -12 c 0
 251 -12 202 0 162 24 c 0
 124 49 95 82 76 123 c 0
 57 164 48 210 48 259 c 0
 48 305 55 345 69 379 c 0
 83 413 102 441 126 464 c 0
 149 486 175 502 204 514 c 0
 233 524 262 530 292 530 c 0
 359 530 412 508 450 466 c 0
 488 422 507 356 507 267 c 2
 507 240 l 1
 126 240 l 1
 137 120 203 60 324 60 c 0
 358 60 386 63 409 68 c 0
 432 73 448 78 458 83 c 1
 469 16 l 1
 458 7 444 -3 428 -16 c 0
 413 -28 399 -41 388 -54 c 0
 376 -67 370 -81 370 -94 c 0
 370 -113 385 -123 414 -123 c 0
 417 -123 423 -122 430 -122 c 0
 437 -120 444 -119 451 -116 c 1
 458 -176 l 1
 445 -183 427 -186 405 -186 c 0
129 309 m 1
 424 309 l 1
 425 355 413 392 387 420 c 0
 361 449 329 463 290 463 c 0
 260 463 234 456 210 440 c 0
 188 426 169 406 155 382 c 0
 141 359 132 334 129 309 c 1
EndSplineSet
Validated: 33
EndChar

StartChar: uni0122
Encoding: 316 290 247
Width: 559
Flags: HW
LayerCount: 2
Fore
SplineSet
335 -15 m 0
 280 -15 227 -2 176 25 c 0
 124 52 82 95 49 154 c 0
 16 213 0 281 0 357 c 0
 0 434 19 499 57 554 c 0
 95 608 138 647 188 672 c 0
 236 697 287 709 338 709 c 0
 371 709 399 706 422 700 c 0
 444 694 462 687 475 680 c 0
 488 673 498 667 503 662 c 1
 475 595 l 1
 457 608 436 619 414 628 c 0
 390 637 366 641 340 641 c 0
 303 641 264 631 222 610 c 0
 181 589 144 558 113 515 c 0
 82 472 66 421 66 361 c 0
 66 306 82 251 114 198 c 0
 146 144 181 106 220 86 c 0
 259 64 300 54 345 54 c 0
 371 54 390 56 404 60 c 0
 416 64 425 68 430 71 c 1
 430 336 l 1
 508 336 l 1
 508 17 l 1
 495 12 472 6 442 -2 c 0
 410 -11 375 -15 335 -15 c 0
242 -190 m 0
 235 -190 229 -190 222 -189 c 0
 216 -188 208 -187 199 -184 c 1
 199 -134 l 1
 215 -134 l 2
 242 -134 258 -128 264 -116 c 0
 269 -105 272 -88 272 -67 c 2
 272 -50 l 1
 356 -50 l 1
 357 -57 358 -63 358 -69 c 0
 358 -114 347 -145 324 -163 c 0
 301 -181 274 -190 242 -190 c 0
EndSplineSet
Validated: 1
EndChar

StartChar: uni0123
Encoding: 317 291 248
Width: 559
Flags: HW
LayerCount: 2
Fore
SplineSet
237 -188 m 0
 204 -188 174 -186 148 -180 c 0
 120 -176 98 -170 80 -163 c 1
 93 -93 l 1
 112 -101 134 -107 160 -112 c 0
 184 -117 211 -119 239 -119 c 0
 294 -119 335 -108 360 -86 c 0
 386 -63 399 -25 399 28 c 2
 399 45 l 1
 391 40 375 34 352 26 c 0
 328 18 300 14 269 14 c 0
 230 14 194 23 160 40 c 0
 126 58 99 86 78 124 c 0
 57 161 47 209 47 268 c 0
 47 316 56 360 74 400 c 0
 92 439 118 471 154 494 c 0
 188 518 231 530 281 530 c 0
 329 530 369 527 402 520 c 0
 435 513 460 507 477 502 c 1
 477 33 l 2
 477 -46 457 -102 416 -136 c 0
 376 -171 316 -188 237 -188 c 0
271 87 m 0
 296 87 321 91 344 98 c 0
 367 105 386 114 399 124 c 1
 399 443 l 1
 390 446 377 450 358 452 c 0
 340 456 315 457 284 457 c 0
 235 457 196 439 170 404 c 0
 142 369 129 323 129 267 c 0
 129 224 136 190 150 163 c 0
 164 136 182 117 204 105 c 0
 225 93 248 87 271 87 c 0
235 612 m 1
 232 635 233 658 240 681 c 0
 246 704 257 725 274 742 c 0
 291 760 313 772 340 777 c 1
 368 739 l 1
 358 731 349 723 340 714 c 0
 332 706 326 695 321 682 c 0
 316 669 314 650 314 625 c 2
 314 612 l 1
 235 612 l 1
EndSplineSet
Validated: 33
EndChar

StartChar: hcircumflex
Encoding: 319 293 250
Width: 559
Flags: HW
LayerCount: 2
Fore
SplineSet
70 800 m 1
 45 838 l 1
 161 931 l 1
 278 838 l 1
 254 800 l 1
 161 861 l 1
 70 800 l 1
83 0 m 1
 83 761 l 1
 161 775 l 1
 161 509 l 1
 196 522 233 529 274 529 c 0
 327 529 369 519 399 500 c 0
 429 480 450 452 462 416 c 0
 475 381 481 339 481 292 c 2
 481 0 l 1
 403 0 l 1
 403 271 l 2
 403 318 399 354 390 382 c 0
 382 408 368 428 348 440 c 0
 329 452 302 458 267 458 c 0
 246 458 226 456 205 451 c 0
 184 446 170 442 161 439 c 1
 161 0 l 1
 83 0 l 1
EndSplineSet
Validated: 1
EndChar

StartChar: Hbar
Encoding: 320 294 251
Width: 559
Flags: HW
LayerCount: 2
Fore
SplineSet
83 0 m 1
 83 531 l 1
 20 531 l 1
 20 586 l 1
 83 586 l 1
 83 693 l 1
 161 693 l 1
 161 586 l 1
 399 586 l 1
 399 693 l 1
 477 693 l 1
 477 586 l 1
 540 586 l 1
 540 531 l 1
 477 531 l 1
 477 0 l 1
 399 0 l 1
 399 335 l 1
 161 335 l 1
 161 0 l 1
 83 0 l 1
161 402 m 1
 399 402 l 1
 399 531 l 1
 161 531 l 1
 161 402 l 1
EndSplineSet
Validated: 1
EndChar

StartChar: hbar
Encoding: 321 295 252
Width: 559
Flags: HW
LayerCount: 2
Fore
SplineSet
98 0 m 1
 98 619 l 1
 20 619 l 1
 20 681 l 1
 98 681 l 1
 98 762 l 1
 176 776 l 1
 176 681 l 1
 370 681 l 1
 370 619 l 1
 176 619 l 1
 176 509 l 1
 191 516 209 521 228 524 c 0
 248 527 267 529 285 529 c 0
 334 529 373 519 402 500 c 0
 430 480 450 452 462 416 c 0
 475 381 481 339 481 292 c 2
 481 0 l 1
 403 0 l 1
 403 271 l 2
 403 340 394 389 374 416 c 0
 356 444 323 458 278 458 c 0
 258 458 238 456 218 451 c 0
 198 446 184 442 176 439 c 1
 176 0 l 1
 98 0 l 1
EndSplineSet
Validated: 1
EndChar

StartChar: Iogonek
Encoding: 328 302 259
Width: 559
Flags: HW
LayerCount: 2
Fore
SplineSet
274 -186 m 0
 236 -186 208 -179 190 -166 c 0
 172 -153 163 -134 163 -109 c 0
 163 -95 168 -80 176 -65 c 0
 186 -50 195 -36 206 -24 c 0
 217 -12 225 -4 231 0 c 1
 112 0 l 1
 112 67 l 1
 241 67 l 1
 241 626 l 1
 112 626 l 1
 112 693 l 1
 448 693 l 1
 448 626 l 1
 319 626 l 1
 319 67 l 1
 448 67 l 1
 448 0 l 1
 318 0 l 1
 312 -5 303 -12 290 -24 c 0
 278 -34 267 -46 256 -59 c 0
 246 -72 241 -83 241 -94 c 0
 241 -113 255 -123 284 -123 c 0
 288 -123 294 -122 301 -122 c 0
 308 -120 315 -119 322 -116 c 1
 329 -176 l 1
 316 -183 297 -186 274 -186 c 0
EndSplineSet
Validated: 1
EndChar

StartChar: iogonek
Encoding: 329 303 260
Width: 559
Flags: HW
LayerCount: 2
Fore
SplineSet
235 603 m 0
 216 603 200 610 187 622 c 0
 174 636 167 653 167 674 c 0
 167 696 174 713 187 726 c 0
 200 739 216 745 235 745 c 0
 254 745 270 739 283 726 c 0
 296 713 302 696 302 674 c 0
 302 653 296 636 283 622 c 0
 270 610 254 603 235 603 c 0
429 -186 m 0
 389 -186 361 -179 344 -164 c 0
 328 -150 320 -132 320 -109 c 0
 320 -94 324 -79 334 -65 c 0
 342 -51 352 -39 362 -30 c 0
 373 -20 380 -14 385 -12 c 1
 342 -12 308 -4 284 10 c 0
 260 26 243 48 234 79 c 0
 224 110 219 148 219 195 c 2
 219 451 l 1
 66 451 l 1
 66 518 l 1
 295 518 l 1
 295 200 l 2
 295 162 298 133 306 112 c 0
 312 92 323 78 336 71 c 0
 350 64 366 60 385 60 c 0
 409 60 430 63 448 69 c 0
 467 75 480 80 487 84 c 1
 498 16 l 1
 467 -5 442 -25 425 -45 c 0
 408 -65 399 -81 399 -94 c 0
 399 -113 413 -123 442 -123 c 0
 446 -123 452 -122 460 -122 c 0
 468 -120 475 -119 480 -116 c 1
 487 -176 l 1
 475 -183 456 -186 429 -186 c 0
EndSplineSet
Validated: 1
EndChar

StartChar: i.locl
Encoding: 331 -1 262
Width: 559
Flags: HW
LayerCount: 2
Fore
SplineSet
382 -12 m 0
 339 -12 306 -4 282 11 c 0
 259 26 242 49 233 80 c 0
 224 110 219 148 219 195 c 2
 219 451 l 1
 66 451 l 1
 66 518 l 1
 295 518 l 1
 295 200 l 2
 295 162 298 133 306 112 c 0
 312 92 323 78 336 71 c 0
 350 64 366 60 385 60 c 0
 409 60 430 63 448 69 c 0
 467 75 480 80 487 84 c 1
 498 16 l 2
 497 15 490 12 480 7 c 0
 468 2 454 -2 438 -6 c 0
 420 -10 402 -12 382 -12 c 0
235 613 m 0
 216 613 200 620 187 632 c 0
 174 646 167 663 167 684 c 0
 167 706 174 723 187 736 c 0
 200 749 216 755 235 755 c 0
 254 755 270 749 283 736 c 0
 296 723 302 706 302 684 c 0
 302 663 296 646 283 632 c 0
 270 620 254 613 235 613 c 0
EndSplineSet
Validated: 1
EndChar

StartChar: IJ
Encoding: 332 306 263
Width: 559
Flags: HW
LayerCount: 2
Fore
SplineSet
347 -15 m 0
 320 -15 294 -10 267 0 c 0
 240 11 218 25 199 44 c 1
 231 108 l 1
 244 93 261 80 280 70 c 0
 300 58 323 53 350 53 c 0
 381 53 405 63 422 84 c 0
 438 105 446 138 446 183 c 2
 446 693 l 1
 525 693 l 1
 525 185 l 2
 525 118 510 68 478 34 c 0
 448 2 404 -15 347 -15 c 0
53 0 m 1
 53 693 l 1
 131 693 l 1
 131 0 l 1
 53 0 l 1
EndSplineSet
Validated: 1
EndChar

StartChar: ij
Encoding: 333 307 264
Width: 559
Flags: HW
LayerCount: 2
Fore
SplineSet
172 612 m 0
 155 612 141 618 129 629 c 0
 117 640 111 655 111 674 c 0
 111 693 117 708 129 719 c 0
 141 730 155 736 172 736 c 0
 189 736 204 730 215 719 c 0
 226 708 232 693 232 674 c 0
 232 655 226 640 215 629 c 0
 204 618 189 612 172 612 c 0
390 612 m 0
 373 612 359 618 348 629 c 0
 336 640 330 655 330 674 c 0
 330 693 336 708 348 719 c 0
 359 730 373 736 390 736 c 0
 407 736 422 730 434 719 c 0
 445 708 451 693 451 674 c 0
 451 655 445 640 434 629 c 0
 422 618 407 612 390 612 c 0
254 -188 m 0
 247 -188 237 -187 226 -184 c 0
 215 -182 206 -180 200 -177 c 1
 210 -113 l 1
 215 -114 222 -116 231 -118 c 0
 240 -119 247 -120 253 -120 c 0
 288 -120 314 -109 328 -88 c 0
 344 -66 351 -34 351 7 c 2
 351 518 l 1
 429 518 l 1
 429 7 l 2
 429 -58 414 -107 384 -140 c 0
 354 -172 311 -188 254 -188 c 0
133 0 m 1
 133 518 l 1
 211 518 l 1
 211 0 l 1
 133 0 l 1
EndSplineSet
Validated: 1
EndChar

StartChar: jcircumflex
Encoding: 335 309 266
Width: 559
Flags: HW
LayerCount: 2
Fore
SplineSet
247 -190 m 0
 221 -190 194 -187 166 -182 c 0
 137 -177 111 -168 88 -156 c 1
 111 -90 l 1
 128 -99 148 -106 170 -112 c 0
 193 -117 214 -120 234 -120 c 0
 267 -120 294 -112 314 -96 c 0
 336 -80 346 -49 346 -3 c 2
 346 451 l 1
 137 451 l 1
 137 519 l 1
 425 519 l 1
 425 -3 l 2
 425 -48 416 -85 400 -112 c 0
 382 -140 360 -160 334 -172 c 0
 306 -184 278 -190 247 -190 c 0
203 585 m 1
 170 623 l 1
 299 768 l 1
 430 623 l 1
 396 585 l 1
 299 677 l 1
 203 585 l 1
EndSplineSet
Validated: 1
EndChar

StartChar: uni0136
Encoding: 336 310 267
Width: 559
Flags: HW
LayerCount: 2
Fore
SplineSet
0 2 m 1
 0 695 l 1
 78 695 l 1
 78 380 l 1
 131 432 194 485 268 539 c 0
 341 593 397 644 436 693 c 1
 527 693 l 1
 486 635 431 580 360 528 c 0
 289 477 228 424 176 371 c 1
 209 345 256 313 318 274 c 0
 381 236 429 194 464 148 c 0
 499 101 528 52 551 0 c 1
 462 0 l 1
 419 75 359 141 281 200 c 0
 203 258 135 304 78 339 c 1
 78 2 l 1
 0 2 l 1
242 -190 m 0
 235 -190 229 -190 222 -189 c 0
 216 -188 208 -187 199 -184 c 1
 199 -134 l 1
 215 -134 l 2
 242 -134 258 -128 264 -116 c 0
 269 -105 272 -88 272 -67 c 2
 272 -50 l 1
 356 -50 l 1
 357 -57 358 -63 358 -69 c 0
 358 -114 347 -145 324 -163 c 0
 301 -181 274 -190 242 -190 c 0
EndSplineSet
Validated: 1
EndChar

StartChar: uni0137
Encoding: 337 311 268
Width: 559
Flags: HW
LayerCount: 2
Fore
SplineSet
83 0 m 1
 83 762 l 1
 161 776 l 1
 161 297 l 1
 206 334 252 370 298 406 c 0
 343 440 384 478 421 518 c 1
 512 518 l 1
 479 479 438 440 392 400 c 0
 344 361 298 322 251 283 c 1
 271 269 294 251 320 229 c 0
 346 207 373 183 400 156 c 0
 427 130 453 104 476 76 c 0
 499 50 518 24 532 0 c 1
 437 0 l 1
 422 25 403 49 380 74 c 0
 357 98 333 121 306 144 c 0
 280 166 254 186 229 204 c 0
 204 223 181 238 161 250 c 1
 161 0 l 1
 83 0 l 1
242 -190 m 0
 235 -190 229 -190 222 -189 c 0
 216 -188 208 -187 199 -184 c 1
 199 -134 l 1
 215 -134 l 2
 242 -134 258 -128 264 -116 c 0
 269 -105 272 -88 272 -67 c 2
 272 -50 l 1
 356 -50 l 1
 357 -57 358 -63 358 -69 c 0
 358 -114 347 -145 324 -163 c 0
 301 -181 274 -190 242 -190 c 0
EndSplineSet
Validated: 1
EndChar

StartChar: kgreenlandic.case
Encoding: 338 -1 269
Width: 559
Flags: HW
LayerCount: 2
Fore
SplineSet
434 528 m 1
 435 535 435 541 435 546 c 0
 435 552 435 558 436 563 c 0
 439 593 447 626 460 661 c 0
 473 696 488 728 505 756 c 1
 575 731 l 1
 561 704 550 676 543 648 c 0
 536 618 532 592 532 569 c 2
 532 550 l 2
 533 542 533 535 534 528 c 1
 434 528 l 1
79 0 m 1
 79 693 l 1
 160 693 l 1
 160 378 l 1
 193 430 225 483 256 538 c 0
 287 593 315 644 340 693 c 1
 434 693 l 1
 413 652 392 614 372 579 c 0
 352 544 332 510 310 478 c 0
 290 444 267 409 242 370 c 1
 272 341 299 310 322 276 c 0
 345 241 368 202 390 157 c 0
 411 112 434 60 458 0 c 1
 366 0 l 1
 337 75 306 141 272 198 c 0
 239 256 201 302 160 337 c 1
 160 0 l 1
 79 0 l 1
EndSplineSet
Validated: 1
EndChar

StartChar: kgreenlandic
Encoding: 339 312 270
Width: 559
Flags: HW
LayerCount: 2
Fore
SplineSet
83 0 m 1
 83 519 l 1
 161 518 l 1
 161 297 l 1
 206 334 252 370 298 406 c 0
 343 440 384 478 421 518 c 1
 512 518 l 1
 479 479 438 440 392 400 c 0
 344 361 298 322 251 283 c 1
 271 269 294 251 320 229 c 0
 346 207 373 183 400 156 c 0
 427 130 453 104 476 76 c 0
 499 50 518 24 532 0 c 1
 437 0 l 1
 422 25 403 49 380 74 c 0
 357 98 333 121 306 144 c 0
 280 166 254 186 229 204 c 0
 204 223 181 238 161 250 c 1
 161 0 l 1
 83 0 l 1
EndSplineSet
Validated: 1
EndChar

StartChar: lacute
Encoding: 341 314 272
Width: 559
Flags: HW
LayerCount: 2
Fore
SplineSet
202 807 m 1
 184 858 l 1
 329 931 l 1
 355 866 l 1
 202 807 l 1
382 -12 m 0
 338 -12 304 -4 281 12 c 0
 258 27 242 50 232 81 c 0
 224 112 219 150 219 197 c 2
 219 703 l 1
 66 703 l 1
 66 770 l 1
 295 770 l 1
 295 200 l 2
 295 163 298 134 304 114 c 0
 311 93 320 79 333 72 c 0
 346 64 362 60 382 60 c 0
 403 60 422 62 440 67 c 0
 459 72 474 77 487 84 c 1
 498 16 l 1
 489 11 473 5 450 -2 c 0
 427 -9 405 -12 382 -12 c 0
EndSplineSet
Validated: 1
EndChar

StartChar: uni013B
Encoding: 342 315 273
Width: 559
Flags: HW
LayerCount: 2
Fore
SplineSet
0 0 m 1
 0 693 l 1
 78 693 l 1
 78 67 l 1
 515 67 l 1
 515 0 l 1
 0 0 l 1
242 -190 m 0
 235 -190 229 -190 222 -189 c 0
 216 -188 208 -187 199 -184 c 1
 199 -134 l 1
 215 -134 l 2
 242 -134 258 -128 264 -116 c 0
 269 -105 272 -88 272 -67 c 2
 272 -50 l 1
 356 -50 l 1
 357 -57 358 -63 358 -69 c 0
 358 -114 347 -145 324 -163 c 0
 301 -181 274 -190 242 -190 c 0
EndSplineSet
Validated: 1
EndChar

StartChar: uni013C
Encoding: 343 316 274
Width: 559
Flags: HW
LayerCount: 2
Fore
SplineSet
382 -12 m 0
 338 -12 304 -4 281 12 c 0
 258 27 242 50 232 81 c 0
 224 112 219 150 219 197 c 2
 219 703 l 1
 66 703 l 1
 66 771 l 1
 295 771 l 1
 295 200 l 2
 295 163 298 134 304 114 c 0
 311 93 320 79 333 72 c 0
 346 64 362 60 382 60 c 0
 403 60 422 62 440 67 c 0
 459 72 474 77 487 84 c 1
 498 16 l 1
 489 11 473 5 450 -2 c 0
 427 -9 405 -12 382 -12 c 0
242 -190 m 0
 235 -190 229 -190 222 -189 c 0
 216 -188 208 -187 199 -184 c 1
 199 -134 l 1
 215 -134 l 2
 242 -134 258 -128 264 -116 c 0
 269 -105 272 -88 272 -67 c 2
 272 -50 l 1
 356 -50 l 1
 357 -57 358 -63 358 -69 c 0
 358 -114 347 -145 324 -163 c 0
 301 -181 274 -190 242 -190 c 0
EndSplineSet
Validated: 1
EndChar

StartChar: Lcaron
Encoding: 344 317 275
Width: 559
Flags: HW
LayerCount: 2
Fore
SplineSet
0 0 m 1
 0 693 l 1
 78 693 l 1
 78 67 l 1
 515 67 l 1
 515 0 l 1
 0 0 l 1
274 477 m 1
 274 694 l 1
 353 694 l 1
 328 477 l 1
 274 477 l 1
EndSplineSet
Validated: 1
EndChar

StartChar: lcaron
Encoding: 345 318 276
Width: 559
Flags: HW
LayerCount: 2
Fore
SplineSet
382 -12 m 0
 338 -12 304 -4 281 12 c 0
 258 27 242 50 232 81 c 0
 224 112 219 150 219 197 c 2
 219 703 l 1
 66 703 l 1
 66 771 l 1
 295 771 l 1
 295 200 l 2
 295 163 298 134 304 114 c 0
 311 93 320 79 333 72 c 0
 346 64 362 60 382 60 c 0
 403 60 422 62 440 67 c 0
 459 72 474 77 487 84 c 1
 498 16 l 1
 489 11 473 5 450 -2 c 0
 427 -9 405 -12 382 -12 c 0
373 559 m 1
 373 776 l 1
 452 776 l 1
 427 559 l 1
 373 559 l 1
EndSplineSet
Validated: 1
EndChar

StartChar: Lslash
Encoding: 348 321 279
Width: 559
Flags: HW
LayerCount: 2
Fore
SplineSet
135 0 m 1
 135 296 l 1
 58 256 l 1
 29 311 l 1
 135 366 l 1
 135 693 l 1
 214 693 l 1
 214 407 l 1
 333 469 l 1
 360 413 l 1
 214 337 l 1
 214 67 l 1
 515 67 l 1
 515 0 l 1
 135 0 l 1
EndSplineSet
Validated: 1
EndChar

StartChar: lslash
Encoding: 349 322 280
Width: 559
Flags: HW
LayerCount: 2
Fore
SplineSet
382 -12 m 0
 338 -12 304 -4 281 12 c 0
 258 27 242 50 232 81 c 0
 224 112 219 150 219 197 c 2
 219 344 l 1
 141 304 l 1
 113 356 l 1
 219 410 l 1
 219 703 l 1
 66 703 l 1
 66 771 l 1
 295 771 l 1
 295 452 l 1
 389 500 l 1
 415 447 l 1
 295 385 l 1
 295 200 l 2
 295 163 298 134 304 114 c 0
 311 93 320 79 333 72 c 0
 346 64 362 60 382 60 c 0
 403 60 422 62 440 67 c 0
 459 72 474 77 487 84 c 1
 498 16 l 1
 489 11 473 5 450 -2 c 0
 427 -9 405 -12 382 -12 c 0
EndSplineSet
Validated: 1
EndChar

StartChar: uni0145
Encoding: 352 325 283
Width: 559
Flags: HW
LayerCount: 2
Fore
SplineSet
0 1 m 1
 0 694 l 1
 89 694 l 1
 140 636 178 589 201 553 c 0
 232 508 262 462 293 416 c 1
 325 356 l 1
 350 292 363 259 364 256 c 0
 379 232 398 189 423 128 c 1
 423 693 l 1
 495 693 l 1
 495 0 l 1
 406 0 l 1
 351 121 323 182 322 182 c 0
 316 191 290 238 245 322 c 0
 213 382 184 428 160 459 c 0
 116 511 87 552 72 582 c 1
 72 1 l 1
 0 1 l 1
242 -190 m 0
 235 -190 229 -190 222 -189 c 0
 216 -188 208 -187 199 -184 c 1
 199 -134 l 1
 215 -134 l 2
 242 -134 258 -128 264 -116 c 0
 269 -105 272 -88 272 -67 c 2
 272 -50 l 1
 356 -50 l 1
 357 -57 358 -63 358 -69 c 0
 358 -114 347 -145 324 -163 c 0
 301 -181 274 -190 242 -190 c 0
EndSplineSet
Validated: 1
EndChar

StartChar: uni0146
Encoding: 353 326 284
Width: 559
Flags: HW
LayerCount: 2
Fore
SplineSet
83 0 m 1
 83 504 l 1
 118 513 152 520 185 524 c 0
 218 527 246 529 271 529 c 0
 314 529 352 522 383 508 c 0
 414 493 438 470 456 438 c 0
 472 405 481 362 481 307 c 2
 481 0 l 1
 403 0 l 1
 403 291 l 2
 403 339 397 375 385 398 c 0
 373 422 357 438 336 446 c 0
 316 454 293 458 268 458 c 0
 233 458 198 454 161 447 c 1
 161 0 l 1
 83 0 l 1
242 -190 m 0
 235 -190 229 -190 222 -189 c 0
 216 -188 208 -187 199 -184 c 1
 199 -134 l 1
 215 -134 l 2
 242 -134 258 -128 264 -116 c 0
 269 -105 272 -88 272 -67 c 2
 272 -50 l 1
 356 -50 l 1
 357 -57 358 -63 358 -69 c 0
 358 -114 347 -145 324 -163 c 0
 301 -181 274 -190 242 -190 c 0
EndSplineSet
Validated: 1
EndChar

StartChar: napostrophe.case
Encoding: 356 -1 287
Width: 559
Flags: HW
LayerCount: 2
Fore
SplineSet
97 573 m 1
 39 597 l 1
 62 644 74 692 74 740 c 0
 74 755 73 767 72 776 c 1
 159 776 l 1
 160 739 156 705 145 674 c 0
 134 642 118 608 97 573 c 1
230 0 m 1
 230 693 l 1
 314 693 l 1
 335 614 356 534 376 456 c 0
 397 376 412 304 423 239 c 1
 423 693 l 1
 495 693 l 1
 495 0 l 1
 411 0 l 1
 398 69 381 146 361 228 c 0
 341 312 321 396 302 482 c 1
 302 0 l 1
 230 0 l 1
EndSplineSet
Validated: 33
EndChar

StartChar: napostrophe
Encoding: 357 329 288
Width: 559
Flags: HW
LayerCount: 2
Fore
SplineSet
77 0 m 1
 77 504 l 1
 112 513 146 520 179 524 c 0
 212 527 240 529 265 529 c 0
 308 529 346 522 377 508 c 0
 408 493 432 470 450 438 c 0
 466 405 475 362 475 307 c 2
 475 0 l 1
 397 0 l 1
 397 291 l 2
 397 339 391 375 379 398 c 0
 367 422 351 438 330 446 c 0
 310 454 287 458 262 458 c 0
 227 458 192 454 155 447 c 1
 155 0 l 1
 77 0 l 1
77 574 m 1
 26 596 l 1
 49 644 60 692 60 740 c 0
 60 755 59 767 58 776 c 1
 139 776 l 1
 139 758 l 2
 139 754 139 748 138 742 c 0
 135 711 128 681 117 652 c 0
 106 624 92 598 77 574 c 1
EndSplineSet
Validated: 1
EndChar

StartChar: Eng
Encoding: 358 330 289
Width: 559
Flags: HW
LayerCount: 2
Fore
SplineSet
368 -187 m 0
 358 -187 347 -186 336 -184 c 0
 324 -182 315 -181 309 -180 c 1
 315 -120 l 1
 320 -121 328 -122 338 -123 c 0
 347 -124 354 -124 359 -124 c 0
 384 -124 401 -115 410 -98 c 0
 419 -80 423 -55 423 -23 c 2
 423 21 l 1
 408 53 390 91 368 136 c 0
 346 181 322 229 296 280 c 0
 270 331 243 383 216 434 c 0
 189 486 162 535 137 581 c 1
 137 0 l 1
 65 0 l 1
 65 693 l 1
 154 693 l 1
 175 656 197 614 222 569 c 0
 247 524 272 477 296 430 c 0
 322 382 345 335 367 290 c 0
 389 245 408 203 423 166 c 1
 423 693 l 1
 495 693 l 1
 495 -3 l 2
 495 -38 493 -69 489 -97 c 0
 485 -125 474 -147 456 -163 c 0
 439 -179 409 -187 368 -187 c 0
EndSplineSet
Validated: 1
EndChar

StartChar: eng
Encoding: 359 331 290
Width: 559
Flags: HW
LayerCount: 2
Fore
SplineSet
341 -188 m 0
 332 -188 321 -187 310 -185 c 0
 299 -183 290 -182 285 -181 c 1
 291 -118 l 1
 296 -120 304 -121 313 -122 c 2
 334 -122 l 2
 360 -122 378 -113 388 -96 c 0
 398 -78 403 -53 403 -21 c 2
 403 291 l 2
 403 339 397 375 385 398 c 0
 373 422 357 438 336 446 c 0
 316 454 293 458 268 458 c 0
 233 458 198 454 161 447 c 1
 161 0 l 1
 83 0 l 1
 83 504 l 1
 118 513 152 520 185 524 c 0
 218 527 246 529 271 529 c 0
 314 529 352 522 383 508 c 0
 414 493 438 470 456 438 c 0
 472 405 481 362 481 307 c 2
 481 -1 l 2
 481 -41 478 -75 471 -103 c 0
 464 -131 451 -152 431 -166 c 0
 411 -181 381 -188 341 -188 c 0
EndSplineSet
Validated: 1
EndChar

StartChar: uni0156
Encoding: 368 342 299
Width: 559
Flags: HW
LayerCount: 2
Fore
SplineSet
0 -1 m 1
 0 682 l 1
 27 690 54 694 80 696 c 0
 169 698 218 700 228 700 c 0
 311 700 374 682 415 645 c 0
 456 608 477 555 477 484 c 0
 477 441 465 403 440 370 c 0
 415 338 384 313 347 294 c 1
 362 271 378 244 398 212 c 0
 416 180 436 146 456 110 c 0
 475 73 493 37 510 0 c 1
 425 0 l 1
 409 37 392 74 374 110 c 0
 357 146 339 179 321 208 c 0
 303 238 286 262 270 280 c 1
 255 283 247 282 247 279 c 0
 247 278 240 278 226 278 c 2
 79 277 l 1
 79 -1 l 1
 0 -1 l 1
79 342 m 1
 210 343 l 2
 229 343 261 347 307 354 c 0
 332 357 354 371 373 396 c 0
 389 416 397 448 397 489 c 0
 397 529 390 559 374 580 c 0
 360 600 339 614 313 622 c 0
 287 630 254 634 213 633 c 0
 172 632 140 632 116 630 c 0
 98 630 86 629 79 628 c 1
 79 342 l 1
242 -190 m 0
 235 -190 229 -190 222 -189 c 0
 216 -188 208 -187 199 -184 c 1
 199 -134 l 1
 215 -134 l 2
 242 -134 258 -128 264 -116 c 0
 269 -105 272 -88 272 -67 c 2
 272 -50 l 1
 356 -50 l 1
 357 -57 358 -63 358 -69 c 0
 358 -114 347 -145 324 -163 c 0
 301 -181 274 -190 242 -190 c 0
EndSplineSet
Validated: 33
EndChar

StartChar: uni0157
Encoding: 369 343 300
Width: 559
Flags: HW
LayerCount: 2
Fore
SplineSet
126 0 m 1
 126 492 l 1
 164 504 202 513 240 520 c 0
 279 527 316 530 352 530 c 0
 378 530 400 529 418 528 c 0
 436 526 458 522 484 517 c 1
 470 450 l 1
 445 457 424 462 408 462 c 0
 392 464 373 464 350 464 c 0
 301 464 252 457 204 443 c 1
 204 0 l 1
 126 0 l 1
97 -190 m 0
 90 -190 84 -190 78 -189 c 0
 71 -188 63 -187 54 -184 c 1
 54 -134 l 1
 70 -134 l 2
 97 -134 113 -128 118 -116 c 0
 124 -105 127 -88 127 -67 c 2
 127 -50 l 1
 211 -50 l 1
 212 -57 213 -63 213 -69 c 0
 213 -114 202 -145 179 -163 c 0
 156 -181 129 -190 97 -190 c 0
EndSplineSet
Validated: 1
EndChar

StartChar: Scedilla
Encoding: 376 350 307
Width: 559
Flags: HW
LayerCount: 2
Fore
SplineSet
256 -189 m 0
 238 -189 222 -188 207 -184 c 0
 192 -182 182 -178 175 -175 c 1
 184 -122 l 1
 193 -125 202 -127 210 -129 c 0
 218 -131 227 -132 238 -132 c 0
 261 -132 272 -125 272 -111 c 0
 272 -97 258 -86 229 -77 c 1
 225 -75 l 1
 228 -68 232 -58 238 -46 c 0
 242 -35 248 -25 253 -16 c 1
 206 -14 167 -7 134 4 c 0
 101 15 79 25 67 33 c 1
 92 98 l 1
 105 91 126 82 156 70 c 0
 185 60 221 54 263 54 c 0
 310 54 347 63 374 82 c 0
 402 100 416 128 416 167 c 0
 416 199 408 225 392 244 c 0
 376 264 356 281 330 294 c 0
 306 307 279 319 252 330 c 0
 221 343 193 357 168 374 c 0
 143 390 122 410 108 434 c 0
 92 457 85 486 85 520 c 0
 85 579 104 626 140 659 c 0
 178 692 229 709 296 709 c 0
 333 709 368 705 400 696 c 0
 433 688 456 678 470 667 c 1
 444 599 l 1
 429 608 408 617 382 626 c 0
 354 635 325 640 293 640 c 0
 271 640 250 636 230 628 c 0
 211 620 195 608 182 592 c 0
 169 577 163 557 163 534 c 0
 163 506 169 483 181 466 c 0
 193 449 210 434 232 422 c 0
 253 410 278 398 305 385 c 0
 345 368 379 350 407 333 c 0
 435 316 456 294 471 270 c 0
 486 244 493 211 493 170 c 0
 493 117 477 76 445 44 c 0
 413 14 368 -5 310 -12 c 1
 307 -17 305 -21 303 -26 c 0
 301 -31 299 -35 296 -40 c 1
 313 -49 326 -59 334 -70 c 0
 343 -80 347 -97 347 -120 c 0
 347 -126 345 -134 341 -146 c 0
 337 -156 328 -166 316 -176 c 0
 302 -184 283 -189 256 -189 c 0
EndSplineSet
Validated: 1
EndChar

StartChar: scedilla
Encoding: 377 351 308
Width: 559
Flags: HW
LayerCount: 2
Fore
SplineSet
252 -189 m 0
 234 -189 218 -188 204 -184 c 0
 189 -182 178 -178 171 -175 c 1
 181 -122 l 1
 190 -125 199 -127 206 -129 c 0
 214 -131 224 -132 235 -132 c 0
 257 -132 268 -125 268 -111 c 0
 268 -97 253 -85 222 -75 c 1
 225 -67 230 -57 235 -46 c 0
 240 -34 245 -23 250 -12 c 1
 219 -11 190 -9 162 -4 c 0
 133 1 105 9 78 22 c 1
 95 96 l 1
 121 83 148 73 178 66 c 0
 206 59 238 55 271 55 c 0
 359 55 403 79 403 127 c 0
 403 144 397 159 384 170 c 0
 372 182 356 192 336 202 c 0
 317 210 296 219 273 227 c 0
 244 238 215 249 186 262 c 0
 157 274 134 290 115 310 c 0
 96 330 87 356 87 388 c 0
 87 429 104 463 138 490 c 0
 171 517 223 530 294 530 c 0
 321 530 350 528 380 524 c 0
 410 520 435 515 456 510 c 1
 442 437 l 1
 434 442 422 447 406 450 c 0
 389 454 371 457 352 460 c 0
 333 462 314 463 295 463 c 0
 252 463 220 457 198 446 c 0
 175 435 164 416 164 389 c 0
 164 374 171 361 184 350 c 0
 197 339 215 330 236 322 c 0
 257 313 280 304 304 295 c 0
 333 284 361 272 388 259 c 0
 415 246 438 229 456 209 c 0
 474 189 483 164 483 133 c 0
 483 46 425 -1 308 -10 c 1
 305 -15 303 -20 300 -24 c 0
 297 -30 295 -35 293 -40 c 1
 310 -49 323 -59 331 -70 c 0
 339 -80 343 -97 343 -120 c 0
 343 -126 341 -134 337 -146 c 0
 333 -156 324 -166 312 -176 c 0
 298 -184 279 -189 252 -189 c 0
EndSplineSet
Validated: 1
EndChar

StartChar: tcaron
Encoding: 379 357 310
Width: 559
Flags: HW
LayerCount: 2
Fore
SplineSet
373 -12 m 0
 319 -12 279 -3 252 14 c 0
 225 32 208 57 199 89 c 0
 190 121 186 158 186 201 c 2
 186 451 l 1
 80 451 l 1
 80 518 l 1
 186 518 l 1
 186 667 l 1
 264 681 l 1
 264 518 l 1
 484 518 l 1
 484 451 l 1
 264 451 l 1
 264 200 l 2
 264 163 268 135 275 114 c 0
 282 94 294 80 312 72 c 0
 328 64 351 60 380 60 c 0
 407 60 428 62 444 68 c 0
 459 72 473 78 485 83 c 1
 497 17 l 1
 492 14 478 9 457 0 c 0
 436 -8 408 -12 373 -12 c 0
347 581 m 1
 347 776 l 1
 427 776 l 1
 401 581 l 1
 347 581 l 1
EndSplineSet
Validated: 1
EndChar

StartChar: Tbar
Encoding: 380 358 311
Width: 559
Flags: HW
LayerCount: 2
Fore
SplineSet
241 0 m 1
 241 335 l 1
 110 335 l 1
 110 395 l 1
 241 395 l 1
 241 626 l 1
 49 626 l 1
 49 693 l 1
 511 693 l 1
 511 626 l 1
 319 626 l 1
 319 395 l 1
 448 395 l 1
 448 335 l 1
 319 335 l 1
 319 0 l 1
 241 0 l 1
EndSplineSet
Validated: 1
EndChar

StartChar: tbar
Encoding: 381 359 312
Width: 559
Flags: HW
LayerCount: 2
Fore
SplineSet
373 -12 m 0
 319 -12 279 -3 252 14 c 0
 225 32 208 57 199 89 c 0
 190 121 186 158 186 201 c 2
 186 238 l 1
 80 238 l 1
 80 301 l 1
 186 301 l 1
 186 451 l 1
 80 451 l 1
 80 518 l 1
 186 518 l 1
 186 667 l 1
 264 681 l 1
 264 518 l 1
 484 518 l 1
 484 451 l 1
 264 451 l 1
 264 301 l 1
 485 301 l 1
 485 238 l 1
 264 238 l 1
 264 200 l 2
 264 163 268 135 275 114 c 0
 282 94 294 80 312 72 c 0
 328 64 351 60 380 60 c 0
 407 60 428 62 444 68 c 0
 459 72 473 78 485 83 c 1
 497 17 l 1
 492 14 478 9 457 0 c 0
 436 -8 408 -12 373 -12 c 0
EndSplineSet
Validated: 1
EndChar

StartChar: Uring
Encoding: 388 366 319
Width: 559
Flags: HW
LayerCount: 2
Fore
SplineSet
280 734 m 0
 253 734 230 743 211 761 c 0
 192 779 182 803 182 833 c 0
 182 862 192 886 211 904 c 0
 230 923 253 932 280 932 c 0
 307 932 330 923 350 904 c 0
 369 886 379 862 379 833 c 0
 379 803 369 779 350 761 c 0
 330 743 307 734 280 734 c 0
280 775 m 0
 295 775 308 780 319 790 c 0
 330 800 335 814 335 833 c 0
 335 850 330 864 319 875 c 0
 308 886 295 891 280 891 c 0
 265 891 252 886 242 875 c 0
 230 864 225 850 225 833 c 0
 225 814 230 800 242 790 c 0
 252 780 265 775 280 775 c 0
281 -15 m 0
 202 -15 144 8 110 52 c 0
 74 98 57 158 57 235 c 2
 57 700 l 1
 135 700 l 1
 135 246 l 2
 135 197 141 158 154 130 c 0
 166 102 183 82 205 70 c 0
 227 59 252 53 280 53 c 0
 309 53 334 59 356 70 c 0
 377 81 394 101 406 129 c 0
 419 157 425 196 425 245 c 2
 425 700 l 1
 503 700 l 1
 503 235 l 2
 503 158 486 98 452 52 c 0
 417 8 360 -15 281 -15 c 0
EndSplineSet
Validated: 1
EndChar

StartChar: Uogonek
Encoding: 392 370 323
Width: 559
Flags: HW
LayerCount: 2
Fore
SplineSet
340 -186 m 0
 302 -186 274 -179 255 -166 c 0
 236 -153 227 -134 227 -109 c 0
 227 -98 228 -90 230 -82 c 0
 231 -76 235 -68 240 -60 c 0
 246 -53 255 -43 268 -31 c 1
 215 -31 173 -20 142 4 c 0
 111 26 90 58 76 98 c 0
 64 138 57 184 57 235 c 2
 57 693 l 1
 135 693 l 1
 135 246 l 2
 135 197 141 158 154 130 c 0
 166 102 183 82 205 70 c 0
 227 59 252 53 280 53 c 0
 309 53 334 59 356 70 c 0
 377 81 394 101 406 129 c 0
 419 157 425 196 425 245 c 2
 425 693 l 1
 503 693 l 1
 503 235 l 2
 503 184 496 140 481 102 c 0
 466 64 443 36 411 17 c 0
 398 10 384 0 368 -12 c 0
 351 -24 337 -37 325 -51 c 0
 313 -65 307 -79 307 -94 c 0
 307 -113 321 -123 350 -123 c 0
 354 -123 360 -122 367 -122 c 0
 374 -120 381 -119 388 -116 c 1
 395 -176 l 1
 382 -183 364 -186 340 -186 c 0
EndSplineSet
Validated: 1
EndChar

StartChar: uogonek
Encoding: 393 371 324
Width: 559
Flags: HW
LayerCount: 2
Fore
SplineSet
424 -186 m 0
 386 -186 358 -179 339 -166 c 0
 320 -153 311 -134 311 -109 c 0
 311 -95 316 -80 325 -66 c 0
 334 -50 345 -37 357 -26 c 0
 369 -15 379 -7 386 -3 c 1
 367 -5 349 -7 330 -8 c 0
 312 -10 297 -11 284 -11 c 0
 234 -11 194 -1 164 19 c 0
 134 39 112 67 99 102 c 0
 86 138 79 179 79 225 c 2
 79 518 l 1
 157 518 l 1
 157 247 l 2
 157 178 168 130 189 102 c 0
 210 74 245 60 293 60 c 0
 316 60 339 61 360 64 c 0
 381 67 394 69 399 71 c 1
 399 518 l 1
 477 518 l 1
 477 14 l 1
 473 10 466 4 457 -4 c 0
 448 -13 438 -22 428 -32 c 0
 417 -43 408 -53 401 -64 c 0
 394 -75 390 -85 390 -94 c 0
 390 -113 404 -123 433 -123 c 0
 437 -123 443 -122 450 -122 c 0
 458 -120 465 -119 472 -116 c 1
 478 -176 l 1
 465 -183 447 -186 424 -186 c 0
EndSplineSet
Validated: 1
EndChar

StartChar: longs
Encoding: 404 383 335
Width: 559
Flags: HW
LayerCount: 2
Fore
SplineSet
187 0 m 1
 187 570 l 2
 187 623 196 664 214 694 c 0
 233 723 257 744 287 757 c 0
 317 770 349 776 383 776 c 0
 410 776 436 773 462 767 c 0
 489 761 514 754 537 746 c 1
 522 676 l 1
 506 685 486 693 461 699 c 0
 436 705 411 708 385 708 c 0
 364 708 344 704 326 696 c 0
 307 687 292 673 282 653 c 0
 270 633 265 605 265 570 c 2
 265 0 l 1
 187 0 l 1
EndSplineSet
Validated: 1
EndChar

StartChar: uni0218
Encoding: 405 536 336
Width: 559
Flags: HW
LayerCount: 2
Fore
SplineSet
192 2 m 0
 160 2 131 5 104 10 c 0
 77 16 55 23 36 30 c 0
 18 38 4 45 -4 50 c 1
 20 115 l 1
 34 108 55 98 84 88 c 0
 111 78 146 72 192 71 c 0
 286 68 346 73 369 85 c 0
 400 101 416 128 416 167 c 0
 416 199 407 226 388 249 c 0
 365 276 344 292 325 298 c 0
 288 306 240 323 180 347 c 0
 150 360 122 374 96 390 c 0
 71 407 51 427 36 450 c 0
 21 474 14 503 14 537 c 0
 14 596 32 643 69 676 c 0
 94 698 169 709 296 709 c 0
 333 709 368 705 400 696 c 0
 433 688 456 678 470 667 c 1
 444 599 l 1
 429 608 408 614 380 617 c 0
 352 620 319 627 280 636 c 0
 242 645 202 648 159 645 c 0
 145 644 129 632 110 610 c 0
 98 594 92 574 92 551 c 0
 92 523 98 500 110 483 c 0
 129 459 146 445 160 439 c 0
 203 421 248 403 295 386 c 0
 342 368 379 350 407 333 c 0
 435 316 456 294 471 270 c 0
 486 244 493 211 493 170 c 0
 493 111 471 67 427 37 c 0
 392 14 314 2 192 2 c 0
242 -190 m 0
 235 -190 229 -190 222 -189 c 0
 216 -188 208 -187 199 -184 c 1
 199 -134 l 1
 215 -134 l 2
 242 -134 258 -128 264 -116 c 0
 269 -105 272 -88 272 -67 c 2
 272 -50 l 1
 356 -50 l 1
 357 -57 358 -63 358 -69 c 0
 358 -114 347 -145 324 -163 c 0
 301 -181 274 -190 242 -190 c 0
EndSplineSet
Validated: 33
EndChar

StartChar: uni0219
Encoding: 406 537 337
Width: 559
Flags: HW
LayerCount: 2
Fore
SplineSet
259 -12 m 0
 226 -12 195 -10 166 -4 c 0
 137 0 107 9 78 22 c 1
 95 96 l 1
 121 83 148 73 178 66 c 0
 206 59 238 55 271 55 c 0
 359 55 403 79 403 127 c 0
 403 145 396 160 382 172 c 0
 369 185 351 196 330 205 c 0
 308 214 285 223 260 231 c 0
 232 241 205 252 178 265 c 0
 152 278 130 294 113 313 c 0
 96 332 87 357 87 388 c 0
 87 429 104 463 138 490 c 0
 171 517 223 530 294 530 c 0
 321 530 350 528 380 524 c 0
 410 520 435 515 456 510 c 1
 442 437 l 1
 434 442 422 447 406 450 c 0
 389 454 371 457 352 460 c 0
 333 462 314 463 295 463 c 0
 252 463 220 457 198 446 c 0
 175 435 164 416 164 389 c 0
 164 375 170 363 181 352 c 0
 192 342 207 333 226 326 c 0
 245 318 265 310 287 302 c 0
 310 293 332 284 356 274 c 0
 378 265 400 254 419 241 c 0
 438 228 454 213 466 196 c 0
 477 178 483 157 483 133 c 0
 483 84 465 48 428 24 c 0
 391 0 335 -12 259 -12 c 0
242 -190 m 0
 235 -190 229 -190 222 -189 c 0
 216 -188 208 -187 199 -184 c 1
 199 -134 l 1
 215 -134 l 2
 242 -134 258 -128 264 -116 c 0
 269 -105 272 -88 272 -67 c 2
 272 -50 l 1
 356 -50 l 1
 357 -57 358 -63 358 -69 c 0
 358 -114 347 -145 324 -163 c 0
 301 -181 274 -190 242 -190 c 0
EndSplineSet
Validated: 1
EndChar

StartChar: caron
Encoding: 407 711 338
Width: 559
Flags: HW
LayerCount: 2
Fore
SplineSet
280 591 m 1
 150 735 l 1
 184 773 l 1
 280 681 l 1
 376 773 l 1
 410 735 l 1
 280 591 l 1
EndSplineSet
Validated: 1
EndChar

StartChar: breve
Encoding: 408 728 339
Width: 559
Flags: HW
LayerCount: 2
Fore
SplineSet
280 614 m 0
 245 614 216 626 190 648 c 0
 166 672 154 704 156 745 c 1
 203 745 l 1
 204 738 207 728 211 717 c 0
 215 706 222 696 232 687 c 0
 243 678 259 674 280 674 c 0
 302 674 318 678 329 687 c 0
 340 696 347 706 350 717 c 0
 354 728 356 738 356 745 c 1
 404 745 l 1
 406 704 395 672 370 648 c 0
 345 626 315 614 280 614 c 0
EndSplineSet
Validated: 33
EndChar

StartChar: dotaccent
Encoding: 409 729 340
Width: 559
Flags: HW
LayerCount: 2
Fore
SplineSet
280 609 m 0
 263 609 248 615 236 627 c 0
 223 639 217 655 217 674 c 0
 217 693 223 709 236 721 c 0
 248 733 263 739 280 739 c 0
 297 739 312 733 324 721 c 0
 337 709 343 693 343 674 c 0
 343 655 337 639 324 627 c 0
 312 615 297 609 280 609 c 0
EndSplineSet
Validated: 1
EndChar

StartChar: ring
Encoding: 410 730 341
Width: 559
Flags: HW
LayerCount: 2
Fore
SplineSet
280 579 m 0
 253 579 230 588 211 606 c 0
 192 624 182 648 182 679 c 0
 182 708 192 731 211 749 c 0
 230 767 253 776 280 776 c 0
 307 776 330 767 350 749 c 0
 369 731 379 708 379 679 c 0
 379 648 369 624 350 606 c 0
 330 588 307 579 280 579 c 0
280 620 m 0
 295 620 308 625 319 636 c 0
 330 646 335 660 335 679 c 0
 335 696 330 710 319 720 c 0
 308 729 295 734 280 734 c 0
 265 734 252 729 242 720 c 0
 230 710 225 696 225 679 c 0
 225 660 230 646 242 636 c 0
 252 625 265 620 280 620 c 0
EndSplineSet
Validated: 1
EndChar

StartChar: ogonek
Encoding: 411 731 342
Width: 559
Flags: HW
LayerCount: 2
Fore
SplineSet
308 -186 m 0
 270 -186 242 -179 223 -166 c 0
 204 -153 195 -134 195 -109 c 0
 195 -94 200 -78 210 -62 c 0
 221 -46 232 -32 245 -19 c 0
 258 -6 267 2 274 6 c 1
 360 6 l 1
 351 -1 340 -10 326 -22 c 0
 313 -33 301 -45 290 -58 c 0
 279 -71 274 -83 274 -94 c 0
 274 -113 288 -123 317 -123 c 0
 321 -123 327 -122 334 -122 c 0
 342 -120 349 -119 355 -116 c 1
 362 -176 l 1
 349 -183 331 -186 308 -186 c 0
EndSplineSet
Validated: 1
EndChar

StartChar: hungarumlaut
Encoding: 412 733 343
Width: 559
Flags: HW
LayerCount: 2
Fore
SplineSet
324 583 m 1
 277 613 l 1
 386 777 l 1
 435 727 l 1
 324 583 l 1
170 583 m 1
 123 613 l 1
 232 776 l 1
 281 727 l 1
 170 583 l 1
EndSplineSet
Validated: 1
EndChar

StartChar: fraction
Encoding: 421 8260 352
Width: 559
Flags: HW
LayerCount: 2
Fore
SplineSet
28 0 m 1
 462 693 l 1
 531 693 l 1
 96 0 l 1
 28 0 l 1
EndSplineSet
Validated: 1
EndChar

StartChar: uni2070
Encoding: 422 8304 353
Width: 559
Flags: HW
LayerCount: 2
Fore
SplineSet
280 431 m 0
 235 431 200 448 174 482 c 0
 148 517 135 566 135 630 c 0
 135 694 148 743 174 778 c 0
 200 812 235 829 280 829 c 0
 325 829 360 812 386 778 c 0
 412 743 425 694 425 630 c 0
 425 566 412 517 386 482 c 0
 360 448 325 431 280 431 c 0
279 486 m 0
 300 486 317 493 329 506 c 0
 341 519 349 537 354 558 c 0
 359 580 361 604 361 630 c 0
 361 657 359 681 354 702 c 0
 349 724 341 742 329 755 c 0
 317 768 300 775 279 775 c 0
 259 775 243 768 231 755 c 0
 219 742 210 724 206 702 c 0
 200 681 198 657 198 630 c 0
 198 604 200 580 206 558 c 0
 210 537 219 519 231 506 c 0
 243 493 259 486 279 486 c 0
280 590 m 0
 267 590 256 594 248 603 c 0
 241 612 237 622 237 633 c 0
 237 644 241 654 248 663 c 0
 256 672 267 676 280 676 c 0
 294 676 305 672 314 663 c 0
 322 654 326 644 326 633 c 0
 326 622 322 612 314 603 c 0
 305 594 294 590 280 590 c 0
EndSplineSet
Validated: 1
EndChar

StartChar: uni2074
Encoding: 423 8308 354
Width: 559
Flags: HW
LayerCount: 2
Fore
SplineSet
320 439 m 1
 320 535 l 1
 123 535 l 1
 123 574 l 1
 131 588 142 606 157 627 c 0
 172 648 188 671 207 695 c 0
 226 719 245 742 266 764 c 0
 286 786 306 805 326 821 c 1
 380 821 l 1
 380 587 l 1
 431 587 l 1
 431 535 l 1
 380 535 l 1
 380 439 l 1
 320 439 l 1
189 587 m 1
 320 587 l 1
 320 746 l 1
 298 723 275 698 251 670 c 0
 227 641 206 614 189 587 c 1
EndSplineSet
Validated: 1
EndChar

StartChar: uni2075
Encoding: 424 8309 355
Width: 559
Flags: HW
LayerCount: 2
Fore
SplineSet
255 431 m 0
 234 431 214 433 193 438 c 0
 172 443 157 448 147 453 c 1
 159 505 l 1
 168 501 182 497 200 492 c 0
 218 487 237 485 256 485 c 0
 295 485 322 491 336 504 c 0
 351 517 358 531 358 547 c 0
 358 562 353 576 343 588 c 0
 333 601 315 611 288 618 c 0
 262 626 224 630 175 630 c 1
 180 663 184 695 187 725 c 0
 190 755 191 787 192 821 c 1
 402 821 l 1
 402 766 l 1
 245 766 l 1
 243 751 242 737 242 723 c 0
 241 709 239 694 236 678 c 1
 298 674 344 661 374 640 c 0
 403 618 418 588 418 549 c 0
 418 514 404 486 378 464 c 0
 350 442 310 431 255 431 c 0
EndSplineSet
Validated: 1
EndChar

StartChar: uni2076
Encoding: 425 8310 356
Width: 559
Flags: HW
LayerCount: 2
Fore
SplineSet
300 431 m 0
 250 431 212 446 187 474 c 0
 162 504 149 543 149 594 c 0
 149 667 172 723 218 762 c 0
 264 801 326 821 404 823 c 1
 410 771 l 1
 381 770 354 766 326 758 c 0
 300 750 276 738 258 723 c 0
 238 708 226 689 220 666 c 1
 235 673 249 678 262 679 c 0
 275 680 286 681 296 681 c 0
 331 681 358 675 378 664 c 0
 399 652 414 636 423 618 c 0
 432 598 437 578 437 557 c 0
 437 539 432 520 422 500 c 0
 413 481 398 464 378 451 c 0
 358 438 332 431 300 431 c 0
298 482 m 0
 317 482 332 486 342 494 c 0
 354 503 361 513 366 525 c 0
 371 537 373 548 373 557 c 0
 373 604 347 628 294 628 c 0
 279 628 265 627 251 624 c 0
 237 622 223 619 208 614 c 1
 207 576 212 544 226 520 c 0
 238 494 263 482 298 482 c 0
EndSplineSet
Validated: 33
EndChar

StartChar: uni2077
Encoding: 426 8311 357
Width: 559
Flags: HW
LayerCount: 2
Fore
SplineSet
216 439 m 1
 218 466 224 495 234 526 c 0
 243 556 255 586 269 616 c 0
 283 647 298 675 314 700 c 0
 331 726 347 748 363 765 c 1
 159 765 l 1
 159 821 l 1
 439 821 l 1
 439 775 l 1
 425 762 409 743 392 719 c 0
 375 695 358 668 341 637 c 0
 324 606 310 574 298 540 c 0
 287 506 280 472 278 439 c 1
 216 439 l 1
EndSplineSet
Validated: 1
EndChar

StartChar: uni2078
Encoding: 427 8312 358
Width: 559
Flags: HW
LayerCount: 2
Fore
SplineSet
279 431 m 0
 244 431 216 437 195 448 c 0
 174 460 160 474 150 492 c 0
 142 508 137 525 137 540 c 0
 137 557 143 574 156 592 c 0
 168 608 182 622 197 632 c 1
 182 643 170 656 161 672 c 0
 152 688 147 704 147 721 c 0
 147 751 159 776 184 798 c 0
 209 818 240 829 279 829 c 0
 309 829 334 824 354 812 c 0
 373 802 388 788 398 772 c 0
 407 756 412 740 412 725 c 0
 412 706 407 690 397 675 c 0
 387 660 374 647 359 636 c 1
 383 625 399 612 408 598 c 0
 416 582 421 564 423 542 c 0
 423 509 410 483 385 462 c 0
 360 441 324 431 279 431 c 0
304 655 m 1
 317 666 328 678 338 688 c 0
 346 700 351 713 351 728 c 0
 351 737 346 748 335 758 c 0
 324 770 305 775 278 775 c 0
 251 775 233 770 222 758 c 0
 211 748 206 737 206 726 c 0
 206 712 214 698 230 684 c 0
 245 671 270 661 304 655 c 1
279 484 m 0
 308 484 329 489 342 500 c 0
 355 511 361 523 361 538 c 0
 361 557 351 572 330 583 c 0
 310 594 281 604 244 613 c 1
 229 602 218 591 210 579 c 0
 201 567 197 553 197 538 c 0
 197 527 203 516 216 503 c 0
 228 490 249 484 279 484 c 0
EndSplineSet
Validated: 1
EndChar

StartChar: uni2079
Encoding: 428 8313 359
Width: 559
Flags: HW
LayerCount: 2
Fore
SplineSet
171 438 m 1
 169 489 l 1
 201 490 231 495 258 502 c 0
 286 510 310 522 329 538 c 0
 348 553 361 572 367 595 c 1
 352 588 338 584 324 582 c 0
 312 580 300 579 290 579 c 0
 256 579 229 585 208 596 c 0
 187 608 172 624 163 642 c 0
 154 662 149 681 149 702 c 0
 149 721 154 740 164 759 c 0
 173 778 188 795 209 808 c 0
 230 822 256 829 287 829 c 0
 336 829 374 815 399 786 c 0
 424 758 437 718 437 667 c 0
 437 592 414 536 367 496 c 0
 320 458 255 438 171 438 c 1
292 633 m 0
 307 633 322 634 336 636 c 0
 349 637 363 641 378 646 c 1
 379 684 373 716 360 740 c 0
 347 766 322 778 287 778 c 0
 269 778 254 774 244 765 c 0
 232 756 225 746 220 734 c 0
 215 723 213 712 213 702 c 0
 213 656 239 633 292 633 c 0
EndSplineSet
Validated: 33
EndChar

StartChar: uni2080
Encoding: 429 8320 360
Width: 559
Flags: HW
LayerCount: 2
Fore
SplineSet
280 -195 m 0
 235 -195 200 -178 174 -144 c 0
 148 -109 135 -60 135 4 c 0
 135 68 148 117 174 152 c 0
 200 186 235 203 280 203 c 0
 325 203 360 186 386 152 c 0
 412 117 425 68 425 4 c 0
 425 -60 412 -109 386 -144 c 0
 360 -178 325 -195 280 -195 c 0
279 -140 m 0
 300 -140 317 -133 329 -120 c 0
 341 -107 349 -89 354 -68 c 0
 359 -46 361 -22 361 4 c 0
 361 31 359 55 354 76 c 0
 349 98 341 116 329 129 c 0
 317 142 300 149 279 149 c 0
 259 149 243 142 231 129 c 0
 219 116 210 98 206 76 c 0
 200 55 198 31 198 4 c 0
 198 -22 200 -46 206 -68 c 0
 210 -89 219 -107 231 -120 c 0
 243 -133 259 -140 279 -140 c 0
280 -36 m 0
 267 -36 256 -32 248 -23 c 0
 241 -14 237 -4 237 7 c 0
 237 18 241 28 248 37 c 0
 256 46 267 50 280 50 c 0
 294 50 305 46 314 37 c 0
 322 28 326 18 326 7 c 0
 326 -4 322 -14 314 -23 c 0
 305 -32 294 -36 280 -36 c 0
EndSplineSet
Validated: 1
EndChar

StartChar: uni2081
Encoding: 430 8321 361
Width: 559
Flags: HW
LayerCount: 2
Fore
SplineSet
147 -187 m 1
 147 -131 l 1
 257 -131 l 1
 257 114 l 1
 242 104 225 95 204 88 c 0
 183 80 167 75 156 72 c 1
 140 117 l 1
 165 124 190 135 214 148 c 0
 238 161 259 177 276 195 c 1
 313 195 l 1
 313 -131 l 1
 416 -131 l 1
 416 -187 l 1
 147 -187 l 1
EndSplineSet
Validated: 1
EndChar

StartChar: uni2082
Encoding: 431 8322 362
Width: 559
Flags: HW
LayerCount: 2
Fore
SplineSet
158 -187 m 1
 155 -159 158 -135 168 -114 c 0
 178 -93 191 -75 208 -59 c 0
 225 -43 241 -28 257 -14 c 0
 281 7 301 26 316 44 c 0
 331 62 339 79 339 96 c 0
 339 116 333 130 320 138 c 0
 308 147 291 151 269 151 c 0
 254 151 240 148 226 143 c 0
 214 138 202 132 194 126 c 0
 184 119 178 115 174 112 c 1
 143 152 l 1
 152 163 168 175 190 186 c 0
 213 197 239 203 268 203 c 0
 356 203 400 167 400 96 c 0
 400 68 388 40 362 13 c 0
 338 -14 307 -43 272 -74 c 0
 261 -83 250 -93 239 -104 c 0
 228 -115 223 -124 223 -131 c 1
 418 -131 l 1
 418 -187 l 1
 158 -187 l 1
EndSplineSet
Validated: 33
EndChar

StartChar: uni2083
Encoding: 432 8323 363
Width: 559
Flags: HW
LayerCount: 2
Fore
SplineSet
252 -195 m 0
 232 -195 212 -193 192 -188 c 0
 172 -183 156 -178 145 -173 c 1
 158 -122 l 1
 170 -127 184 -131 201 -135 c 0
 218 -139 234 -141 251 -141 c 0
 290 -141 317 -135 332 -124 c 0
 346 -112 353 -96 353 -77 c 0
 353 -60 347 -47 335 -36 c 0
 323 -26 308 -19 289 -14 c 0
 270 -9 251 -7 231 -7 c 2
 219 -7 l 1
 219 42 l 1
 239 42 l 2
 252 42 266 44 282 47 c 0
 296 50 309 56 320 64 c 0
 330 73 335 85 335 100 c 0
 335 119 328 132 314 139 c 0
 301 146 283 150 262 150 c 0
 243 150 226 147 212 140 c 0
 196 134 183 128 172 123 c 1
 151 171 l 1
 160 178 176 185 198 192 c 0
 220 199 242 203 263 203 c 0
 310 203 343 194 364 174 c 0
 384 156 394 131 394 100 c 0
 394 66 374 39 335 19 c 1
 359 13 378 2 394 -16 c 0
 408 -32 416 -53 416 -78 c 0
 416 -111 403 -138 378 -161 c 0
 352 -184 310 -195 252 -195 c 0
EndSplineSet
Validated: 1
EndChar

StartChar: uni2084
Encoding: 433 8324 364
Width: 559
Flags: HW
LayerCount: 2
Fore
SplineSet
320 -187 m 1
 320 -91 l 1
 123 -91 l 1
 123 -52 l 1
 131 -38 142 -20 157 1 c 0
 172 22 188 45 207 69 c 0
 226 93 245 116 266 138 c 0
 286 160 306 179 326 195 c 1
 380 195 l 1
 380 -39 l 1
 431 -39 l 1
 431 -91 l 1
 380 -91 l 1
 380 -187 l 1
 320 -187 l 1
189 -39 m 1
 320 -39 l 1
 320 120 l 1
 298 97 275 72 251 44 c 0
 227 15 206 -12 189 -39 c 1
EndSplineSet
Validated: 1
EndChar

StartChar: uni2085
Encoding: 434 8325 365
Width: 559
Flags: HW
LayerCount: 2
Fore
SplineSet
255 -195 m 0
 234 -195 214 -193 193 -188 c 0
 172 -183 157 -178 147 -173 c 1
 159 -121 l 1
 168 -125 182 -129 200 -134 c 0
 218 -139 237 -141 256 -141 c 0
 295 -141 322 -135 336 -122 c 0
 351 -109 358 -95 358 -79 c 0
 358 -64 353 -50 343 -38 c 0
 333 -25 315 -15 288 -8 c 0
 262 0 224 4 175 4 c 1
 180 37 184 69 187 99 c 0
 190 129 191 161 192 195 c 1
 402 195 l 1
 402 140 l 1
 245 140 l 1
 243 125 242 111 242 97 c 0
 241 83 239 68 236 52 c 1
 298 48 344 35 374 14 c 0
 403 -8 418 -38 418 -77 c 0
 418 -112 404 -140 378 -162 c 0
 350 -184 310 -195 255 -195 c 0
EndSplineSet
Validated: 1
EndChar

StartChar: uni2086
Encoding: 435 8326 366
Width: 559
Flags: HW
LayerCount: 2
Fore
SplineSet
300 -195 m 0
 250 -195 212 -180 187 -152 c 0
 162 -122 149 -83 149 -32 c 0
 149 41 172 97 218 136 c 0
 264 175 326 195 404 197 c 1
 410 145 l 1
 381 144 354 140 326 132 c 0
 300 124 276 112 258 97 c 0
 238 82 226 63 220 40 c 1
 235 47 249 52 262 53 c 0
 275 54 286 55 296 55 c 0
 331 55 358 49 378 38 c 0
 399 26 414 10 423 -8 c 0
 432 -28 437 -48 437 -69 c 0
 437 -87 432 -106 422 -126 c 0
 413 -145 398 -162 378 -175 c 0
 358 -188 332 -195 300 -195 c 0
298 -144 m 0
 317 -144 332 -140 342 -132 c 0
 354 -123 361 -113 366 -101 c 0
 371 -89 373 -78 373 -69 c 0
 373 -22 347 2 294 2 c 0
 279 2 265 1 251 -2 c 0
 237 -4 223 -7 208 -12 c 1
 207 -50 212 -82 226 -106 c 0
 238 -132 263 -144 298 -144 c 0
EndSplineSet
Validated: 33
EndChar

StartChar: uni2087
Encoding: 436 8327 367
Width: 559
Flags: HW
LayerCount: 2
Fore
SplineSet
216 -187 m 1
 218 -160 224 -131 234 -100 c 0
 243 -70 255 -40 269 -10 c 0
 283 21 298 49 314 74 c 0
 331 100 347 122 363 139 c 1
 159 139 l 1
 159 195 l 1
 439 195 l 1
 439 149 l 1
 425 136 409 117 392 93 c 0
 375 69 358 42 341 11 c 0
 324 -20 310 -52 298 -86 c 0
 287 -120 280 -154 278 -187 c 1
 216 -187 l 1
EndSplineSet
Validated: 1
EndChar

StartChar: uni2088
Encoding: 437 8328 368
Width: 559
Flags: HW
LayerCount: 2
Fore
SplineSet
279 -195 m 0
 244 -195 216 -189 195 -178 c 0
 174 -166 160 -152 150 -134 c 0
 142 -118 137 -101 137 -86 c 0
 137 -69 143 -52 156 -34 c 0
 168 -18 182 -4 197 6 c 1
 182 17 170 30 161 46 c 0
 152 62 147 78 147 95 c 0
 147 125 159 150 184 172 c 0
 209 192 240 203 279 203 c 0
 309 203 334 198 354 186 c 0
 373 176 388 162 398 146 c 0
 407 130 412 114 412 99 c 0
 412 80 407 64 397 49 c 0
 387 34 374 21 359 10 c 1
 383 -1 399 -14 408 -28 c 0
 416 -44 421 -62 423 -84 c 0
 423 -117 410 -143 385 -164 c 0
 360 -185 324 -195 279 -195 c 0
304 29 m 1
 317 40 328 52 338 62 c 0
 346 74 351 87 351 102 c 0
 351 111 346 122 335 132 c 0
 324 144 305 149 278 149 c 0
 251 149 233 144 222 132 c 0
 211 122 206 111 206 100 c 0
 206 86 214 72 230 58 c 0
 245 45 270 35 304 29 c 1
279 -142 m 0
 308 -142 329 -137 342 -126 c 0
 355 -115 361 -103 361 -88 c 0
 361 -69 351 -54 330 -43 c 0
 310 -32 281 -22 244 -13 c 1
 229 -24 218 -35 210 -47 c 0
 201 -59 197 -73 197 -88 c 0
 197 -99 203 -110 216 -123 c 0
 228 -136 249 -142 279 -142 c 0
EndSplineSet
Validated: 1
EndChar

StartChar: uni2089
Encoding: 438 8329 369
Width: 559
Flags: HW
LayerCount: 2
Fore
SplineSet
171 -188 m 1
 169 -137 l 1
 201 -136 231 -131 258 -124 c 0
 286 -116 310 -104 329 -88 c 0
 348 -73 361 -54 367 -31 c 1
 352 -38 338 -42 324 -44 c 0
 312 -46 300 -47 290 -47 c 0
 256 -47 229 -41 208 -30 c 0
 187 -18 172 -2 163 16 c 0
 154 36 149 55 149 76 c 0
 149 95 154 114 164 133 c 0
 173 152 188 169 209 182 c 0
 230 196 256 203 287 203 c 0
 336 203 374 189 399 160 c 0
 424 132 437 92 437 41 c 0
 437 -34 414 -90 367 -130 c 0
 320 -168 255 -188 171 -188 c 1
292 7 m 0
 307 7 322 8 336 10 c 0
 349 11 363 15 378 20 c 1
 379 58 373 90 360 114 c 0
 347 140 322 152 287 152 c 0
 269 152 254 148 244 139 c 0
 232 130 225 120 220 108 c 0
 215 97 213 86 213 76 c 0
 213 30 239 7 292 7 c 0
EndSplineSet
Validated: 33
EndChar

StartChar: estimated
Encoding: 439 8494 370
Width: 559
Flags: HW
LayerCount: 2
Fore
SplineSet
280 -13 m 0
 234 -13 192 -3 154 18 c 0
 116 38 86 65 64 99 c 0
 41 133 30 170 30 211 c 0
 30 253 41 291 64 325 c 0
 86 359 116 386 154 406 c 0
 192 427 234 437 280 437 c 0
 326 437 368 427 406 406 c 0
 444 386 474 359 496 325 c 0
 519 291 530 253 530 211 c 2
 530 205 l 1
 125 205 l 2
 122 205 121 204 121 203 c 2
 121 80 l 2
 121 77 122 75 123 73 c 0
 124 71 126 69 127 66 c 0
 148 45 171 29 196 17 c 0
 222 5 250 -1 281 -1 c 0
 314 -1 344 6 371 20 c 0
 398 33 422 51 442 74 c 1
 478 74 l 1
 457 48 428 27 393 11 c 0
 358 -5 320 -13 280 -13 c 0
125 217 m 2
 435 217 l 2
 437 217 438 219 438 222 c 2
 438 345 l 2
 438 350 436 355 432 360 c 0
 413 379 390 395 364 406 c 0
 338 417 310 423 281 423 c 0
 251 423 223 417 197 406 c 0
 171 394 148 378 128 357 c 0
 123 354 121 349 121 342 c 2
 121 222 l 2
 121 219 122 217 125 217 c 2
EndSplineSet
Validated: 1
EndChar

StartChar: uni2153
Encoding: 440 8531 371
Width: 559
Flags: HW
LayerCount: 2
Fore
SplineSet
121 421 m 1
 121 615 l 1
 106 606 93 600 80 594 c 0
 67 590 54 585 41 580 c 1
 23 629 l 1
 48 640 70 651 88 661 c 0
 105 671 123 684 141 701 c 1
 180 701 l 1
 180 421 l 1
 121 421 l 1
7 0 m 1
 453 693 l 1
 521 693 l 1
 76 0 l 1
 7 0 l 1
415 -8 m 0
 399 -8 383 -7 368 -4 c 0
 352 -1 337 2 323 7 c 1
 339 57 l 1
 347 54 357 52 369 48 c 0
 381 46 394 44 409 44 c 0
 426 44 442 47 454 52 c 0
 468 58 474 67 474 80 c 0
 474 97 466 108 450 114 c 0
 435 118 412 121 382 121 c 2
 372 121 l 1
 372 174 l 1
 397 174 l 2
 416 174 432 176 443 180 c 0
 454 184 460 194 460 209 c 0
 460 220 455 228 444 232 c 0
 434 236 423 238 412 238 c 0
 402 238 390 236 378 233 c 0
 364 230 353 226 344 222 c 1
 324 266 l 1
 335 273 350 279 368 284 c 0
 385 288 403 290 421 290 c 0
 436 290 450 288 465 284 c 0
 480 280 492 273 502 262 c 0
 512 252 517 237 517 218 c 0
 517 208 514 197 509 186 c 0
 504 175 495 165 484 156 c 1
 515 141 531 116 531 82 c 0
 531 71 528 58 520 44 c 0
 514 29 502 17 485 7 c 0
 468 -3 445 -8 415 -8 c 0
EndSplineSet
Validated: 1
EndChar

StartChar: uni2154
Encoding: 441 8532 372
Width: 559
Flags: HW
LayerCount: 2
Fore
SplineSet
31 422 m 2
 30 423 30 428 30 434 c 2
 30 448 l 2
 30 471 38 489 53 502 c 0
 68 515 85 527 104 538 c 2
 128 555 l 2
 147 566 161 576 168 586 c 0
 175 594 179 604 179 615 c 0
 179 629 174 639 164 646 c 0
 155 653 144 656 132 656 c 0
 121 656 109 654 96 650 c 0
 84 645 73 638 64 629 c 1
 31 667 l 1
 44 680 60 690 78 698 c 0
 96 704 114 708 132 708 c 0
 157 708 177 703 192 694 c 0
 207 685 219 673 226 659 c 0
 233 645 237 631 237 616 c 0
 237 597 232 580 222 566 c 0
 211 553 198 541 183 530 c 0
 168 519 152 510 138 500 c 0
 122 492 110 482 101 473 c 1
 248 473 l 1
 248 422 l 1
 31 422 l 2
33 0 m 1
 479 693 l 1
 547 693 l 1
 101 0 l 1
 33 0 l 1
415 -8 m 0
 399 -8 383 -7 368 -4 c 0
 352 -1 337 2 323 7 c 1
 339 57 l 1
 347 54 357 52 369 48 c 0
 381 46 394 44 409 44 c 0
 426 44 442 47 454 52 c 0
 468 58 474 67 474 80 c 0
 474 97 466 108 450 114 c 0
 435 118 412 121 382 121 c 2
 372 121 l 1
 372 174 l 1
 397 174 l 2
 416 174 432 176 443 180 c 0
 454 184 460 194 460 209 c 0
 460 220 455 228 444 232 c 0
 434 236 423 238 412 238 c 0
 402 238 390 236 378 233 c 0
 364 230 353 226 344 222 c 1
 324 266 l 1
 335 273 350 279 368 284 c 0
 385 288 403 290 421 290 c 0
 436 290 450 288 465 284 c 0
 480 280 492 273 502 262 c 0
 512 252 517 237 517 218 c 0
 517 208 514 198 509 186 c 0
 504 176 495 165 484 156 c 1
 515 141 531 117 531 82 c 0
 531 71 528 58 520 44 c 0
 514 29 502 17 485 7 c 0
 468 -3 445 -8 415 -8 c 0
EndSplineSet
Validated: 1
EndChar

StartChar: oneeighth
Encoding: 442 8539 373
Width: 559
Flags: HW
LayerCount: 2
Fore
SplineSet
121 421 m 1
 121 615 l 1
 106 606 93 600 80 594 c 0
 67 590 54 585 41 580 c 1
 23 629 l 1
 48 640 70 651 88 661 c 0
 105 671 123 684 141 701 c 1
 180 701 l 1
 180 421 l 1
 121 421 l 1
-9 0 m 1
 436 693 l 1
 505 693 l 1
 59 0 l 1
 -9 0 l 1
403 -8 m 0
 384 -8 365 -5 347 0 c 0
 329 6 314 15 302 28 c 0
 291 40 285 56 285 77 c 0
 285 86 288 97 296 110 c 0
 302 124 315 135 334 143 c 1
 322 150 312 158 306 169 c 0
 298 180 295 194 295 212 c 0
 295 230 300 245 311 256 c 0
 322 267 335 276 352 282 c 0
 369 287 386 290 404 290 c 0
 422 290 439 287 456 280 c 0
 473 274 486 265 496 254 c 0
 507 242 512 227 512 210 c 0
 512 199 509 189 504 178 c 0
 499 168 486 158 467 149 c 1
 482 143 494 134 506 123 c 0
 516 112 522 96 521 77 c 0
 521 57 515 41 502 28 c 0
 489 16 474 7 456 1 c 0
 437 -5 420 -8 403 -8 c 0
416 167 m 1
 428 174 437 181 442 188 c 0
 448 195 451 202 451 209 c 0
 451 217 447 224 438 229 c 0
 430 234 417 237 399 237 c 0
 388 237 378 234 369 228 c 0
 360 223 355 216 355 208 c 0
 355 196 362 187 374 182 c 0
 388 176 401 171 416 167 c 1
403 45 m 0
 418 45 432 48 443 53 c 0
 454 58 460 66 460 76 c 0
 460 91 452 102 436 108 c 0
 419 114 401 120 382 125 c 1
 357 113 345 97 345 76 c 0
 345 65 352 58 364 52 c 0
 378 48 390 45 403 45 c 0
EndSplineSet
Validated: 33
EndChar

StartChar: threeeighths
Encoding: 443 8540 374
Width: 559
Flags: HW
LayerCount: 2
Fore
SplineSet
117 411 m 0
 84 411 54 416 26 426 c 1
 42 477 l 1
 50 474 60 470 72 468 c 0
 84 464 97 463 112 463 c 0
 129 463 144 466 157 472 c 0
 170 477 177 487 177 500 c 0
 177 517 169 528 154 532 c 0
 138 537 115 539 86 539 c 2
 75 539 l 1
 75 593 l 1
 102 593 l 2
 120 593 135 595 146 599 c 0
 157 603 163 613 163 628 c 0
 163 640 158 648 148 652 c 0
 138 655 127 657 115 657 c 0
 105 657 94 655 80 652 c 0
 68 649 56 645 47 641 c 1
 28 685 l 1
 39 692 54 697 71 702 c 0
 88 707 106 709 124 709 c 0
 139 709 153 707 168 703 c 0
 183 699 195 692 205 682 c 0
 215 671 220 656 220 637 c 0
 220 626 217 616 212 605 c 0
 207 594 198 585 186 576 c 1
 201 569 214 559 222 546 c 0
 232 533 236 518 236 501 c 0
 236 490 232 477 226 462 c 0
 218 448 206 436 189 426 c 0
 172 416 148 411 117 411 c 0
2 0 m 1
 447 693 l 1
 516 693 l 1
 70 0 l 1
 2 0 l 1
400 -8 m 0
 381 -8 362 -5 344 0 c 0
 326 6 311 15 300 28 c 0
 288 40 282 56 282 77 c 0
 282 86 285 97 292 110 c 0
 299 124 312 135 331 144 c 1
 320 150 311 158 304 169 c 0
 296 180 292 194 292 212 c 0
 292 230 297 245 308 256 c 0
 319 267 332 276 349 282 c 0
 366 287 383 290 401 290 c 0
 419 290 436 287 453 280 c 0
 470 274 483 265 494 254 c 0
 504 242 509 227 509 210 c 0
 509 199 506 189 501 178 c 0
 496 168 484 158 465 149 c 1
 479 143 492 134 502 123 c 0
 514 112 519 96 518 77 c 0
 518 57 512 41 499 28 c 0
 486 16 471 7 452 1 c 0
 434 -5 417 -8 400 -8 c 0
413 167 m 1
 425 174 434 181 440 188 c 0
 445 195 448 202 448 209 c 0
 448 217 444 224 436 229 c 0
 427 234 414 237 396 237 c 0
 385 237 375 234 366 228 c 0
 357 223 352 216 352 208 c 0
 352 196 358 187 371 182 c 0
 384 176 398 171 413 167 c 1
400 45 m 0
 415 45 429 48 440 53 c 0
 451 58 457 66 457 76 c 0
 457 91 449 102 432 108 c 0
 416 113 398 119 379 125 c 1
 354 113 342 97 342 76 c 0
 342 65 348 58 362 52 c 0
 374 48 387 45 400 45 c 0
EndSplineSet
Validated: 33
EndChar

StartChar: fiveeighths
Encoding: 444 8541 375
Width: 559
Flags: HW
LayerCount: 2
Fore
SplineSet
104 411 m 0
 87 411 71 413 54 418 c 0
 37 423 25 428 18 434 c 1
 32 482 l 1
 38 479 47 476 60 470 c 0
 72 466 86 463 102 463 c 0
 122 463 140 466 154 472 c 0
 170 478 177 489 177 505 c 0
 177 524 168 538 149 544 c 0
 130 552 97 555 50 556 c 1
 53 579 55 598 56 611 c 0
 58 624 60 638 60 650 c 0
 62 664 62 680 63 701 c 1
 222 701 l 1
 222 649 l 1
 115 649 l 1
 111 603 l 1
 150 602 181 594 202 578 c 0
 223 563 234 540 234 510 c 0
 234 481 224 458 204 439 c 0
 184 420 151 411 104 411 c 0
2 0 m 1
 447 693 l 1
 516 693 l 1
 70 0 l 1
 2 0 l 1
400 -8 m 0
 381 -8 362 -5 344 0 c 0
 326 6 311 15 300 28 c 0
 288 40 282 56 282 77 c 0
 282 86 285 97 292 110 c 0
 299 124 312 135 331 144 c 1
 320 150 311 158 304 169 c 0
 296 180 292 194 292 212 c 0
 292 230 297 245 308 256 c 0
 319 267 332 276 349 282 c 0
 366 287 383 290 401 290 c 0
 419 290 436 287 453 280 c 0
 470 274 483 265 494 254 c 0
 504 242 509 227 509 210 c 0
 509 199 506 189 501 178 c 0
 496 168 484 158 465 149 c 1
 479 143 492 134 502 123 c 0
 514 112 519 96 518 77 c 0
 518 57 512 41 499 28 c 0
 486 16 471 7 452 1 c 0
 434 -5 417 -8 400 -8 c 0
413 167 m 1
 425 174 434 181 440 188 c 0
 445 195 448 202 448 209 c 0
 448 217 444 224 436 229 c 0
 427 234 414 237 396 237 c 0
 385 237 375 234 366 228 c 0
 357 223 352 216 352 208 c 0
 352 196 358 187 371 182 c 0
 384 176 398 171 413 167 c 1
400 45 m 0
 415 45 429 48 440 53 c 0
 451 58 457 66 457 76 c 0
 457 91 449 102 432 108 c 0
 416 113 398 119 379 125 c 1
 354 113 342 97 342 76 c 0
 342 65 348 58 362 52 c 0
 374 48 387 45 400 45 c 0
EndSplineSet
Validated: 33
EndChar

StartChar: seveneighths
Encoding: 445 8542 376
Width: 559
Flags: HW
LayerCount: 2
Fore
SplineSet
82 421 m 1
 89 456 96 485 103 510 c 0
 110 534 120 557 132 578 c 0
 143 600 158 624 176 649 c 1
 58 649 l 1
 58 701 l 1
 248 701 l 1
 248 658 l 1
 225 631 206 607 192 585 c 0
 179 563 168 540 160 514 c 0
 153 490 146 458 140 421 c 1
 82 421 l 1
8 0 m 1
 453 693 l 1
 522 693 l 1
 76 0 l 1
 8 0 l 1
400 -8 m 0
 381 -8 362 -5 344 0 c 0
 326 6 311 15 300 28 c 0
 288 40 282 56 282 77 c 0
 282 86 285 97 292 110 c 0
 299 124 312 135 331 144 c 1
 320 150 311 158 304 169 c 0
 296 180 292 194 292 212 c 0
 292 230 297 245 308 256 c 0
 319 267 332 276 349 282 c 0
 366 287 383 290 401 290 c 0
 419 290 436 287 453 280 c 0
 470 274 483 265 494 254 c 0
 504 242 509 227 509 210 c 0
 509 199 506 189 501 178 c 0
 496 168 484 158 465 149 c 1
 479 143 492 134 502 123 c 0
 514 112 519 96 518 77 c 0
 518 57 512 41 499 28 c 0
 486 16 471 7 452 1 c 0
 434 -5 417 -8 400 -8 c 0
413 167 m 1
 425 174 434 181 440 188 c 0
 445 195 448 202 448 209 c 0
 448 217 444 224 436 229 c 0
 427 234 414 237 396 237 c 0
 385 237 375 234 366 228 c 0
 357 223 352 216 352 208 c 0
 352 196 358 187 371 182 c 0
 384 176 398 171 413 167 c 1
400 45 m 0
 415 45 429 48 440 53 c 0
 451 58 457 66 457 76 c 0
 457 91 449 102 432 108 c 0
 416 113 398 119 379 125 c 1
 354 113 342 97 342 76 c 0
 342 65 348 58 362 52 c 0
 374 48 387 45 400 45 c 0
EndSplineSet
Validated: 33
EndChar

StartChar: uni2155
Encoding: 446 8533 377
Width: 559
Flags: HW
LayerCount: 2
Fore
SplineSet
121 421 m 1
 121 615 l 1
 106 606 93 600 80 594 c 0
 67 590 54 585 41 580 c 1
 23 629 l 1
 48 640 70 651 88 661 c 0
 105 671 123 684 141 701 c 1
 180 701 l 1
 180 421 l 1
 121 421 l 1
2 0 m 1
 447 693 l 1
 516 693 l 1
 70 0 l 1
 2 0 l 1
387 -10 m 0
 370 -10 354 -8 337 -3 c 0
 320 2 308 6 301 11 c 1
 315 61 l 1
 321 58 330 54 342 49 c 0
 355 44 369 41 384 41 c 0
 405 41 422 44 438 50 c 0
 452 57 460 68 460 84 c 0
 460 102 452 115 435 122 c 0
 418 130 384 134 333 135 c 1
 336 158 338 176 340 189 c 0
 341 202 342 216 344 229 c 0
 344 242 346 259 347 280 c 1
 505 280 l 1
 505 228 l 1
 398 228 l 1
 394 181 l 1
 433 180 464 172 486 157 c 0
 507 142 518 119 518 88 c 0
 518 60 508 37 487 18 c 0
 466 -1 433 -10 387 -10 c 0
EndSplineSet
Validated: 1
EndChar

StartChar: uni2156
Encoding: 447 8534 378
Width: 559
Flags: HW
LayerCount: 2
Fore
SplineSet
29 419 m 1
 30 424 30 428 30 432 c 2
 30 445 l 2
 30 468 37 486 52 499 c 0
 67 512 83 524 102 535 c 2
 126 551 l 2
 145 563 159 574 166 585 c 0
 174 596 178 606 178 616 c 0
 178 631 173 641 164 648 c 0
 154 654 143 657 130 657 c 0
 119 657 108 655 96 650 c 0
 83 645 72 638 63 629 c 1
 31 668 l 1
 43 681 58 692 76 698 c 0
 95 706 113 709 131 709 c 0
 168 709 195 699 211 680 c 0
 227 660 235 639 235 617 c 0
 235 598 230 582 220 568 c 0
 209 553 196 540 182 530 c 0
 166 518 152 508 136 499 c 0
 122 490 109 480 99 471 c 1
 247 471 l 1
 247 419 l 1
 29 419 l 1
31 0 m 1
 477 693 l 1
 545 693 l 1
 100 0 l 1
 31 0 l 1
387 -10 m 0
 370 -10 354 -8 337 -3 c 0
 320 2 308 6 301 11 c 1
 315 61 l 1
 321 58 330 54 342 49 c 0
 355 44 369 41 384 41 c 0
 405 41 422 44 438 50 c 0
 452 57 460 68 460 84 c 0
 460 103 451 116 432 124 c 0
 413 130 380 134 333 135 c 1
 336 158 338 176 340 189 c 0
 341 202 342 216 344 229 c 0
 344 242 346 259 347 280 c 1
 505 280 l 1
 505 228 l 1
 398 228 l 1
 394 181 l 1
 433 180 464 172 486 157 c 0
 507 142 518 119 518 88 c 0
 518 60 508 37 487 18 c 0
 466 -1 433 -10 387 -10 c 0
EndSplineSet
Validated: 1
EndChar

StartChar: uni2157
Encoding: 448 8535 379
Width: 559
Flags: HW
LayerCount: 2
Fore
SplineSet
114 411 m 0
 81 411 51 416 23 426 c 1
 39 477 l 1
 47 474 57 470 69 468 c 0
 81 464 94 463 109 463 c 0
 126 463 141 466 154 472 c 0
 167 477 174 487 174 500 c 0
 174 517 166 528 150 532 c 0
 135 537 112 539 83 539 c 2
 72 539 l 1
 72 593 l 1
 99 593 l 2
 117 593 132 595 143 599 c 0
 154 603 160 613 160 628 c 0
 160 640 155 648 145 652 c 0
 135 655 124 657 112 657 c 0
 102 657 91 655 78 652 c 0
 65 649 54 645 44 641 c 1
 25 685 l 1
 36 692 51 697 68 702 c 0
 85 707 103 709 121 709 c 0
 136 709 150 707 165 703 c 0
 180 699 192 692 202 682 c 0
 212 671 217 656 217 637 c 0
 217 626 214 616 209 604 c 0
 204 594 195 583 183 574 c 1
 216 559 233 535 233 501 c 0
 233 490 230 477 222 462 c 0
 216 448 203 436 186 426 c 0
 169 416 145 411 114 411 c 0
20 0 m 1
 466 693 l 1
 533 693 l 1
 89 0 l 1
 20 0 l 1
387 -10 m 0
 370 -10 354 -8 337 -3 c 0
 320 2 308 6 301 11 c 1
 315 61 l 1
 321 58 330 54 342 49 c 0
 355 44 369 41 384 41 c 0
 405 41 422 44 438 50 c 0
 452 57 460 68 460 84 c 0
 460 103 451 116 432 124 c 0
 413 130 380 134 333 135 c 1
 336 158 338 176 340 189 c 0
 341 202 342 216 344 229 c 0
 344 242 346 259 347 280 c 1
 505 280 l 1
 505 228 l 1
 398 228 l 1
 394 181 l 1
 433 180 464 172 486 157 c 0
 507 142 518 119 518 88 c 0
 518 60 508 37 487 18 c 0
 466 -1 433 -10 387 -10 c 0
EndSplineSet
Validated: 1
EndChar

StartChar: uni2158
Encoding: 449 8536 380
Width: 559
Flags: HW
LayerCount: 2
Fore
SplineSet
169 421 m 1
 169 478 l 1
 22 478 l 1
 22 523 l 1
 43 558 63 589 80 617 c 0
 98 645 119 673 143 701 c 1
 228 701 l 1
 228 530 l 1
 268 530 l 1
 268 478 l 1
 228 478 l 1
 228 421 l 1
 169 421 l 1
30 0 m 1
 476 693 l 1
 544 693 l 1
 100 0 l 1
 30 0 l 1
83 530 m 1
 169 530 l 1
 169 660 l 1
 152 639 136 618 123 595 c 0
 110 572 96 551 83 530 c 1
387 -10 m 0
 370 -10 354 -8 337 -3 c 0
 320 2 308 6 301 11 c 1
 315 61 l 1
 321 58 330 54 342 49 c 0
 355 44 369 41 384 41 c 0
 405 41 422 44 438 50 c 0
 452 57 460 68 460 84 c 0
 460 103 451 116 432 124 c 0
 413 130 380 134 333 135 c 1
 336 158 338 176 340 189 c 0
 341 202 342 216 344 229 c 0
 344 242 346 259 347 280 c 1
 505 280 l 1
 505 228 l 1
 398 228 l 1
 394 181 l 1
 433 180 464 172 486 157 c 0
 507 142 518 119 518 88 c 0
 518 60 508 37 487 18 c 0
 466 -1 433 -10 387 -10 c 0
EndSplineSet
Validated: 1
EndChar

StartChar: uni2159
Encoding: 450 8537 381
Width: 559
Flags: HW
LayerCount: 2
Fore
SplineSet
121 421 m 1
 121 615 l 1
 106 606 93 600 80 594 c 0
 67 590 54 585 41 580 c 1
 23 629 l 1
 48 640 70 651 88 661 c 0
 105 671 123 684 141 701 c 1
 180 701 l 1
 180 421 l 1
 121 421 l 1
-14 0 m 1
 431 693 l 1
 500 693 l 1
 54 0 l 1
 -14 0 l 1
377 -10 m 0
 335 -10 306 2 288 26 c 0
 272 50 263 79 263 112 c 0
 263 140 270 168 282 195 c 0
 296 222 316 245 344 263 c 0
 372 281 408 290 453 290 c 1
 459 240 l 1
 424 239 396 234 374 223 c 0
 352 212 336 196 327 174 c 1
 345 185 362 190 378 190 c 0
 411 190 436 180 454 159 c 0
 470 138 479 116 479 91 c 0
 479 75 475 59 468 44 c 0
 460 28 448 15 434 5 c 0
 418 -5 400 -10 377 -10 c 0
373 42 m 0
 390 42 402 47 410 58 c 0
 419 68 423 79 423 90 c 0
 423 103 419 114 410 123 c 0
 402 132 389 137 372 137 c 0
 363 137 354 136 345 133 c 0
 336 130 327 126 319 120 c 1
 319 68 337 42 373 42 c 0
EndSplineSet
Validated: 1
EndChar

StartChar: uni215A
Encoding: 451 8538 382
Width: 559
Flags: HW
LayerCount: 2
Fore
SplineSet
129 411 m 0
 112 411 96 413 79 418 c 0
 62 423 50 428 42 434 c 1
 57 482 l 1
 63 479 72 476 84 470 c 0
 97 466 111 463 127 463 c 0
 147 463 164 466 180 472 c 0
 194 478 202 489 202 505 c 0
 202 524 193 538 174 544 c 0
 155 552 122 555 75 556 c 1
 78 579 80 598 82 611 c 0
 83 624 84 638 86 650 c 0
 86 664 88 680 89 701 c 1
 247 701 l 1
 247 649 l 1
 140 649 l 1
 135 603 l 1
 175 602 206 594 227 578 c 0
 248 563 259 540 259 510 c 0
 259 481 249 458 228 439 c 0
 208 420 175 411 129 411 c 0
24 0 m 1
 470 693 l 1
 538 693 l 1
 94 0 l 1
 24 0 l 1
377 -10 m 0
 335 -10 306 2 288 26 c 0
 272 50 263 79 263 112 c 0
 263 140 270 168 282 195 c 0
 296 222 316 245 344 263 c 0
 372 281 408 290 453 290 c 1
 459 240 l 1
 424 239 396 234 374 223 c 0
 352 212 336 196 327 174 c 1
 345 185 362 190 378 190 c 0
 411 190 436 180 454 159 c 0
 470 138 479 116 479 91 c 0
 479 75 475 59 468 44 c 0
 460 28 448 15 434 5 c 0
 418 -5 400 -10 377 -10 c 0
373 42 m 0
 390 42 402 47 410 58 c 0
 419 68 423 79 423 90 c 0
 423 103 419 114 410 123 c 0
 402 132 389 137 372 137 c 0
 363 137 354 136 345 133 c 0
 336 130 327 126 319 120 c 1
 319 68 337 42 373 42 c 0
EndSplineSet
Validated: 1
EndChar

StartChar: uni2150
Encoding: 452 8528 383
Width: 559
Flags: HW
LayerCount: 2
Fore
SplineSet
121 421 m 1
 121 615 l 1
 106 606 93 600 80 594 c 0
 67 590 54 585 41 580 c 1
 23 629 l 1
 48 640 70 651 88 661 c 0
 105 671 123 684 141 701 c 1
 180 701 l 1
 180 421 l 1
 121 421 l 1
-17 0 m 1
 428 693 l 1
 497 693 l 1
 51 0 l 1
 -17 0 l 1
346 0 m 1
 353 35 360 64 367 88 c 0
 374 113 384 136 396 158 c 0
 407 179 422 203 440 228 c 1
 322 228 l 1
 322 280 l 1
 512 280 l 1
 512 237 l 1
 489 211 470 187 456 165 c 0
 443 143 432 119 424 94 c 0
 417 69 410 37 404 0 c 1
 346 0 l 1
EndSplineSet
Validated: 1
EndChar

StartChar: uni2151
Encoding: 453 8529 384
Width: 559
Flags: HW
LayerCount: 2
Fore
SplineSet
121 421 m 1
 121 615 l 1
 106 606 93 600 80 594 c 0
 67 590 54 585 41 580 c 1
 23 629 l 1
 48 640 70 651 88 661 c 0
 105 671 123 684 141 701 c 1
 180 701 l 1
 180 421 l 1
 121 421 l 1
-12 0 m 1
 433 693 l 1
 502 693 l 1
 56 0 l 1
 -12 0 l 1
326 -10 m 1
 321 40 l 1
 355 41 383 47 404 57 c 0
 425 67 441 83 450 104 c 1
 433 95 416 90 401 90 c 0
 367 90 342 100 326 121 c 0
 309 142 301 164 301 189 c 0
 301 206 305 222 312 237 c 0
 319 252 330 265 346 275 c 0
 360 285 379 290 402 290 c 0
 431 290 454 284 471 274 c 0
 488 262 499 248 506 230 c 0
 513 211 516 191 516 168 c 0
 516 140 509 112 496 85 c 0
 483 58 462 35 434 17 c 0
 406 -1 370 -10 326 -10 c 1
407 143 m 0
 425 143 443 148 460 159 c 1
 459 186 455 206 446 218 c 0
 438 232 425 238 406 238 c 0
 389 238 377 233 368 223 c 0
 360 213 356 202 356 190 c 0
 356 178 360 167 369 158 c 0
 378 148 390 143 407 143 c 0
EndSplineSet
Validated: 1
EndChar

StartChar: partialdiff
Encoding: 454 8706 385
Width: 559
Flags: HW
LayerCount: 2
Fore
SplineSet
242 -12 m 0
 197 -12 160 0 130 24 c 0
 102 47 80 78 66 115 c 0
 53 152 46 191 46 231 c 0
 46 261 51 291 60 322 c 0
 69 352 84 380 102 406 c 0
 122 432 146 453 176 468 c 0
 206 484 241 492 282 492 c 0
 313 492 341 487 364 478 c 0
 387 468 404 458 415 449 c 1
 412 506 404 553 390 592 c 0
 377 630 356 659 328 678 c 0
 299 698 261 708 212 708 c 0
 193 708 175 706 157 701 c 0
 139 696 124 691 112 684 c 1
 99 754 l 1
 116 761 136 766 159 770 c 0
 182 774 204 776 227 776 c 0
 280 776 324 765 358 744 c 0
 394 723 421 694 442 658 c 0
 463 621 477 580 486 534 c 0
 495 489 499 441 499 392 c 0
 499 357 496 320 492 282 c 0
 486 245 478 208 466 174 c 0
 454 138 438 107 418 79 c 0
 399 51 374 29 346 12 c 0
 316 -4 282 -12 242 -12 c 0
251 54 m 0
 278 54 300 61 319 74 c 0
 338 88 353 106 366 130 c 0
 379 152 389 178 396 206 c 0
 403 233 408 261 412 290 c 0
 414 318 416 344 416 368 c 1
 396 389 375 404 352 413 c 0
 330 422 309 426 289 426 c 0
 252 426 221 416 197 395 c 0
 173 374 155 348 144 318 c 0
 132 286 126 255 126 222 c 0
 126 194 130 167 140 142 c 0
 148 116 162 95 180 78 c 0
 199 62 222 54 251 54 c 0
EndSplineSet
Validated: 1
EndChar

StartChar: uni0394
Encoding: 455 916 386
Width: 559
Flags: HW
LayerCount: 2
Fore
SplineSet
10 0 m 1
 28 66 45 128 61 186 c 0
 77 244 94 300 110 354 c 0
 128 409 146 464 165 519 c 0
 184 574 206 632 230 693 c 1
 334 693 l 1
 355 642 376 585 397 524 c 0
 418 462 438 399 456 336 c 0
 476 272 493 211 509 153 c 0
 525 95 539 44 550 0 c 1
 10 0 l 1
107 67 m 1
 449 67 l 1
 434 132 418 195 402 256 c 0
 384 316 368 371 352 422 c 0
 336 472 322 515 309 550 c 0
 296 586 286 612 279 629 c 1
 272 613 262 587 250 551 c 0
 236 515 222 472 205 422 c 0
 188 371 172 316 154 256 c 0
 138 195 122 132 107 67 c 1
EndSplineSet
Validated: 1
EndChar

StartChar: product
Encoding: 456 8719 387
Width: 559
Flags: HW
LayerCount: 2
Fore
SplineSet
71 -109 m 1
 71 693 l 1
 489 693 l 1
 489 -109 l 1
 411 -109 l 1
 411 626 l 1
 149 626 l 1
 149 -109 l 1
 71 -109 l 1
EndSplineSet
Validated: 1
EndChar

StartChar: summation
Encoding: 457 8721 388
Width: 559
Flags: HW
LayerCount: 2
Fore
SplineSet
61 -109 m 1
 61 -47 l 1
 80 -4 109 46 146 102 c 0
 183 157 228 225 281 306 c 1
 240 369 206 421 180 462 c 0
 152 502 131 534 116 557 c 0
 100 580 88 598 80 610 c 0
 73 621 68 630 65 635 c 2
 65 693 l 1
 495 693 l 1
 495 626 l 1
 160 626 l 1
 169 610 182 589 198 564 c 0
 215 538 233 510 252 480 c 0
 272 451 292 421 312 390 c 0
 333 359 352 331 369 305 c 1
 324 236 283 174 246 118 c 0
 209 61 178 8 153 -41 c 1
 495 -41 l 1
 495 -109 l 1
 61 -109 l 1
EndSplineSet
Validated: 1
EndChar

StartChar: minus
Encoding: 458 8722 389
Width: 559
Flags: HW
LayerCount: 2
Fore
SplineSet
54 260 m 1
 54 329 l 1
 509 329 l 1
 509 260 l 1
 54 260 l 1
EndSplineSet
Validated: 1
EndChar

StartChar: radical
Encoding: 459 8730 390
Width: 559
Flags: HW
LayerCount: 2
Fore
SplineSet
247 -15 m 1
 236 22 225 57 214 90 c 0
 204 123 193 157 180 194 c 0
 168 230 153 271 135 318 c 1
 61 293 l 1
 39 349 l 1
 175 393 l 1
 192 348 206 307 219 270 c 0
 232 234 243 200 254 168 c 0
 265 136 275 103 286 70 c 1
 472 783 l 1
 537 783 l 1
 321 -15 l 1
 247 -15 l 1
EndSplineSet
Validated: 1
EndChar

StartChar: infinity
Encoding: 460 8734 391
Width: 559
Flags: HW
LayerCount: 2
Fore
SplineSet
168 157 m 0
 157 157 145 159 130 163 c 0
 115 167 101 174 88 184 c 0
 74 195 62 209 53 226 c 0
 44 244 39 267 39 295 c 0
 39 322 44 345 53 362 c 0
 62 380 74 394 88 404 c 0
 101 414 115 421 130 425 c 0
 145 429 157 431 168 431 c 0
 195 431 218 423 236 408 c 0
 255 393 269 376 280 358 c 1
 290 375 305 392 324 408 c 0
 344 423 367 431 394 431 c 0
 405 431 418 429 432 425 c 0
 447 421 461 414 474 404 c 0
 487 394 498 380 508 362 c 0
 516 345 521 322 521 295 c 0
 521 267 516 244 508 226 c 0
 498 209 487 195 474 184 c 0
 461 174 447 167 432 163 c 0
 418 159 405 157 394 157 c 0
 367 157 344 164 324 180 c 0
 305 194 290 211 280 228 c 1
 270 211 256 195 237 180 c 0
 218 165 195 157 168 157 c 0
173 210 m 0
 188 210 203 218 217 234 c 0
 231 249 244 270 256 295 c 1
 245 318 232 337 218 353 c 0
 202 369 187 377 172 377 c 0
 155 377 140 370 126 358 c 0
 113 344 106 324 106 295 c 0
 106 266 113 244 127 230 c 0
 141 217 156 210 173 210 c 0
390 210 m 0
 407 210 422 217 436 230 c 0
 450 244 457 266 457 295 c 0
 457 324 450 344 436 358 c 0
 421 370 406 377 390 377 c 0
 374 377 359 370 344 354 c 0
 330 340 317 320 305 295 c 1
 316 272 329 252 344 235 c 0
 359 218 375 210 390 210 c 0
EndSplineSet
Validated: 1
EndChar

StartChar: integral
Encoding: 461 8747 392
Width: 559
Flags: HW
LayerCount: 2
Fore
SplineSet
136 -185 m 2
 124 -185 l 2
 122 -185 111 -185 93 -184 c 1
 93 -117 l 1
 127 -117 l 2
 167 -117 196 -104 214 -80 c 0
 231 -54 240 -21 240 20 c 2
 240 572 l 2
 240 637 255 687 284 722 c 0
 314 758 360 776 423 776 c 2
 433 776 l 2
 436 776 447 776 466 775 c 1
 466 709 l 1
 432 709 l 2
 391 709 362 696 344 671 c 0
 326 646 317 612 317 571 c 2
 317 19 l 2
 317 -46 302 -96 274 -132 c 0
 244 -167 199 -185 136 -185 c 2
EndSplineSet
Validated: 1
EndChar

StartChar: approxequal
Encoding: 462 8776 393
Width: 559
Flags: HW
LayerCount: 2
Fore
SplineSet
381 322 m 0
 361 322 343 326 326 334 c 0
 310 341 295 350 280 359 c 0
 261 370 243 382 226 393 c 0
 209 404 189 410 168 410 c 0
 153 410 140 405 131 396 c 0
 122 386 115 375 110 362 c 0
 105 350 102 340 99 332 c 1
 46 345 l 1
 50 360 56 378 65 398 c 0
 74 419 87 436 105 452 c 0
 123 466 147 474 177 474 c 0
 197 474 215 470 232 462 c 0
 249 455 264 446 279 437 c 0
 298 426 317 415 334 404 c 0
 352 393 371 387 390 387 c 0
 406 387 418 392 428 402 c 0
 436 412 443 423 448 436 c 0
 453 448 456 458 458 466 c 1
 511 451 l 1
 509 436 504 419 494 398 c 0
 486 378 472 360 454 345 c 0
 436 330 412 322 381 322 c 0
381 118 m 0
 361 118 343 122 326 130 c 0
 310 137 295 146 280 155 c 0
 261 166 243 178 226 189 c 0
 209 200 189 206 168 206 c 0
 153 206 140 201 131 192 c 0
 122 182 115 171 110 158 c 0
 105 146 102 136 99 128 c 1
 46 141 l 1
 50 156 56 174 65 194 c 0
 74 215 87 232 105 248 c 0
 123 262 147 270 177 270 c 0
 197 270 215 266 232 258 c 0
 249 251 264 242 279 233 c 0
 298 222 317 211 334 200 c 0
 352 189 371 183 390 183 c 0
 406 183 418 188 428 198 c 0
 436 208 443 219 448 232 c 0
 453 244 456 254 458 262 c 1
 511 247 l 1
 509 232 504 215 494 194 c 0
 486 174 472 156 454 141 c 0
 436 126 412 118 381 118 c 0
EndSplineSet
Validated: 1
EndChar

StartChar: notequal
Encoding: 463 8800 394
Width: 559
Flags: HW
LayerCount: 2
Fore
SplineSet
185 23 m 1
 123 56 l 1
 171 153 l 1
 54 153 l 1
 54 221 l 1
 205 221 l 1
 277 364 l 1
 54 364 l 1
 54 433 l 1
 311 433 l 1
 377 563 l 1
 437 530 l 1
 388 433 l 1
 509 433 l 1
 509 364 l 1
 354 364 l 1
 282 221 l 1
 509 221 l 1
 509 153 l 1
 248 153 l 1
 185 23 l 1
EndSplineSet
Validated: 1
EndChar

StartChar: lessequal
Encoding: 464 8804 395
Width: 559
Flags: HW
LayerCount: 2
Fore
SplineSet
485 121 m 1
 53 309 l 1
 53 375 l 1
 485 563 l 1
 507 499 l 1
 140 343 l 1
 507 185 l 1
 485 121 l 1
53 1 m 1
 53 70 l 1
 507 70 l 1
 507 1 l 1
 53 1 l 1
EndSplineSet
Validated: 1
EndChar

StartChar: greaterequal
Encoding: 465 8805 396
Width: 559
Flags: HW
LayerCount: 2
Fore
SplineSet
74 122 m 1
 53 185 l 1
 420 343 l 1
 53 499 l 1
 74 563 l 1
 507 375 l 1
 507 310 l 1
 74 122 l 1
53 1 m 1
 53 70 l 1
 507 70 l 1
 507 1 l 1
 53 1 l 1
EndSplineSet
Validated: 1
EndChar

StartChar: lozenge
Encoding: 466 9674 397
Width: 559
Flags: HW
LayerCount: 2
Fore
SplineSet
280 -17 m 1
 255 20 230 58 206 94 c 0
 181 132 156 170 132 212 c 0
 106 252 79 298 49 347 c 1
 78 397 106 442 131 484 c 0
 156 524 181 564 205 600 c 0
 229 638 254 674 280 711 c 1
 306 674 331 638 356 600 c 0
 380 564 405 524 430 484 c 0
 455 442 483 397 512 347 c 1
 469 274 429 208 393 152 c 0
 357 94 319 38 280 -17 c 1
280 101 m 1
 299 126 317 151 332 176 c 0
 347 200 363 226 379 254 c 0
 395 281 413 312 432 347 c 1
 413 382 395 413 379 440 c 0
 363 467 347 493 332 518 c 0
 317 543 299 568 280 594 c 1
 261 568 243 542 228 518 c 0
 212 492 196 466 181 439 c 0
 166 412 148 381 129 347 c 1
 158 297 183 253 204 214 c 0
 226 176 251 138 280 101 c 1
EndSplineSet
Validated: 1
EndChar

StartChar: fi
Encoding: 467 64257 398
Width: 559
Flags: HW
LayerCount: 2
Fore
SplineSet
94 0 m 1
 94 451 l 1
 34 451 l 1
 34 518 l 1
 94 518 l 1
 94 571 l 2
 94 637 111 688 145 723 c 0
 179 758 228 776 293 776 c 0
 310 776 326 776 341 774 c 0
 356 774 367 772 375 769 c 1
 364 702 l 1
 357 705 348 707 339 708 c 0
 330 710 316 711 299 711 c 0
 255 711 224 698 205 673 c 0
 186 648 177 613 177 570 c 2
 177 518 l 1
 326 518 l 1
 326 451 l 1
 177 451 l 1
 177 0 l 1
 94 0 l 1
455 621 m 0
 441 621 429 626 418 636 c 0
 407 646 402 659 402 674 c 0
 402 689 407 702 418 712 c 0
 429 722 441 727 455 727 c 0
 470 727 482 722 492 712 c 0
 503 702 508 689 508 674 c 0
 508 659 503 646 492 636 c 0
 482 626 470 621 455 621 c 0
416 0 m 1
 416 518 l 1
 498 518 l 1
 498 0 l 1
 416 0 l 1
EndSplineSet
Validated: 1
EndChar

StartChar: fl
Encoding: 468 64258 399
Width: 559
Flags: HW
LayerCount: 2
Fore
SplineSet
94 0 m 1
 94 451 l 1
 34 451 l 1
 34 518 l 1
 94 518 l 1
 94 571 l 2
 94 637 111 688 145 723 c 0
 179 758 228 776 293 776 c 0
 310 776 326 776 341 774 c 0
 356 774 367 772 375 769 c 1
 364 702 l 1
 357 705 348 707 339 708 c 0
 330 710 316 711 299 711 c 0
 255 711 224 698 205 673 c 0
 186 648 177 613 177 570 c 2
 177 518 l 1
 326 518 l 1
 326 451 l 1
 177 451 l 1
 177 0 l 1
 94 0 l 1
538 -10 m 1
 493 -9 460 1 438 22 c 0
 417 42 406 76 406 125 c 2
 406 762 l 1
 489 776 l 1
 489 135 l 2
 489 113 491 97 495 86 c 0
 499 76 505 69 514 65 c 0
 522 61 533 58 547 55 c 1
 538 -10 l 1
EndSplineSet
Validated: 1
EndChar

StartChar: caron.alt
Encoding: 469 -1 400
Width: 559
Flags: HW
LayerCount: 2
Fore
SplineSet
240 559 m 1
 240 776 l 1
 319 776 l 1
 294 559 l 1
 240 559 l 1
EndSplineSet
Validated: 1
EndChar

StartChar: caron.alt.short
Encoding: 470 -1 401
Width: 559
Flags: HW
LayerCount: 2
Fore
SplineSet
240 581 m 1
 240 776 l 1
 320 776 l 1
 294 581 l 1
 240 581 l 1
EndSplineSet
Validated: 1
EndChar

StartChar: Ohorn
Encoding: 471 416 402
Width: 559
Flags: HW
LayerCount: 2
Fore
SplineSet
280 -15 m 0
 232 -15 190 -2 152 23 c 0
 116 48 86 88 65 141 c 0
 44 194 33 263 33 347 c 0
 33 431 44 500 64 553 c 0
 86 606 114 646 152 671 c 0
 188 696 231 709 280 709 c 0
 341 709 392 690 431 651 c 1
 448 670 459 688 464 704 c 0
 469 722 471 742 471 766 c 0
 471 772 471 779 470 786 c 0
 469 793 469 798 468 801 c 1
 552 801 l 1
 552 770 l 2
 552 738 545 708 530 680 c 0
 516 651 497 625 472 601 c 1
 489 572 503 537 514 494 c 0
 524 451 529 402 529 347 c 0
 529 263 518 194 497 141 c 0
 476 88 446 48 408 23 c 0
 371 -2 328 -15 280 -15 c 0
277 53 m 0
 330 53 372 78 403 127 c 0
 434 176 449 250 449 347 c 0
 449 445 434 518 403 568 c 0
 372 616 330 641 277 641 c 0
 224 641 184 617 156 568 c 0
 128 519 114 446 114 347 c 0
 114 250 128 176 156 127 c 0
 184 78 224 53 277 53 c 0
EndSplineSet
Validated: 1
EndChar

StartChar: ohorn
Encoding: 472 417 403
Width: 559
Flags: HW
LayerCount: 2
Fore
SplineSet
278 -11 m 0
 234 -11 195 0 160 22 c 0
 126 45 99 76 79 116 c 0
 59 157 49 204 49 259 c 0
 49 314 59 361 78 402 c 0
 98 442 125 473 160 496 c 0
 195 519 234 530 278 530 c 0
 305 530 331 526 356 516 c 0
 380 508 402 495 421 480 c 1
 436 499 445 518 446 534 c 0
 448 552 449 571 449 594 c 0
 449 600 449 606 448 614 c 2
 448 627 l 1
 528 627 l 1
 528 598 l 2
 528 567 523 538 512 510 c 0
 502 483 485 457 462 434 c 1
 478 412 490 386 498 356 c 0
 507 326 511 294 511 259 c 0
 511 204 501 157 481 116 c 0
 461 76 434 45 398 22 c 0
 364 0 323 -11 278 -11 c 0
279 61 m 0
 324 61 361 78 388 114 c 0
 416 148 430 197 430 259 c 0
 430 321 416 370 388 406 c 0
 360 441 323 459 278 459 c 0
 234 459 198 441 171 406 c 0
 144 370 130 321 130 259 c 0
 130 197 144 148 172 114 c 0
 200 78 236 61 279 61 c 0
EndSplineSet
Validated: 1
EndChar

StartChar: Uhorn
Encoding: 473 431 404
Width: 559
Flags: HW
LayerCount: 2
Fore
SplineSet
251 -15 m 0
 202 -15 164 -5 136 15 c 0
 107 35 87 63 75 98 c 0
 63 134 57 175 57 221 c 2
 57 693 l 1
 138 693 l 1
 138 236 l 2
 138 169 147 122 166 96 c 0
 185 69 213 56 250 56 c 0
 288 56 316 69 334 95 c 0
 353 121 362 168 362 235 c 2
 362 693 l 1
 438 693 l 2
 441 693 447 699 454 710 c 0
 461 722 465 740 465 763 c 0
 465 770 464 778 464 786 c 0
 462 793 462 798 461 801 c 1
 547 801 l 1
 547 794 547 788 546 782 c 2
 546 770 l 2
 546 751 543 732 536 712 c 0
 530 691 520 673 505 658 c 0
 490 642 470 632 443 628 c 1
 443 221 l 2
 443 175 437 134 426 98 c 0
 414 63 394 35 366 15 c 0
 339 -5 300 -15 251 -15 c 0
EndSplineSet
Validated: 1
EndChar

StartChar: uhorn
Encoding: 474 432 405
Width: 559
Flags: HW
LayerCount: 2
Fore
SplineSet
261 -11 m 0
 218 -11 183 -1 158 19 c 0
 132 39 113 67 102 102 c 0
 91 138 85 179 85 225 c 2
 85 518 l 1
 166 518 l 1
 166 250 l 2
 166 181 174 133 191 105 c 0
 208 77 235 63 273 63 c 0
 290 63 306 64 320 67 c 0
 335 70 343 72 346 74 c 2
 346 518 l 1
 410 518 l 2
 424 517 433 523 438 535 c 0
 443 547 445 565 445 589 c 0
 445 596 445 603 444 611 c 0
 444 619 444 624 443 627 c 1
 529 627 l 1
 529 595 l 2
 529 576 526 556 520 536 c 0
 514 515 504 498 489 482 c 0
 474 468 454 458 427 455 c 1
 427 14 l 1
 411 9 389 4 361 -2 c 0
 333 -8 300 -11 261 -11 c 0
EndSplineSet
Validated: 33
EndChar

StartChar: Aringacute
Encoding: 477 506 408
Width: 559
Flags: HW
LayerCount: 2
Fore
SplineSet
221 813 m 1
 202 867 l 1
 348 930 l 1
 374 857 l 1
 221 813 l 1
10 0 m 1
 18 33 28 71 40 114 c 0
 52 156 65 201 80 248 c 0
 95 295 110 342 126 389 c 0
 141 436 157 480 174 522 c 0
 190 563 205 600 220 631 c 1
 211 640 204 651 199 662 c 0
 194 674 191 687 191 702 c 0
 191 729 200 751 218 766 c 0
 235 782 257 790 282 790 c 0
 305 790 326 782 344 766 c 0
 363 751 372 729 372 702 c 0
 372 687 369 674 364 662 c 0
 359 651 351 641 342 634 c 1
 357 601 372 564 388 522 c 0
 403 480 419 436 434 388 c 0
 450 342 465 294 480 248 c 0
 494 200 507 156 519 114 c 0
 531 71 541 33 550 0 c 1
 467 0 l 1
 423 191 l 1
 132 191 l 1
 89 0 l 1
 10 0 l 1
282 648 m 0
 297 648 309 653 318 662 c 0
 327 672 332 685 332 702 c 0
 332 718 327 731 318 740 c 0
 309 749 297 754 282 754 c 0
 267 754 255 749 246 740 c 0
 236 731 231 718 231 702 c 0
 231 685 236 672 246 662 c 0
 255 653 267 648 282 648 c 0
153 257 m 1
 403 257 l 1
 381 333 359 403 338 466 c 0
 316 530 296 583 279 624 c 1
 262 579 242 526 220 464 c 0
 199 403 176 334 153 257 c 1
EndSplineSet
Validated: 1
EndChar

StartChar: aringacute
Encoding: 478 507 409
Width: 559
Flags: HW
LayerCount: 2
Fore
SplineSet
294 -12 m 0
 267 -12 241 -10 214 -6 c 0
 188 -1 164 7 142 19 c 0
 121 31 103 48 90 70 c 0
 77 91 70 119 70 153 c 0
 70 192 81 224 103 247 c 0
 125 270 153 287 187 298 c 0
 221 308 256 313 292 313 c 0
 311 313 330 312 348 310 c 0
 367 307 385 304 402 300 c 1
 402 328 l 2
 402 350 399 371 392 392 c 0
 386 413 374 430 356 443 c 0
 337 456 310 463 274 463 c 0
 241 463 212 460 188 456 c 0
 163 450 145 446 134 441 c 1
 125 508 l 1
 136 513 156 518 185 523 c 0
 214 528 245 530 279 530 c 0
 330 530 370 522 399 505 c 0
 428 488 449 466 462 436 c 0
 475 408 481 374 481 336 c 2
 481 8 l 1
 458 4 430 0 396 -5 c 0
 362 -10 328 -12 294 -12 c 0
288 56 m 0
 313 56 336 57 356 59 c 0
 375 61 391 63 402 66 c 1
 402 230 l 1
 390 234 375 238 356 240 c 0
 338 244 319 245 298 245 c 0
 275 245 252 242 229 237 c 0
 206 232 188 222 173 209 c 0
 158 196 151 177 151 153 c 0
 151 116 163 91 188 77 c 0
 212 63 245 56 288 56 c 0
217 772 m 1
 198 828 l 1
 345 905 l 1
 371 831 l 1
 217 772 l 1
280 573 m 0
 254 573 232 581 215 598 c 0
 198 614 189 636 189 664 c 0
 189 691 198 713 215 729 c 0
 232 745 254 753 280 753 c 0
 304 753 325 745 343 729 c 0
 361 713 370 691 370 664 c 0
 370 636 361 614 343 598 c 0
 325 581 304 573 280 573 c 0
280 611 m 0
 295 611 307 616 316 625 c 0
 325 634 330 647 330 664 c 0
 330 679 325 692 316 701 c 0
 307 710 295 715 280 715 c 0
 265 715 253 710 244 701 c 0
 234 692 229 679 229 664 c 0
 229 647 234 634 244 625 c 0
 253 616 265 611 280 611 c 0
EndSplineSet
Validated: 1
EndChar

StartChar: uni20B8
Encoding: 483 8376 414
Width: 559
Flags: HW
LayerCount: 2
Fore
SplineSet
50 626 m 1
 50 693 l 1
 509 693 l 1
 509 626 l 1
 50 626 l 1
241 0 m 1
 241 459 l 1
 50 459 l 1
 50 526 l 1
 509 526 l 1
 509 459 l 1
 318 459 l 1
 318 0 l 1
 241 0 l 1
EndSplineSet
Validated: 1
EndChar

StartChar: Gamma
Encoding: 486 915 417
Width: 559
Flags: HW
LayerCount: 2
Fore
SplineSet
66 0 m 1
 66 67 l 1
 166 67 l 1
 166 693 l 1
 507 693 l 1
 507 626 l 1
 244 626 l 1
 244 67 l 1
 394 67 l 1
 394 0 l 1
 66 0 l 1
EndSplineSet
Validated: 1
EndChar

StartChar: Theta
Encoding: 490 920 421
Width: 559
Flags: HW
LayerCount: 2
Fore
SplineSet
280 -15 m 0
 232 -15 190 -2 152 24 c 0
 116 51 86 91 66 144 c 0
 44 197 34 265 34 347 c 0
 34 429 44 497 65 550 c 0
 86 603 114 643 152 670 c 0
 188 696 231 709 280 709 c 0
 328 709 370 696 408 670 c 0
 444 643 474 603 495 550 c 0
 516 497 527 429 527 347 c 0
 527 265 516 197 496 144 c 0
 474 91 445 51 408 24 c 0
 371 -2 328 -15 280 -15 c 0
277 53 m 0
 330 53 372 78 400 129 c 0
 430 180 444 252 444 347 c 0
 444 442 430 515 400 566 c 0
 372 616 330 641 277 641 c 0
 224 641 185 616 158 566 c 0
 132 515 119 442 119 347 c 0
 119 252 132 180 158 129 c 0
 185 78 224 53 277 53 c 0
195 313 m 1
 195 386 l 1
 368 386 l 1
 368 313 l 1
 195 313 l 1
EndSplineSet
Validated: 1
EndChar

StartChar: Kappa
Encoding: 492 922 423
Width: 559
Flags: HW
LayerCount: 2
Fore
SplineSet
79 0 m 1
 79 693 l 1
 157 693 l 1
 157 378 l 1
 202 427 246 479 288 534 c 0
 329 589 366 642 397 693 c 1
 488 693 l 1
 461 651 438 615 416 584 c 0
 396 554 376 527 358 504 c 0
 339 480 320 457 302 436 c 0
 282 414 262 390 239 365 c 1
 269 340 301 308 334 271 c 0
 367 234 400 192 430 146 c 0
 462 101 489 52 512 0 c 1
 423 0 l 1
 386 75 344 142 300 200 c 0
 254 260 207 306 157 339 c 1
 157 0 l 1
 79 0 l 1
EndSplineSet
Validated: 1
EndChar

StartChar: Lambda
Encoding: 493 923 424
Width: 559
Flags: HW
LayerCount: 2
Fore
SplineSet
10 0 m 1
 28 66 45 128 61 186 c 0
 77 244 94 300 110 354 c 0
 128 409 146 464 165 519 c 0
 184 574 206 632 230 693 c 1
 334 693 l 1
 355 640 376 583 396 520 c 0
 418 458 438 395 457 332 c 0
 476 268 494 207 510 150 c 0
 526 93 539 43 550 0 c 1
 464 0 l 1
 448 82 430 158 411 230 c 0
 392 300 373 364 354 420 c 0
 336 476 320 522 306 558 c 0
 293 594 284 618 279 629 c 1
 274 618 264 594 250 558 c 0
 236 520 220 474 201 416 c 0
 182 360 163 296 144 224 c 0
 124 154 106 79 89 0 c 1
 10 0 l 1
EndSplineSet
Validated: 1
EndChar

StartChar: Mu
Encoding: 494 924 425
Width: 559
Flags: HW
LayerCount: 2
Fore
SplineSet
42 0 m 1
 45 81 48 160 51 235 c 0
 54 310 57 386 62 460 c 0
 67 536 72 613 79 693 c 1
 177 693 l 1
 196 628 214 568 230 512 c 0
 247 455 264 397 281 337 c 1
 298 396 314 454 330 510 c 0
 347 568 364 628 383 693 c 1
 481 693 l 1
 485 654 489 607 492 554 c 0
 496 501 500 443 502 382 c 0
 506 320 508 256 512 192 c 0
 514 126 517 63 520 0 c 1
 443 0 l 1
 441 39 439 84 438 132 c 0
 437 182 435 233 434 287 c 0
 433 341 431 395 429 450 c 0
 427 505 425 557 423 607 c 1
 325 268 l 1
 236 268 l 1
 134 607 l 1
 133 558 132 506 132 451 c 0
 130 396 129 342 128 288 c 0
 127 233 125 182 124 132 c 0
 123 84 121 39 120 0 c 1
 42 0 l 1
EndSplineSet
Validated: 1
EndChar

StartChar: Xi
Encoding: 496 926 427
Width: 559
Flags: HW
LayerCount: 2
Fore
SplineSet
57 625 m 1
 57 693 l 1
 506 693 l 1
 506 625 l 1
 57 625 l 1
100 328 m 1
 100 398 l 1
 460 398 l 1
 460 328 l 1
 100 328 l 1
43 0 m 1
 43 69 l 1
 518 69 l 1
 518 0 l 1
 43 0 l 1
EndSplineSet
Validated: 1
EndChar

StartChar: Pi
Encoding: 498 928 429
Width: 559
Flags: HW
LayerCount: 2
Fore
SplineSet
50 0 m 1
 50 693 l 1
 510 693 l 1
 510 0 l 1
 432 0 l 1
 432 626 l 1
 128 626 l 1
 128 0 l 1
 50 0 l 1
EndSplineSet
Validated: 1
EndChar

StartChar: Sigma
Encoding: 500 931 431
Width: 559
Flags: HW
LayerCount: 2
Fore
SplineSet
49 0 m 1
 49 68 l 1
 72 110 104 156 143 205 c 0
 182 254 222 307 263 363 c 1
 222 416 184 467 148 516 c 0
 113 564 84 605 63 639 c 1
 63 693 l 1
 493 693 l 1
 493 626 l 1
 155 626 l 1
 166 609 182 586 203 558 c 0
 224 530 247 499 272 466 c 0
 298 433 324 399 350 364 c 1
 309 309 270 258 232 211 c 0
 196 164 160 116 126 67 c 1
 494 67 l 1
 494 0 l 1
 49 0 l 1
EndSplineSet
Validated: 1
EndChar

StartChar: Phi
Encoding: 503 934 434
Width: 559
Flags: HW
LayerCount: 2
Fore
SplineSet
251 0 m 1
 251 90 l 1
 213 95 179 109 150 131 c 0
 120 153 96 184 79 224 c 0
 62 263 53 313 53 372 c 0
 53 431 62 480 79 520 c 0
 96 560 120 591 150 613 c 0
 179 635 213 648 251 652 c 1
 251 738 l 1
 325 738 l 1
 325 652 l 1
 363 647 397 633 426 612 c 0
 456 590 480 559 496 520 c 0
 514 480 522 431 522 372 c 0
 522 313 514 264 496 224 c 0
 480 184 456 153 426 131 c 0
 397 109 363 95 325 89 c 1
 325 0 l 1
 251 0 l 1
251 161 m 1
 251 583 l 1
 213 576 185 555 166 520 c 0
 148 486 139 437 139 372 c 0
 139 307 148 258 166 224 c 0
 185 189 213 168 251 161 c 1
325 162 m 1
 362 170 390 191 408 225 c 0
 426 259 435 308 435 371 c 0
 435 435 426 484 408 518 c 0
 390 552 362 573 325 582 c 1
 325 162 l 1
EndSplineSet
Validated: 1
EndChar

StartChar: Psi
Encoding: 505 936 436
Width: 559
Flags: HW
LayerCount: 2
Fore
SplineSet
243 0 m 1
 243 181 l 1
 195 180 157 192 130 216 c 0
 103 239 83 272 72 315 c 0
 60 358 54 406 54 461 c 2
 54 693 l 1
 141 693 l 1
 141 470 l 2
 141 393 148 337 162 302 c 0
 176 268 203 251 243 251 c 1
 243 532 l 1
 317 532 l 1
 317 251 l 1
 357 251 384 268 398 302 c 0
 412 337 419 393 419 470 c 2
 419 693 l 1
 506 693 l 1
 506 461 l 2
 506 406 500 358 490 315 c 0
 478 272 459 239 432 216 c 0
 405 192 366 180 317 181 c 1
 317 0 l 1
 243 0 l 1
EndSplineSet
Validated: 33
EndChar

StartChar: uni03A9
Encoding: 506 937 437
Width: 559
Flags: HW
LayerCount: 2
Fore
SplineSet
23 0 m 1
 23 67 l 1
 153 67 l 1
 117 113 90 165 71 224 c 0
 52 282 43 339 43 396 c 0
 43 433 47 470 56 508 c 0
 65 544 78 578 98 608 c 0
 116 639 141 663 172 682 c 0
 202 700 238 709 281 709 c 0
 324 709 361 700 391 682 c 0
 421 663 445 639 464 608 c 0
 483 578 496 544 505 508 c 0
 514 470 518 433 518 396 c 0
 518 339 508 282 490 224 c 0
 470 165 443 113 408 67 c 1
 537 67 l 1
 537 0 l 1
 322 0 l 1
 322 58 l 1
 348 85 370 118 387 158 c 0
 404 196 418 238 426 280 c 0
 436 324 440 365 440 404 c 0
 440 447 434 487 422 522 c 0
 411 558 393 587 370 608 c 0
 346 630 316 641 281 641 c 0
 246 641 216 630 192 608 c 0
 169 587 151 558 140 522 c 0
 128 487 122 447 122 404 c 0
 122 365 126 324 136 280 c 0
 144 238 158 196 176 158 c 0
 193 118 215 85 240 58 c 1
 240 0 l 1
 23 0 l 1
EndSplineSet
Validated: 1
EndChar

StartChar: alpha
Encoding: 507 945 438
Width: 559
Flags: HW
LayerCount: 2
Fore
SplineSet
283 -11 m 0
 232 -11 190 1 157 26 c 0
 124 50 99 83 82 124 c 0
 66 165 58 211 58 262 c 0
 58 315 68 362 88 402 c 0
 108 442 136 473 172 496 c 0
 208 518 250 529 299 529 c 0
 324 529 349 527 373 524 c 0
 397 520 418 516 436 511 c 0
 455 506 468 502 476 499 c 1
 476 158 l 2
 476 126 478 103 484 90 c 0
 488 76 502 65 524 58 c 1
 510 -10 l 1
 491 -4 476 2 464 8 c 0
 451 15 439 26 427 42 c 1
 416 31 398 20 374 8 c 0
 349 -5 319 -11 283 -11 c 0
285 59 m 0
 314 59 338 64 360 74 c 0
 380 85 395 94 403 102 c 1
 401 111 400 120 398 128 c 0
 398 136 397 145 397 156 c 2
 397 446 l 2
 394 449 383 452 365 455 c 0
 347 458 328 460 307 460 c 0
 258 460 218 443 186 408 c 0
 155 373 139 324 139 260 c 0
 139 224 144 191 153 160 c 0
 162 129 178 105 200 86 c 0
 221 68 250 59 285 59 c 0
EndSplineSet
Validated: 1
EndChar

StartChar: beta
Encoding: 508 946 439
Width: 559
Flags: HW
LayerCount: 2
Fore
SplineSet
86 -185 m 1
 86 564 l 2
 86 611 95 650 112 681 c 0
 130 712 154 736 184 752 c 0
 213 768 245 776 280 776 c 0
 332 776 375 760 410 727 c 0
 444 694 461 646 461 581 c 0
 461 552 451 523 432 494 c 0
 413 466 386 445 351 432 c 1
 389 423 420 408 443 386 c 0
 466 363 483 338 494 309 c 0
 505 280 510 252 510 223 c 0
 510 169 499 125 477 91 c 0
 455 57 427 32 394 16 c 0
 360 1 325 -7 289 -7 c 0
 267 -7 245 -4 223 2 c 0
 201 8 181 17 164 28 c 1
 164 -185 l 1
 86 -185 l 1
277 61 m 0
 302 61 326 66 349 76 c 0
 372 87 392 104 406 126 c 0
 422 150 429 180 429 218 c 0
 429 273 414 317 385 348 c 0
 356 379 309 395 246 395 c 2
 245 395 l 1
 245 461 l 1
 251 461 l 2
 286 461 317 471 342 490 c 0
 368 509 381 541 381 586 c 0
 381 629 372 660 354 680 c 0
 335 699 311 709 282 709 c 0
 247 709 219 696 197 672 c 0
 175 646 164 609 164 558 c 2
 164 101 l 1
 181 87 199 77 218 70 c 0
 237 64 257 61 277 61 c 0
EndSplineSet
Validated: 1
EndChar

StartChar: gamma
Encoding: 509 947 440
Width: 559
Flags: HW
LayerCount: 2
Fore
SplineSet
238 -185 m 1
 235 -120 226 -54 212 13 c 0
 196 80 179 144 158 207 c 0
 137 270 116 328 94 381 c 0
 73 434 54 480 37 518 c 1
 129 518 l 1
 156 451 182 380 208 304 c 0
 235 230 257 156 276 85 c 1
 323 166 359 244 385 318 c 0
 411 394 429 460 440 518 c 1
 517 518 l 1
 512 491 503 458 492 418 c 0
 481 379 466 336 448 288 c 0
 430 242 408 193 382 142 c 0
 357 91 327 41 292 -8 c 1
 298 -37 303 -67 308 -98 c 0
 312 -129 315 -158 316 -185 c 1
 238 -185 l 1
EndSplineSet
Validated: 1
EndChar

StartChar: delta
Encoding: 510 948 441
Width: 559
Flags: HW
LayerCount: 2
Fore
SplineSet
278 -12 m 0
 222 -12 177 0 143 26 c 0
 109 50 84 83 70 124 c 0
 54 165 47 208 47 253 c 0
 47 300 55 341 71 376 c 0
 87 410 108 438 135 461 c 0
 162 484 190 500 221 511 c 1
 194 529 173 550 156 572 c 0
 140 596 132 619 132 642 c 0
 132 689 149 724 184 744 c 0
 218 766 263 776 319 776 c 0
 355 776 387 772 414 762 c 0
 441 754 459 747 468 742 c 1
 450 680 l 1
 448 681 441 684 429 690 c 0
 417 694 402 699 384 704 c 0
 365 709 345 711 322 711 c 0
 309 711 294 710 276 706 c 0
 258 704 242 698 228 688 c 0
 215 680 208 666 208 647 c 0
 208 629 217 614 234 602 c 0
 251 589 272 574 296 557 c 0
 324 538 351 520 376 500 c 0
 402 482 425 460 446 437 c 0
 466 414 482 386 494 354 c 0
 505 323 511 285 511 240 c 0
 511 212 507 183 500 154 c 0
 492 125 479 97 462 72 c 0
 444 47 420 26 390 11 c 0
 360 -4 323 -12 278 -12 c 0
279 56 m 0
 315 56 344 65 366 83 c 0
 389 101 405 124 416 154 c 0
 427 182 432 213 432 246 c 0
 432 291 424 328 409 356 c 0
 394 384 375 407 353 424 c 0
 331 441 310 456 289 468 c 1
 239 457 200 432 170 394 c 0
 142 357 127 309 127 252 c 0
 127 220 132 189 141 159 c 0
 150 129 166 104 188 85 c 0
 210 66 240 56 279 56 c 0
EndSplineSet
Validated: 1
EndChar

StartChar: epsilon
Encoding: 511 949 442
Width: 559
Flags: HW
LayerCount: 2
Fore
SplineSet
309 -11 m 0
 286 -11 261 -9 234 -5 c 0
 207 -1 182 6 159 17 c 0
 136 28 116 43 102 64 c 0
 86 85 79 112 79 146 c 0
 79 171 88 195 105 220 c 0
 122 244 144 261 171 272 c 1
 163 275 153 281 142 290 c 0
 131 299 120 312 112 328 c 0
 102 343 98 362 98 383 c 0
 98 431 118 468 160 493 c 0
 200 518 257 531 330 531 c 0
 352 531 374 530 396 527 c 0
 419 524 438 521 455 518 c 0
 472 514 482 510 486 507 c 1
 475 438 l 1
 472 440 463 443 448 448 c 0
 432 452 414 456 392 460 c 0
 372 464 352 466 333 466 c 0
 306 466 280 464 258 458 c 0
 234 454 216 445 202 434 c 0
 189 423 182 407 182 387 c 0
 182 362 189 343 202 332 c 0
 216 320 233 312 252 310 c 0
 272 306 291 305 308 305 c 2
 401 305 l 1
 401 240 l 1
 305 240 l 2
 280 240 257 237 236 232 c 0
 214 226 196 216 182 203 c 0
 169 190 162 171 162 148 c 0
 162 117 175 94 202 79 c 0
 229 64 269 57 323 57 c 0
 351 57 378 59 402 64 c 0
 428 69 449 74 467 80 c 0
 485 86 497 91 503 94 c 1
 526 27 l 1
 517 22 494 14 456 4 c 0
 418 -6 369 -11 309 -11 c 0
EndSplineSet
Validated: 1
EndChar

StartChar: zeta
Encoding: 512 950 443
Width: 559
Flags: HW
LayerCount: 2
Fore
SplineSet
448 -187 m 1
 378 -168 l 1
 381 -163 386 -155 392 -143 c 0
 399 -131 405 -118 410 -103 c 0
 415 -88 418 -75 418 -63 c 0
 418 -39 408 -22 386 -14 c 0
 366 -4 330 3 281 10 c 0
 206 21 153 43 122 78 c 0
 90 112 74 163 74 232 c 0
 74 273 82 314 96 352 c 0
 112 392 131 429 155 464 c 0
 179 500 205 533 232 564 c 0
 260 594 287 621 313 644 c 0
 339 668 361 687 380 702 c 1
 104 702 l 1
 104 769 l 1
 479 769 l 1
 479 702 l 1
 460 686 436 666 408 641 c 0
 381 616 352 588 323 558 c 0
 294 526 266 493 241 458 c 0
 216 422 195 385 179 348 c 0
 163 310 155 272 155 234 c 0
 155 182 168 145 194 122 c 0
 220 99 262 84 321 77 c 0
 386 70 432 56 457 34 c 0
 482 13 495 -18 495 -57 c 0
 495 -82 490 -106 480 -129 c 0
 469 -152 459 -172 448 -187 c 1
EndSplineSet
Validated: 1
EndChar

StartChar: eta
Encoding: 513 951 444
Width: 559
Flags: HW
LayerCount: 2
Fore
SplineSet
403 -185 m 1
 403 291 l 2
 403 339 397 375 385 398 c 0
 373 422 357 438 336 446 c 0
 316 454 293 458 268 458 c 0
 233 458 198 454 161 447 c 1
 161 0 l 1
 83 0 l 1
 83 504 l 1
 118 513 152 520 185 524 c 0
 218 527 246 529 271 529 c 0
 314 529 352 522 383 508 c 0
 414 493 438 470 456 438 c 0
 472 405 481 362 481 307 c 2
 481 -185 l 1
 403 -185 l 1
EndSplineSet
Validated: 1
EndChar

StartChar: theta
Encoding: 514 952 445
Width: 559
Flags: HW
LayerCount: 2
Fore
SplineSet
280 -16 m 0
 231 -16 190 0 157 34 c 0
 124 66 100 113 84 172 c 0
 69 231 61 300 61 379 c 0
 61 458 69 528 84 588 c 0
 100 647 124 694 157 726 c 0
 190 760 231 776 280 776 c 0
 330 776 371 760 404 726 c 0
 436 694 460 647 476 588 c 0
 491 528 499 458 499 379 c 0
 499 300 491 231 476 172 c 0
 460 113 436 66 404 34 c 0
 371 0 330 -16 280 -16 c 0
141 422 m 1
 419 422 l 1
 417 509 405 578 382 630 c 0
 360 682 326 708 280 708 c 0
 249 708 223 696 204 672 c 0
 184 649 169 616 160 573 c 0
 150 530 144 480 141 422 c 1
280 52 m 0
 313 52 339 65 358 90 c 0
 378 115 393 151 402 197 c 0
 412 243 418 297 419 358 c 1
 141 358 l 1
 142 297 148 243 157 197 c 0
 166 151 181 115 202 90 c 0
 222 65 248 52 280 52 c 0
EndSplineSet
Validated: 1
EndChar

StartChar: iota
Encoding: 515 953 446
Width: 559
Flags: HW
LayerCount: 2
Fore
SplineSet
374 -12 m 0
 337 -12 306 -6 284 6 c 0
 260 17 244 37 234 64 c 0
 224 92 219 130 219 179 c 2
 219 451 l 1
 66 451 l 1
 66 518 l 1
 295 518 l 1
 295 201 l 2
 295 160 298 130 304 108 c 0
 309 88 319 74 332 66 c 0
 346 60 365 56 389 56 c 0
 398 56 413 58 434 62 c 0
 455 65 472 71 487 80 c 1
 498 16 l 1
 480 7 460 0 438 -5 c 0
 417 -10 395 -12 374 -12 c 0
EndSplineSet
Validated: 1
EndChar

StartChar: kappa
Encoding: 516 954 447
Width: 559
Flags: HW
LayerCount: 2
Fore
SplineSet
83 0 m 1
 83 520 l 1
 161 520 l 1
 161 297 l 1
 206 334 252 370 298 406 c 0
 343 440 384 478 421 518 c 1
 512 518 l 1
 479 479 438 440 392 400 c 0
 344 361 298 322 251 283 c 1
 271 269 294 251 320 229 c 0
 346 207 373 183 400 156 c 0
 427 130 453 104 476 76 c 0
 499 50 518 24 532 0 c 1
 437 0 l 1
 422 25 403 49 380 74 c 0
 357 98 333 121 306 144 c 0
 280 166 254 186 229 204 c 0
 204 223 181 238 161 250 c 1
 161 0 l 1
 83 0 l 1
EndSplineSet
Validated: 1
EndChar

StartChar: lambda
Encoding: 517 955 448
Width: 559
Flags: HW
LayerCount: 2
Fore
SplineSet
35 0 m 1
 44 34 56 72 70 116 c 0
 86 158 103 204 122 252 c 0
 141 300 162 348 184 396 c 0
 207 444 230 490 254 534 c 1
 239 572 226 604 214 630 c 0
 203 657 190 677 176 691 c 0
 161 705 143 712 120 712 c 0
 111 712 103 712 96 710 c 0
 89 710 85 708 82 707 c 1
 73 770 l 2
 73 771 79 773 90 774 c 0
 102 775 116 776 131 776 c 0
 160 776 185 770 204 758 c 0
 223 746 240 730 253 710 c 0
 266 689 278 666 289 641 c 0
 338 522 383 408 424 298 c 0
 464 189 496 89 521 0 c 1
 434 0 l 1
 417 71 396 146 371 224 c 0
 346 302 320 377 291 450 c 1
 262 400 235 348 212 292 c 0
 188 238 167 184 150 134 c 0
 133 82 119 38 109 0 c 1
 35 0 l 1
EndSplineSet
Validated: 1
EndChar

StartChar: xi
Encoding: 519 958 450
Width: 559
Flags: HW
LayerCount: 2
Fore
SplineSet
453 -187 m 1
 383 -169 l 1
 386 -164 391 -156 398 -144 c 0
 404 -132 410 -118 415 -104 c 0
 420 -88 423 -75 423 -63 c 0
 423 -40 414 -23 395 -14 c 0
 376 -5 343 3 296 10 c 0
 224 20 169 42 132 75 c 0
 95 108 76 156 76 219 c 0
 76 249 82 275 93 298 c 0
 104 321 118 340 135 356 c 0
 152 372 169 385 187 395 c 0
 205 405 220 412 233 417 c 1
 208 423 186 434 168 452 c 0
 149 468 135 488 126 510 c 0
 116 533 111 555 111 577 c 0
 111 622 122 660 143 689 c 0
 164 718 193 740 228 754 c 0
 264 769 303 776 345 776 c 0
 376 776 403 774 426 770 c 0
 448 766 464 762 474 758 c 1
 462 687 l 1
 454 690 440 694 421 699 c 0
 402 704 377 707 348 707 c 0
 293 707 253 695 228 671 c 0
 203 647 190 617 190 582 c 0
 190 552 198 527 216 508 c 0
 232 489 256 474 284 464 c 0
 314 455 346 450 383 450 c 2
 447 450 l 1
 447 382 l 1
 393 382 l 2
 380 382 364 381 344 378 c 0
 324 375 303 370 282 364 c 0
 260 356 240 347 220 334 c 0
 202 321 186 305 174 286 c 0
 162 267 156 243 156 215 c 0
 156 172 171 140 202 119 c 0
 232 98 277 83 336 76 c 0
 399 67 442 52 466 31 c 0
 488 10 500 -20 500 -57 c 0
 500 -82 495 -106 484 -129 c 0
 474 -152 464 -172 453 -187 c 1
EndSplineSet
Validated: 1
EndChar

StartChar: pi
Encoding: 521 960 452
Width: 559
Flags: HW
LayerCount: 2
Fore
SplineSet
83 0 m 1
 83 518 l 1
 477 518 l 1
 477 0 l 1
 399 0 l 1
 399 451 l 1
 161 451 l 1
 161 0 l 1
 83 0 l 1
EndSplineSet
Validated: 1
EndChar

StartChar: rho
Encoding: 522 961 453
Width: 559
Flags: HW
LayerCount: 2
Fore
SplineSet
83 -185 m 1
 83 290 l 2
 83 367 101 426 136 468 c 0
 171 508 221 529 286 529 c 0
 357 529 412 506 452 460 c 0
 492 415 512 347 512 258 c 0
 512 207 503 160 486 120 c 0
 469 78 444 46 410 22 c 0
 378 -1 338 -13 292 -13 c 0
 264 -13 238 -8 214 1 c 0
 191 10 173 19 160 28 c 1
 160 -185 l 1
 83 -185 l 1
285 57 m 0
 319 57 347 66 368 84 c 0
 389 102 405 126 416 156 c 0
 426 187 431 220 431 256 c 0
 431 319 420 369 398 406 c 0
 376 442 339 460 287 460 c 0
 246 460 215 444 193 414 c 0
 171 382 160 334 160 269 c 2
 160 104 l 1
 181 85 203 73 226 66 c 0
 248 60 268 57 285 57 c 0
EndSplineSet
Validated: 1
EndChar

StartChar: sigma
Encoding: 523 963 454
Width: 559
Flags: HW
LayerCount: 2
Fore
SplineSet
275 -12 m 0
 248 -12 222 -7 195 3 c 0
 168 13 144 28 122 49 c 0
 100 70 82 96 69 128 c 0
 56 160 49 198 49 242 c 0
 49 293 56 337 71 372 c 0
 86 407 105 436 130 457 c 0
 155 478 183 494 214 504 c 0
 245 513 278 518 311 518 c 2
 524 518 l 1
 524 451 l 1
 416 451 l 1
 445 418 467 383 480 346 c 0
 493 309 500 274 500 239 c 0
 500 189 490 145 470 108 c 0
 450 70 423 40 390 20 c 0
 356 -2 318 -12 275 -12 c 0
275 59 m 0
 306 59 332 67 354 84 c 0
 375 101 392 123 403 150 c 0
 414 177 420 207 420 239 c 0
 420 276 412 313 398 351 c 0
 382 389 359 422 328 451 c 1
 307 451 l 2
 292 451 275 449 255 445 c 0
 235 441 216 432 196 419 c 0
 178 406 162 385 149 358 c 0
 136 330 130 292 130 245 c 0
 130 201 137 165 151 138 c 0
 165 111 183 91 205 78 c 0
 227 65 250 59 275 59 c 0
EndSplineSet
Validated: 1
EndChar

StartChar: tau
Encoding: 524 964 455
Width: 559
Flags: HW
LayerCount: 2
Fore
SplineSet
369 -12 m 0
 327 -12 292 -6 266 5 c 0
 238 16 219 37 206 66 c 0
 193 95 187 137 187 190 c 2
 187 451 l 1
 80 451 l 1
 80 518 l 1
 473 518 l 1
 473 451 l 1
 265 451 l 1
 265 201 l 2
 265 164 268 135 275 114 c 0
 282 94 294 80 310 72 c 0
 328 64 351 60 380 60 c 0
 401 60 419 62 436 66 c 0
 453 70 468 75 483 82 c 1
 494 16 l 1
 471 6 450 -1 430 -6 c 0
 410 -10 390 -12 369 -12 c 0
EndSplineSet
Validated: 1
EndChar

StartChar: upsilon
Encoding: 525 965 456
Width: 559
Flags: HW
LayerCount: 2
Fore
SplineSet
279 -10 m 0
 238 -10 205 -3 180 12 c 0
 155 27 135 46 122 69 c 0
 109 92 100 118 94 145 c 0
 90 172 87 199 87 224 c 2
 87 518 l 1
 165 518 l 1
 165 226 l 2
 165 163 175 119 195 94 c 0
 215 69 243 56 279 56 c 0
 315 56 343 69 364 94 c 0
 384 119 394 163 394 226 c 2
 394 518 l 1
 471 518 l 1
 471 224 l 2
 471 199 468 172 464 145 c 0
 458 118 449 92 436 69 c 0
 423 46 403 27 378 12 c 0
 353 -3 320 -10 279 -10 c 0
EndSplineSet
Validated: 1
EndChar

StartChar: phi
Encoding: 526 966 457
Width: 559
Flags: HW
LayerCount: 2
Fore
SplineSet
243 -185 m 1
 243 -3 l 1
 209 -3 176 7 143 26 c 0
 110 46 83 76 62 115 c 0
 41 154 30 203 30 260 c 0
 30 321 42 371 66 410 c 0
 89 450 120 480 158 500 c 0
 197 520 238 530 283 530 c 0
 326 530 366 520 404 500 c 0
 441 480 472 450 496 410 c 0
 519 371 531 321 531 260 c 0
 531 203 520 154 499 115 c 0
 478 76 450 46 418 26 c 0
 384 7 351 -3 316 -3 c 1
 316 -185 l 1
 243 -185 l 1
243 68 m 1
 243 452 l 1
 220 451 199 443 180 428 c 0
 161 412 145 390 134 362 c 0
 122 333 116 299 116 259 c 0
 116 220 122 187 134 158 c 0
 145 130 161 108 180 92 c 0
 199 77 220 69 243 68 c 1
316 68 m 1
 352 69 382 87 407 121 c 0
 432 155 444 201 444 259 c 0
 444 318 431 365 406 399 c 0
 381 433 351 451 316 452 c 1
 316 68 l 1
EndSplineSet
Validated: 1
EndChar

StartChar: psi
Encoding: 528 968 459
Width: 559
Flags: HW
LayerCount: 2
Fore
SplineSet
243 -185 m 1
 243 -11 l 1
 196 -10 157 4 128 29 c 0
 99 54 78 87 64 128 c 0
 52 169 45 212 45 258 c 2
 45 518 l 1
 132 518 l 1
 132 280 l 2
 132 209 140 156 157 120 c 0
 174 83 202 63 243 60 c 1
 243 400 l 1
 316 400 l 1
 316 60 l 1
 356 63 384 83 402 120 c 0
 418 156 427 209 427 280 c 2
 427 518 l 1
 513 518 l 1
 513 258 l 2
 513 211 506 167 494 126 c 0
 480 86 460 54 430 28 c 0
 402 4 363 -10 316 -11 c 1
 316 -185 l 1
 243 -185 l 1
EndSplineSet
Validated: 1
EndChar

StartChar: omega
Encoding: 529 969 460
Width: 559
Flags: HW
LayerCount: 2
Fore
SplineSet
180 -10 m 0
 147 -10 120 0 100 19 c 0
 80 38 66 64 57 96 c 0
 48 127 44 162 44 200 c 0
 44 241 48 282 57 324 c 0
 66 367 77 406 92 442 c 0
 107 478 123 507 142 528 c 1
 223 503 l 1
 203 476 186 445 172 408 c 0
 158 371 147 334 140 294 c 0
 132 256 128 219 128 185 c 0
 128 148 132 118 138 96 c 0
 146 72 159 61 180 61 c 0
 198 61 213 74 226 99 c 0
 238 124 244 161 244 210 c 2
 244 311 l 1
 319 311 l 1
 319 210 l 2
 319 161 325 124 337 99 c 0
 349 74 364 61 383 61 c 0
 404 61 418 73 425 96 c 0
 432 119 435 149 435 185 c 0
 435 219 431 256 424 294 c 0
 417 334 406 371 392 408 c 0
 377 445 360 476 339 503 c 1
 419 528 l 1
 439 506 456 477 471 441 c 0
 486 405 497 366 506 324 c 0
 514 282 518 241 518 200 c 0
 518 162 514 127 505 96 c 0
 496 64 482 38 462 19 c 0
 442 0 415 -10 382 -10 c 0
 363 -10 345 -4 326 9 c 0
 308 22 293 42 281 69 c 1
 270 42 255 22 236 9 c 0
 217 -4 199 -10 180 -10 c 0
EndSplineSet
Validated: 1
EndChar

StartChar: Alphatonos
Encoding: 530 902 461
Width: 559
Flags: HW
LayerCount: 2
Fore
SplineSet
10 0 m 1
 13 41 15 82 17 123 c 2
 40 692 l 1
 513 693 l 1
 549 0 l 1
 467 0 l 1
 455 191 l 1
 99 191 l 1
 89 0 l 1
 10 0 l 1
99 255 m 1
 463 255 l 1
 443 623 l 1
 111 621 l 1
 99 255 l 1
85 499 m 1
 26 513 l 1
 69 707 l 1
 150 688 l 1
 85 499 l 1
EndSplineSet
Validated: 5
EndChar

StartChar: Epsilontonos
Encoding: 531 904 462
Width: 559
Flags: HW
LayerCount: 2
Fore
SplineSet
5 499 m 1
 -54 513 l 1
 -11 707 l 1
 70 688 l 1
 5 499 l 1
0 0 m 1
 0 689 l 1
 491 693 l 1
 491 626 l 1
 58 627 l 1
 64 397 l 1
 454 396 l 1
 454 329 l 1
 62 329 l 1
 64 65 l 1
 515 67 l 1
 515 0 l 1
 0 0 l 1
EndSplineSet
Validated: 5
EndChar

StartChar: Etatonos
Encoding: 532 905 463
Width: 559
Flags: HW
LayerCount: 2
Fore
SplineSet
50 0 m 1
 50 693 l 1
 128 693 l 1
 128 395 l 1
 432 395 l 1
 432 693 l 1
 510 693 l 1
 510 0 l 1
 432 0 l 1
 432 328 l 1
 128 328 l 1
 128 0 l 1
 50 0 l 1
-64 499 m 1
 -123 513 l 1
 -80 707 l 1
 1 688 l 1
 -64 499 l 1
EndSplineSet
Validated: 1
EndChar

StartChar: Iotatonos
Encoding: 533 906 464
Width: 559
Flags: HW
LayerCount: 2
Fore
SplineSet
112 0 m 1
 112 67 l 1
 241 67 l 1
 241 626 l 1
 112 626 l 1
 112 693 l 1
 448 693 l 1
 448 626 l 1
 319 626 l 1
 319 67 l 1
 448 67 l 1
 448 0 l 1
 112 0 l 1
1 499 m 1
 -58 513 l 1
 -15 707 l 1
 66 688 l 1
 1 499 l 1
EndSplineSet
Validated: 1
EndChar

StartChar: Omicrontonos
Encoding: 535 908 466
Width: 559
Flags: HW
LayerCount: 2
Fore
SplineSet
280 -15 m 0
 232 -15 190 -2 152 23 c 0
 116 48 86 88 65 141 c 0
 44 194 33 263 33 347 c 0
 33 431 44 500 64 553 c 0
 86 606 114 646 152 671 c 0
 188 696 231 709 280 709 c 0
 328 709 371 696 408 671 c 0
 445 646 475 606 496 553 c 0
 518 500 529 431 529 347 c 0
 529 263 518 194 497 141 c 0
 476 88 446 48 408 23 c 0
 371 -2 328 -15 280 -15 c 0
277 53 m 0
 330 53 372 78 403 127 c 0
 434 176 449 250 449 347 c 0
 449 445 434 518 403 568 c 0
 372 616 330 641 277 641 c 0
 224 641 184 617 156 568 c 0
 128 519 114 446 114 347 c 0
 114 250 128 176 156 127 c 0
 184 78 224 53 277 53 c 0
-2 499 m 1
 -61 513 l 1
 -18 707 l 1
 63 688 l 1
 -2 499 l 1
EndSplineSet
Validated: 1
EndChar

StartChar: Upsilontonos
Encoding: 536 910 467
Width: 559
Flags: HW
LayerCount: 2
Fore
SplineSet
242 0 m 1
 242 257 l 1
 195 332 150 405 106 477 c 0
 62 549 27 621 0 693 c 1
 90 693 l 1
 119 608 146 546 168 510 c 0
 206 448 244 386 281 325 c 1
 308 373 332 417 352 456 c 0
 374 496 395 534 416 572 c 0
 438 608 457 648 472 689 c 1
 560 689 l 1
 532 618 496 548 453 478 c 0
 410 410 365 336 320 259 c 1
 320 0 l 1
 242 0 l 1
-74 499 m 1
 -133 513 l 1
 -90 707 l 1
 -9 688 l 1
 -74 499 l 1
EndSplineSet
Validated: 1
EndChar

StartChar: Omegatonos
Encoding: 538 911 469
Width: 559
Flags: HW
LayerCount: 2
Fore
SplineSet
23 0 m 1
 23 67 l 1
 153 67 l 1
 117 113 90 165 71 224 c 0
 52 282 43 339 43 396 c 0
 43 433 47 470 56 508 c 0
 65 544 78 578 98 608 c 0
 116 639 141 663 172 682 c 0
 202 700 238 709 281 709 c 0
 324 709 361 700 391 682 c 0
 421 663 445 639 464 608 c 0
 483 578 496 544 505 508 c 0
 514 470 518 433 518 396 c 0
 518 339 508 282 490 224 c 0
 470 165 443 113 408 67 c 1
 537 67 l 1
 537 0 l 1
 322 0 l 1
 322 58 l 1
 348 85 370 118 387 158 c 0
 404 196 418 238 426 280 c 0
 436 324 440 365 440 404 c 0
 440 447 434 487 422 522 c 0
 411 558 393 587 370 608 c 0
 346 630 316 641 281 641 c 0
 246 641 216 630 192 608 c 0
 169 587 151 558 140 522 c 0
 128 487 122 447 122 404 c 0
 122 365 126 324 136 280 c 0
 144 238 158 196 176 158 c 0
 193 118 215 85 240 58 c 1
 240 0 l 1
 23 0 l 1
-6 499 m 1
 -65 513 l 1
 -22 707 l 1
 59 688 l 1
 -6 499 l 1
EndSplineSet
Validated: 1
EndChar

StartChar: alphatonos
Encoding: 539 940 470
Width: 559
Flags: HW
LayerCount: 2
Fore
SplineSet
283 -11 m 0
 232 -11 190 1 157 26 c 0
 124 50 99 83 82 124 c 0
 66 165 58 211 58 262 c 0
 58 315 68 362 88 402 c 0
 108 442 136 473 172 496 c 0
 208 518 250 529 299 529 c 0
 324 529 349 527 373 524 c 0
 397 520 418 516 436 511 c 0
 455 506 468 502 476 499 c 1
 476 158 l 2
 476 126 478 103 484 90 c 0
 488 76 502 65 524 58 c 1
 510 -10 l 1
 491 -4 476 2 464 8 c 0
 451 15 439 26 427 42 c 1
 416 31 398 20 374 8 c 0
 349 -5 319 -11 283 -11 c 0
285 59 m 0
 314 59 338 64 360 74 c 0
 380 85 395 94 403 102 c 1
 401 111 400 120 398 128 c 0
 398 136 397 145 397 156 c 2
 397 446 l 2
 394 449 383 452 365 455 c 0
 347 458 328 460 307 460 c 0
 258 460 218 443 186 408 c 0
 155 373 139 324 139 260 c 0
 139 224 144 191 153 160 c 0
 162 129 178 105 200 86 c 0
 221 68 250 59 285 59 c 0
274 573 m 1
 226 606 l 1
 334 772 l 1
 398 730 l 1
 274 573 l 1
EndSplineSet
Validated: 1
EndChar

StartChar: epsilontonos
Encoding: 540 941 471
Width: 559
Flags: HW
LayerCount: 2
Fore
SplineSet
309 -11 m 0
 286 -11 261 -9 234 -5 c 0
 207 -1 182 6 159 17 c 0
 136 28 116 43 102 64 c 0
 86 85 79 112 79 146 c 0
 79 171 88 195 105 220 c 0
 122 244 144 261 171 272 c 1
 163 275 153 281 142 290 c 0
 131 299 120 312 112 328 c 0
 102 343 98 362 98 383 c 0
 98 431 118 468 160 493 c 0
 200 518 257 531 330 531 c 0
 352 531 374 530 396 527 c 0
 419 524 438 521 455 518 c 0
 472 514 482 510 486 507 c 1
 475 438 l 1
 472 440 463 443 448 448 c 0
 432 452 414 456 392 460 c 0
 372 464 352 466 333 466 c 0
 306 466 280 464 258 458 c 0
 234 454 216 445 202 434 c 0
 189 423 182 407 182 387 c 0
 182 362 189 343 202 332 c 0
 216 320 233 312 252 310 c 0
 272 306 291 305 308 305 c 2
 401 305 l 1
 401 240 l 1
 305 240 l 2
 280 240 257 237 236 232 c 0
 214 226 196 216 182 203 c 0
 169 190 162 171 162 148 c 0
 162 117 175 94 202 79 c 0
 229 64 269 57 323 57 c 0
 351 57 378 59 402 64 c 0
 428 69 449 74 467 80 c 0
 485 86 497 91 503 94 c 1
 526 27 l 1
 517 22 494 14 456 4 c 0
 418 -6 369 -11 309 -11 c 0
289 573 m 1
 241 606 l 1
 349 772 l 1
 413 730 l 1
 289 573 l 1
EndSplineSet
Validated: 1
EndChar

StartChar: etatonos
Encoding: 541 942 472
Width: 559
Flags: HW
LayerCount: 2
Fore
SplineSet
403 -185 m 1
 403 291 l 2
 403 339 397 375 385 398 c 0
 373 422 357 438 336 446 c 0
 316 454 293 458 268 458 c 0
 233 458 198 454 161 447 c 1
 161 0 l 1
 83 0 l 1
 83 504 l 1
 118 513 152 520 185 524 c 0
 218 527 246 529 271 529 c 0
 314 529 352 522 383 508 c 0
 414 493 438 470 456 438 c 0
 472 405 481 362 481 307 c 2
 481 -185 l 1
 403 -185 l 1
262 573 m 1
 214 606 l 1
 322 772 l 1
 386 730 l 1
 262 573 l 1
EndSplineSet
Validated: 1
EndChar

StartChar: iotatonos
Encoding: 542 943 473
Width: 559
Flags: HW
LayerCount: 2
Fore
SplineSet
374 -12 m 0
 337 -12 306 -6 284 6 c 0
 260 17 244 37 234 64 c 0
 224 92 219 130 219 179 c 2
 219 451 l 1
 66 451 l 1
 66 518 l 1
 295 518 l 1
 295 201 l 2
 295 160 298 130 304 108 c 0
 309 88 319 74 332 66 c 0
 346 60 365 56 389 56 c 0
 398 56 413 58 434 62 c 0
 455 65 472 71 487 80 c 1
 498 16 l 1
 480 7 460 0 438 -5 c 0
 417 -10 395 -12 374 -12 c 0
251 573 m 1
 203 606 l 1
 311 772 l 1
 375 730 l 1
 251 573 l 1
EndSplineSet
Validated: 1
EndChar

StartChar: iotadieresis
Encoding: 543 970 474
Width: 559
Flags: HW
LayerCount: 2
Fore
SplineSet
374 -12 m 0
 337 -12 306 -6 284 6 c 0
 260 17 244 37 234 64 c 0
 224 92 219 130 219 179 c 2
 219 451 l 1
 66 451 l 1
 66 518 l 1
 295 518 l 1
 295 201 l 2
 295 160 298 130 304 108 c 0
 309 88 319 74 332 66 c 0
 346 60 365 56 389 56 c 0
 398 56 413 58 434 62 c 0
 455 65 472 71 487 80 c 1
 498 16 l 1
 480 7 460 0 438 -5 c 0
 417 -10 395 -12 374 -12 c 0
319 620 m 0
 305 620 293 625 282 636 c 0
 271 647 266 659 266 674 c 0
 266 690 271 703 282 713 c 0
 293 723 305 728 319 728 c 0
 334 728 346 723 356 713 c 0
 366 703 371 690 371 674 c 0
 371 659 366 647 356 636 c 0
 346 625 334 620 319 620 c 0
139 620 m 0
 126 620 114 625 102 636 c 0
 92 647 86 659 86 674 c 0
 86 690 92 703 102 713 c 0
 114 723 126 728 139 728 c 0
 153 728 165 723 176 713 c 0
 186 703 191 690 191 674 c 0
 191 659 186 647 176 636 c 0
 165 625 153 620 139 620 c 0
EndSplineSet
Validated: 1
EndChar

StartChar: iotadieresistonos
Encoding: 544 912 475
Width: 559
Flags: HW
LayerCount: 2
Fore
SplineSet
374 -12 m 0
 337 -12 306 -6 284 6 c 0
 260 17 244 37 234 64 c 0
 224 92 219 130 219 179 c 2
 219 451 l 1
 66 451 l 1
 66 518 l 1
 295 518 l 1
 295 201 l 2
 295 160 298 130 304 108 c 0
 309 88 319 74 332 66 c 0
 346 60 365 56 389 56 c 0
 398 56 413 58 434 62 c 0
 455 65 472 71 487 80 c 1
 498 16 l 1
 480 7 460 0 438 -5 c 0
 417 -10 395 -12 374 -12 c 0
198 580 m 1
 152 610 l 1
 241 770 l 1
 301 726 l 1
 198 580 l 1
92 627 m 0
 79 627 67 631 58 640 c 0
 48 649 43 660 43 675 c 0
 43 690 48 702 58 711 c 0
 67 720 79 725 92 725 c 0
 105 725 116 720 125 711 c 0
 134 702 138 690 138 675 c 0
 138 660 134 649 125 640 c 0
 116 631 105 627 92 627 c 0
367 627 m 0
 353 627 342 631 332 640 c 0
 324 649 319 660 319 675 c 0
 319 690 324 702 332 711 c 0
 342 720 353 725 367 725 c 0
 382 725 393 720 402 711 c 0
 411 702 415 690 415 675 c 0
 415 660 411 649 402 640 c 0
 393 631 382 627 367 627 c 0
EndSplineSet
Validated: 1
EndChar

StartChar: omicrontonos
Encoding: 545 972 476
Width: 559
Flags: HW
LayerCount: 2
Fore
SplineSet
278 -11 m 0
 234 -11 195 0 160 22 c 0
 126 45 99 76 79 116 c 0
 59 157 49 204 49 259 c 0
 49 314 59 361 78 402 c 0
 98 442 125 473 160 496 c 0
 195 519 234 530 278 530 c 0
 323 530 364 519 398 496 c 0
 434 473 461 442 481 402 c 0
 501 361 511 314 511 259 c 0
 511 204 501 157 481 116 c 0
 461 76 434 45 398 22 c 0
 364 0 323 -11 278 -11 c 0
279 61 m 0
 324 61 361 78 388 114 c 0
 416 148 430 197 430 259 c 0
 430 321 416 370 388 406 c 0
 360 441 323 459 278 459 c 0
 234 459 198 441 171 406 c 0
 144 370 130 321 130 259 c 0
 130 197 144 148 172 114 c 0
 200 78 236 61 279 61 c 0
262 573 m 1
 214 606 l 1
 322 772 l 1
 386 730 l 1
 262 573 l 1
EndSplineSet
Validated: 1
EndChar

StartChar: upsilondieresis
Encoding: 546 971 477
Width: 559
Flags: HW
LayerCount: 2
Fore
SplineSet
279 -10 m 0
 238 -10 205 -3 180 12 c 0
 155 27 135 46 122 69 c 0
 109 92 100 118 94 145 c 0
 90 172 87 199 87 224 c 2
 87 518 l 1
 165 518 l 1
 165 226 l 2
 165 163 175 119 195 94 c 0
 215 69 243 56 279 56 c 0
 315 56 343 69 364 94 c 0
 384 119 394 163 394 226 c 2
 394 518 l 1
 471 518 l 1
 471 224 l 2
 471 199 468 172 464 145 c 0
 458 118 449 92 436 69 c 0
 423 46 403 27 378 12 c 0
 353 -3 320 -10 279 -10 c 0
370 620 m 0
 356 620 344 625 333 636 c 0
 322 647 317 659 317 674 c 0
 317 690 322 703 333 713 c 0
 344 723 356 728 370 728 c 0
 385 728 397 723 407 713 c 0
 417 703 422 690 422 674 c 0
 422 659 417 647 407 636 c 0
 397 625 385 620 370 620 c 0
190 620 m 0
 177 620 164 625 154 636 c 0
 142 647 137 659 137 674 c 0
 137 690 142 703 154 713 c 0
 164 723 177 728 190 728 c 0
 204 728 216 723 226 713 c 0
 237 703 242 690 242 674 c 0
 242 659 237 647 226 636 c 0
 216 625 204 620 190 620 c 0
EndSplineSet
Validated: 1
EndChar

StartChar: upsilontonos
Encoding: 547 973 478
Width: 559
Flags: HW
LayerCount: 2
Fore
SplineSet
279 -10 m 0
 238 -10 205 -3 180 12 c 0
 155 27 135 46 122 69 c 0
 109 92 100 118 94 145 c 0
 90 172 87 199 87 224 c 2
 87 518 l 1
 165 518 l 1
 165 226 l 2
 165 163 175 119 195 94 c 0
 215 69 243 56 279 56 c 0
 315 56 343 69 364 94 c 0
 384 119 394 163 394 226 c 2
 394 518 l 1
 471 518 l 1
 471 224 l 2
 471 199 468 172 464 145 c 0
 458 118 449 92 436 69 c 0
 423 46 403 27 378 12 c 0
 353 -3 320 -10 279 -10 c 0
265 573 m 1
 217 606 l 1
 325 772 l 1
 389 730 l 1
 265 573 l 1
EndSplineSet
Validated: 1
EndChar

StartChar: upsilondieresistonos
Encoding: 548 944 479
Width: 559
Flags: HW
LayerCount: 2
Fore
SplineSet
279 -10 m 0
 238 -10 205 -3 180 12 c 0
 155 27 135 46 122 69 c 0
 109 92 100 118 94 145 c 0
 90 172 87 199 87 224 c 2
 87 518 l 1
 165 518 l 1
 165 226 l 2
 165 163 175 119 195 94 c 0
 215 69 243 56 279 56 c 0
 315 56 343 69 364 94 c 0
 384 119 394 163 394 226 c 2
 394 518 l 1
 471 518 l 1
 471 224 l 2
 471 199 468 172 464 145 c 0
 458 118 449 92 436 69 c 0
 423 46 403 27 378 12 c 0
 353 -3 320 -10 279 -10 c 0
249 580 m 1
 203 610 l 1
 292 770 l 1
 352 726 l 1
 249 580 l 1
143 627 m 0
 130 627 118 631 108 640 c 0
 99 649 94 660 94 675 c 0
 94 690 99 702 108 711 c 0
 118 720 130 725 143 725 c 0
 156 725 167 720 176 711 c 0
 185 702 189 690 189 675 c 0
 189 660 185 649 176 640 c 0
 167 631 156 627 143 627 c 0
418 627 m 0
 404 627 392 631 384 640 c 0
 374 649 370 660 370 675 c 0
 370 690 374 702 384 711 c 0
 392 720 404 725 418 725 c 0
 433 725 444 720 453 711 c 0
 462 702 466 690 466 675 c 0
 466 660 462 649 453 640 c 0
 444 631 433 627 418 627 c 0
EndSplineSet
Validated: 1
EndChar

StartChar: omegatonos
Encoding: 549 974 480
Width: 559
Flags: HW
LayerCount: 2
Fore
SplineSet
180 -10 m 0
 147 -10 120 0 100 19 c 0
 80 38 66 64 57 96 c 0
 48 127 44 162 44 200 c 0
 44 241 48 282 57 324 c 0
 66 367 77 406 92 442 c 0
 107 478 123 507 142 528 c 1
 223 503 l 1
 203 476 186 445 172 408 c 0
 158 371 147 334 140 294 c 0
 132 256 128 219 128 185 c 0
 128 148 132 118 138 96 c 0
 146 72 159 61 180 61 c 0
 198 61 213 74 226 99 c 0
 238 124 244 161 244 210 c 2
 244 311 l 1
 319 311 l 1
 319 210 l 2
 319 161 325 124 337 99 c 0
 349 74 364 61 383 61 c 0
 404 61 418 73 425 96 c 0
 432 119 435 149 435 185 c 0
 435 219 431 256 424 294 c 0
 417 334 406 371 392 408 c 0
 377 445 360 476 339 503 c 1
 419 528 l 1
 439 506 456 477 471 441 c 0
 486 405 497 366 506 324 c 0
 514 282 518 241 518 200 c 0
 518 162 514 127 505 96 c 0
 496 64 482 38 462 19 c 0
 442 0 415 -10 382 -10 c 0
 363 -10 345 -4 326 9 c 0
 308 22 293 42 281 69 c 1
 270 42 255 22 236 9 c 0
 217 -4 199 -10 180 -10 c 0
269 573 m 1
 221 606 l 1
 329 772 l 1
 393 730 l 1
 269 573 l 1
EndSplineSet
Validated: 1
EndChar

StartChar: tonos
Encoding: 550 900 481
Width: 559
Flags: HW
LayerCount: 2
Fore
SplineSet
237 573 m 1
 189 606 l 1
 297 772 l 1
 361 730 l 1
 237 573 l 1
EndSplineSet
Validated: 1
EndChar

StartChar: tonos.cap
Encoding: 551 -1 482
Width: 559
Flags: HW
LayerCount: 2
Fore
SplineSet
302 499 m 1
 243 513 l 1
 286 707 l 1
 367 688 l 1
 302 499 l 1
EndSplineSet
Validated: 1
EndChar

StartChar: dieresistonos
Encoding: 552 901 483
Width: 559
Flags: HW
LayerCount: 2
Fore
SplineSet
236 580 m 1
 190 610 l 1
 279 770 l 1
 339 726 l 1
 236 580 l 1
130 627 m 0
 117 627 105 631 96 640 c 0
 86 649 81 660 81 675 c 0
 81 690 86 702 96 711 c 0
 105 720 117 725 130 725 c 0
 143 725 154 720 163 711 c 0
 172 702 176 690 176 675 c 0
 176 660 172 649 163 640 c 0
 154 631 143 627 130 627 c 0
405 627 m 0
 391 627 380 631 370 640 c 0
 362 649 357 660 357 675 c 0
 357 690 362 702 370 711 c 0
 380 720 391 725 405 725 c 0
 420 725 431 720 440 711 c 0
 449 702 453 690 453 675 c 0
 453 660 449 649 440 640 c 0
 431 631 420 627 405 627 c 0
EndSplineSet
Validated: 1
EndChar

